<svg width="445" height="412" viewBox="0 0 445 412" fill="none" xmlns="http://www.w3.org/2000/svg">
    <path fill-rule="evenodd" clip-rule="evenodd" d="M119.181 58.1107C118.994 57.4912 118.426 57.0659 117.779 57.0626C117.775 57.0626 117.771 57.0626 117.768 57.0626C117.18 57.0656 116.705 57.5448 116.708 58.133C116.709 58.3469 116.71 58.4716 116.71 58.5074C116.71 58.5096 116.71 58.5122 116.71 58.5151C116.71 59.2126 117.268 59.7816 117.966 59.7949L118.154 59.7985C118.212 59.7996 118.269 59.7962 118.326 59.7886C118.943 59.7054 119.376 59.1378 119.293 58.5207C119.287 58.4767 119.25 58.34 119.181 58.1107ZM114.172 82.151C113.986 81.5315 113.417 81.1062 112.77 81.1029C112.767 81.1028 112.763 81.1028 112.759 81.1029C112.171 81.1058 111.697 81.5851 111.7 82.1732C111.701 82.3871 111.702 82.5119 111.702 82.5476C111.702 82.5499 111.702 82.5525 111.702 82.5554C111.702 83.2528 112.26 83.8219 112.957 83.8352L113.146 83.8387C113.203 83.8398 113.261 83.8365 113.318 83.8288C113.935 83.7457 114.368 83.1781 114.285 82.561C114.279 82.517 114.241 82.3803 114.172 82.151ZM262.881 64.6381C262.789 64.8484 262.737 64.9745 262.727 65.0166C262.569 65.6251 262.935 66.2458 263.544 66.403C263.597 66.4167 263.651 66.4265 263.705 66.4324L263.918 66.4556C264.615 66.5316 265.243 66.0319 265.326 65.3357C265.33 65.301 265.345 65.1812 265.37 64.9766C265.443 64.3786 265.018 63.8343 264.42 63.7609C263.769 63.681 263.144 64.0377 262.881 64.6381ZM264.475 86.3464C264.37 86.5867 264.311 86.7309 264.299 86.7789C264.119 87.4744 264.537 88.1838 265.233 88.3633C265.293 88.379 265.355 88.3902 265.417 88.397L265.661 88.4235C266.457 88.5103 267.175 87.9393 267.27 87.1437C267.274 87.1039 267.291 86.9671 267.32 86.7332C267.404 86.0498 266.918 85.4277 266.234 85.3438C265.491 85.2525 264.775 85.6602 264.475 86.3464ZM213.293 13.1099C212.97 12.0291 211.976 11.2884 210.849 11.2884C209.812 11.2884 208.971 12.129 208.971 13.166C208.971 13.5232 208.971 13.732 208.97 13.7926C208.966 15.0011 209.935 15.9879 211.144 16.0044L211.506 16.0094C211.6 16.0107 211.694 16.0052 211.788 15.993C212.862 15.8521 213.619 14.867 213.478 13.7926C213.468 13.7182 213.407 13.4907 213.293 13.1099Z" fill="#F6F0FF"/>
    <path fill-rule="evenodd" clip-rule="evenodd" d="M238.002 207.314C236.844 216.358 235.926 221.534 235.247 222.84C234.229 224.8 228.987 226.597 227.985 226.597C227.317 226.597 202.609 228.683 153.861 232.857C150.188 232.857 147.016 231.772 144.345 229.602C143.268 228.727 143.377 227.475 142.843 225.595C142.316 223.741 141.815 219.817 141.34 213.825L153.861 207.314H238.002Z" fill="white"/>
    <path d="M264.271 63.5288C265.075 63.6275 265.646 64.3592 265.548 65.1631C265.523 65.367 265.508 65.4867 265.504 65.5208C265.397 66.4216 264.584 67.068 263.682 66.9698L263.469 66.9466C263.397 66.9387 263.325 66.9256 263.255 66.9074C262.445 66.6984 261.959 65.8728 262.168 65.0634C262.186 64.9927 262.238 64.8641 262.342 64.6283C262.671 63.8757 263.455 63.4287 264.271 63.5288ZM263.03 64.9295C262.949 65.1142 262.899 65.2379 262.895 65.2512C262.79 65.6589 263.035 66.0747 263.443 66.18C263.478 66.1892 263.514 66.1958 263.551 66.1998L263.764 66.223C264.256 66.2766 264.699 65.9238 264.758 65.4322C264.762 65.3967 264.777 65.277 264.802 65.0716C264.85 64.6795 264.571 64.3226 264.179 64.2744C263.693 64.2148 263.226 64.4811 263.03 64.9295ZM266.085 85.1117C266.974 85.2209 267.607 86.0304 267.498 86.9197C267.469 87.1529 267.452 87.2897 267.448 87.3287C267.329 88.3289 266.426 89.0468 265.425 88.9377L265.181 88.9112C265.101 88.9024 265.022 88.8879 264.944 88.8678C264.048 88.6363 263.509 87.7221 263.74 86.8257C263.76 86.749 263.82 86.6024 263.936 86.3366C264.303 85.4982 265.177 85.0002 266.085 85.1117ZM264.624 86.6377C264.53 86.8525 264.472 86.9942 264.468 87.0136C264.34 87.5082 264.637 88.0127 265.132 88.1404C265.175 88.1515 265.219 88.1595 265.263 88.1644L265.506 88.1909C266.098 88.2553 266.631 87.8311 266.702 87.2401C266.706 87.1996 266.723 87.0628 266.752 86.8282C266.81 86.3507 266.471 85.916 265.993 85.8574C265.415 85.7863 264.858 86.1036 264.624 86.6377ZM117.769 56.5026C118.581 56.5068 119.295 57.0406 119.529 57.8182C119.606 58.0743 119.644 58.213 119.654 58.2862C119.765 59.1088 119.188 59.8656 118.365 59.9764C118.289 59.9867 118.212 59.9911 118.136 59.9896L117.947 59.9861C117.045 59.9689 116.323 59.2328 116.323 58.3307L116.323 58.3234C116.323 58.2884 116.322 58.1636 116.321 57.9505C116.317 57.1549 116.959 56.5066 117.755 56.5026C117.762 56.5026 117.762 56.5026 117.769 56.5026ZM118.909 58.3865C118.907 58.3716 118.87 58.237 118.809 58.0344C118.671 57.5731 118.247 57.2563 117.765 57.2538C117.762 57.2538 117.762 57.2538 117.758 57.2538C117.378 57.2558 117.071 57.566 117.072 57.9467C117.074 58.1613 117.074 58.2861 117.074 58.3225L117.074 58.3307C117.074 58.8235 117.469 59.2256 117.962 59.2349L118.15 59.2385C118.188 59.2392 118.227 59.237 118.265 59.2319C118.676 59.1765 118.965 58.798 118.909 58.3865ZM112.761 80.5428C113.573 80.547 114.287 81.0809 114.521 81.8585C114.598 82.1146 114.636 82.2533 114.645 82.3264C114.756 83.1491 114.179 83.9059 113.356 84.0167C113.28 84.027 113.204 84.0314 113.127 84.0299L112.939 84.0263C112.037 84.0092 111.315 83.2731 111.315 82.371L111.315 82.3637C111.315 82.3287 111.314 82.2039 111.313 81.9908C111.309 81.1951 111.951 80.5469 112.746 80.5428C112.754 80.5428 112.754 80.5428 112.761 80.5428ZM113.901 82.4267C113.899 82.4119 113.862 82.2773 113.801 82.0747C113.662 81.6133 113.239 81.2966 112.757 81.2941C112.754 81.2941 112.754 81.2941 112.75 81.2941C112.369 81.296 112.062 81.6062 112.064 81.9869C112.065 82.2016 112.066 82.3263 112.066 82.3628L112.066 82.3709C112.066 82.8637 112.46 83.2658 112.953 83.2752L113.141 83.2788C113.18 83.2795 113.218 83.2773 113.256 83.2722C113.668 83.2167 113.956 82.8382 113.901 82.4267ZM213.869 13.8422C214.037 15.1223 213.135 16.296 211.855 16.4638C211.744 16.4784 211.631 16.485 211.519 16.4834L211.157 16.4785C209.743 16.4591 208.608 15.3041 208.613 13.8895C208.614 13.8297 208.614 13.6209 208.614 13.2645C208.614 12.02 209.623 11.0112 210.867 11.0112C212.161 11.0112 213.301 11.861 213.671 13.101C213.793 13.5084 213.855 13.7384 213.869 13.8422ZM210.867 11.7624C210.038 11.7624 209.365 12.4349 209.365 13.2645C209.365 13.6224 209.365 13.8312 209.365 13.8925C209.361 14.895 210.165 15.7135 211.167 15.7273L211.529 15.7322C211.606 15.7333 211.682 15.7289 211.757 15.7189C212.626 15.6051 213.238 14.8085 213.124 13.9398C213.118 13.8948 213.057 13.6698 212.952 13.3158C212.677 12.3941 211.829 11.7624 210.867 11.7624Z" fill="#67577F"/>
    <path d="M235.91 80.7216L239.081 87.3631L264.196 86.6102L264.219 87.3611L238.614 88.1287L235.068 80.7016L220.156 80.3475L220.174 79.5965L235.503 79.9604L238.107 69.7254L262.743 65.1595L262.88 65.8982L238.716 70.3765L236.084 80.7257L235.91 80.7216Z" fill="#67577F"/>
    <path fill-rule="evenodd" clip-rule="evenodd" d="M181.658 112.906L145.347 105.894L161.625 149.718H175.648L181.658 112.906Z" fill="#67577F"/>
    <path fill-rule="evenodd" clip-rule="evenodd" d="M226.984 157.481L284.986 143.7C292.99 141.799 301.425 143.507 308.059 148.374L348.35 177.932C354.925 182.755 359.075 190.201 359.72 198.33L365.216 267.665H352.194L344.526 203.25C343.824 197.362 340.78 192.004 336.079 188.388L299.459 160.218C296.36 157.835 292.406 156.853 288.552 157.51L228.487 167.748L226.984 157.481Z" fill="white"/>
    <path d="M226.562 157.195L284.898 143.335C293.01 141.408 301.558 143.139 308.281 148.071L348.572 177.629C355.235 182.517 359.441 190.062 360.094 198.3L365.622 268.041H351.86L344.152 203.295C343.463 197.506 340.47 192.24 335.85 188.686L299.229 160.516C296.213 158.196 292.366 157.241 288.615 157.88L228.17 168.183L226.562 157.195ZM228.802 167.313L288.488 157.139C292.446 156.465 296.505 157.473 299.687 159.921L336.308 188.091C341.089 191.768 344.185 197.217 344.898 203.206L352.527 267.29H364.809L359.345 198.359C358.709 190.34 354.615 182.993 348.128 178.235L307.836 148.676C301.292 143.875 292.969 142.19 285.072 144.066L227.405 157.767L228.802 167.313Z" fill="#67577F"/>
    <path fill-rule="evenodd" clip-rule="evenodd" d="M228.208 226.21L231.992 211.071L160.623 215.829L159.807 217.944L153.864 232.471C149.573 232.288 146.641 231.558 145.081 230.31C143.692 229.199 142.617 225.026 141.935 217.885L152.86 209.666L147.351 150.719L135.581 171.755L140.966 215.302C140.965 215.32 140.965 215.338 140.966 215.356C141.643 224.327 142.822 229.465 144.612 230.897C146.336 232.276 149.432 233.042 153.913 233.225L153.862 233.358L227.986 227.097L228.017 226.971C232.529 226.812 236.271 223.423 236.875 218.947L238.397 207.655L237.653 207.555L236.13 218.847C235.586 222.888 232.257 225.965 228.208 226.21Z" fill="#67577F"/>
    <path d="M241.007 88.3035L238.408 101.298C235.97 113.49 224.12 121.404 211.924 118.986L145.598 105.833L152.965 74.6639C158.144 52.753 179.141 38.3778 201.441 41.4751C204.398 41.8858 207.568 42.433 210.95 43.1166C231.715 47.3141 245.162 67.5299 241.007 88.3035Z" fill="white"/>
    <mask id="mask0" mask-type="alpha" maskUnits="userSpaceOnUse" x="145" y="41" width="97" height="79">
        <path d="M241.007 88.3039L238.408 101.299C235.97 113.49 224.12 121.404 211.924 118.986L145.598 105.833L152.965 74.6643C158.144 52.7534 179.141 38.3781 201.441 41.4754C204.398 41.8862 207.568 42.4334 210.95 43.117C231.715 47.3144 245.162 67.5303 241.007 88.3039Z" fill="white"/>
    </mask>
    <g mask="url(#mask0)">
        <path fill-rule="evenodd" clip-rule="evenodd" d="M241.508 111.654L188.979 102.899C183.847 102.044 180.225 97.4029 180.641 92.2172L181.669 79.4147C182.156 73.3489 187.468 68.8264 193.534 69.3134C193.958 69.3475 194.38 69.4061 194.798 69.489L249.521 80.3518L241.508 111.654Z" fill="#F6F0FF"/>
        <path d="M241.786 111.831L188.917 103.019C183.593 102.132 179.834 97.3168 180.266 91.9367L181.294 79.1342C181.798 72.8616 187.291 68.1849 193.564 68.6886C194.002 68.7238 194.439 68.7844 194.87 68.8701L249.983 79.8101L241.786 111.831ZM249.059 80.3925L194.724 69.607C194.321 69.5269 193.913 69.4703 193.504 69.4374C187.645 68.967 182.514 73.3353 182.043 79.1943L181.015 91.9968C180.614 96.988 184.101 101.455 189.04 102.278L241.229 110.977L249.059 80.3925Z" fill="#67577F"/>
    </g>
    <path d="M210.349 30.1951L210.457 15.9939C210.457 15.7864 210.625 15.6182 210.832 15.6182C211.04 15.6182 211.208 15.7864 211.208 15.9939L211.1 30.5708C211.1 30.7782 210.932 30.9464 210.724 30.9464H200.576L206.299 41.9163C206.395 42.1002 206.324 42.3271 206.14 42.4231C205.956 42.519 205.729 42.4477 205.633 42.2638L199.623 30.7445C199.493 30.4944 199.674 30.1951 199.956 30.1951H210.349Z" fill="#67577F"/>
    <path d="M241.376 88.3772L238.777 101.372C236.298 113.767 224.25 121.813 211.852 119.354L145.525 106.201C145.316 106.16 145.183 105.954 145.232 105.747L152.6 74.5776C157.823 52.4781 179.001 37.9791 201.493 41.1031C204.458 41.5149 207.635 42.0634 211.025 42.7485C231.993 46.987 245.571 67.4005 241.376 88.3772ZM211.998 118.617C223.99 120.995 235.643 113.213 238.04 101.225L240.639 88.2299C244.753 67.6594 231.438 47.6412 210.876 43.4848C207.501 42.8027 204.339 42.2568 201.39 41.8472C179.281 38.7765 158.465 53.0281 153.331 74.7504L146.053 105.54L211.998 118.617Z" fill="#67577F"/>
    <path fill-rule="evenodd" clip-rule="evenodd" d="M230.629 149.62L238.843 202.935C239.433 206.763 236.808 210.343 232.981 210.933C232.785 210.963 232.588 210.985 232.39 210.999L160.532 215.895C156.921 216.141 153.715 213.597 153.135 210.024L144.568 157.272C143.947 153.449 146.543 149.847 150.365 149.226C150.562 149.194 150.761 149.171 150.96 149.156L223.17 143.696C226.822 143.42 230.071 146.001 230.629 149.62Z" fill="white"/>
    <path d="M231 149.563L239.215 202.878C239.836 206.911 237.071 210.683 233.038 211.304C232.832 211.336 232.624 211.359 232.416 211.373L160.558 216.27C156.753 216.529 153.376 213.849 152.764 210.084L144.197 157.332C143.543 153.305 146.278 149.51 150.305 148.856C150.513 148.822 150.722 148.797 150.932 148.781L223.142 143.322C226.99 143.031 230.413 145.75 231 149.563ZM230.258 149.677C229.73 146.252 226.655 143.809 223.199 144.071L150.989 149.53C150.8 149.545 150.612 149.567 150.426 149.597C146.808 150.185 144.351 153.594 144.939 157.211L153.506 209.963C154.055 213.345 157.089 215.753 160.507 215.52L232.365 210.624C232.552 210.611 232.738 210.59 232.924 210.562C236.546 210.004 239.03 206.615 238.472 202.993L230.258 149.677Z" fill="#67577F"/>
    <path fill-rule="evenodd" clip-rule="evenodd" d="M368.286 267.031C368.512 271.387 365.164 275.101 360.808 275.327C360.679 275.334 360.551 275.337 360.422 275.337L356.131 275.35C351.718 275.364 348.13 271.797 348.117 267.384C348.117 267.372 348.117 267.36 348.117 267.348C348.124 262.876 351.682 259.219 356.152 259.089L359.567 258.99C364.175 258.856 368.047 262.427 368.286 267.031Z" fill="white"/>
    <path fill-rule="evenodd" clip-rule="evenodd" d="M273.244 361.468L236.5 343.688L282.965 310.988L319.139 325.64" fill="white"/>
    <path d="M368.535 267.269C368.772 271.832 365.265 275.723 360.702 275.96C360.567 275.967 360.433 275.97 360.298 275.971L356.007 275.984C351.386 275.997 347.63 272.263 347.616 267.643L347.616 267.605C347.623 262.93 351.342 259.107 356.015 258.971L359.43 258.872C364.243 258.732 368.286 262.461 368.535 267.269ZM367.785 267.308C367.557 262.907 363.856 259.495 359.452 259.623L356.037 259.722C351.77 259.846 348.373 263.338 348.367 267.606L348.367 267.641C348.38 271.846 351.799 275.245 356.004 275.232L360.296 275.219C360.418 275.219 360.54 275.216 360.663 275.209C364.811 274.994 368 271.456 367.785 267.308Z" fill="#67577F"/>
    <path fill-rule="evenodd" clip-rule="evenodd" d="M370.724 361.468L410.04 378.601C432.991 353.898 444.426 341.21 444.347 340.538C444.268 339.866 430.745 334.857 403.779 325.512L370.724 361.468Z" fill="white"/>
    <path fill-rule="evenodd" clip-rule="evenodd" d="M366.719 410.76L278.07 410.154L273.061 361.573H370.725L391.009 370.337L388.505 390.621L366.719 410.76Z" fill="white"/>
    <path fill-rule="evenodd" clip-rule="evenodd" d="M334.664 361.573V390.621L319.138 381.105L304.614 390.621V361.573H334.664Z" fill="#F6F0FF"/>
    <path d="M367.09 410.718L388.858 390.807L391.585 370.864L410.138 378.949L445 340.269L403.674 325.325L370.463 361.092H273.328L237.237 343.628L283.013 311.413L318.888 326.264L319.17 325.567L282.915 310.563L235.761 343.748L272.698 361.622L277.729 410.422L367.064 411.033L367.09 410.718ZM367.179 409.618L371.064 361.921L390.87 370.552L388.151 390.436L367.179 409.618ZM370.316 361.843L366.372 410.277L278.408 409.676L273.477 361.843H370.316ZM403.886 326.201L443.694 340.596L409.942 378.044L371.36 361.23L403.886 326.201Z" fill="#67577F"/>
    <path d="M304.82 390.936C304.57 391.099 304.238 390.92 304.238 390.621V361.573C304.238 361.365 304.407 361.197 304.614 361.197H334.664C334.872 361.197 335.04 361.365 335.04 361.573V390.621C335.04 390.915 334.718 391.095 334.468 390.942L319.145 381.55L304.82 390.936ZM304.99 361.948V389.926L318.933 380.791C319.054 380.712 319.211 380.709 319.335 380.785L334.289 389.951V361.948H304.99Z" fill="#67577F"/>
    <path d="M233.622 88.8597C233.859 87.6378 233.061 86.4548 231.839 86.2173C230.617 85.9798 229.434 86.7777 229.197 87.9996L227.859 94.8825C227.622 96.1044 228.419 97.2874 229.641 97.5249C230.863 97.7624 232.046 96.9645 232.284 95.7426L233.622 88.8597Z" fill="white"/>
    <path d="M198.344 84.4392C198.512 83.0664 197.536 81.817 196.163 81.6484C194.791 81.4799 193.541 82.4561 193.373 83.8288L192.518 90.7883C192.349 92.161 193.326 93.4104 194.698 93.579C196.071 93.7475 197.321 92.7714 197.489 91.3986L198.344 84.4392Z" fill="white"/>
    <path d="M195.915 81.6181L196.412 81.6791C197.648 81.8308 198.526 82.9553 198.374 84.1908L197.459 91.6473C197.307 92.8828 196.183 93.7614 194.947 93.6097L194.45 93.5486C193.215 93.3969 192.336 92.2724 192.488 91.037L193.403 83.5804C193.555 82.3449 194.68 81.4664 195.915 81.6181ZM195.823 82.3637C195 82.2626 194.25 82.8483 194.149 83.6719L193.233 91.1285C193.132 91.9522 193.718 92.7018 194.542 92.803L195.039 92.864C195.862 92.9651 196.612 92.3794 196.713 91.5558L197.629 84.0992C197.73 83.2756 197.144 82.5259 196.321 82.4248L195.823 82.3637ZM196.041 82.6428C196.865 82.7439 197.451 83.4936 197.35 84.3172L196.495 91.2767C196.394 92.1004 195.644 92.6861 194.821 92.5849C193.997 92.4838 193.411 91.7341 193.513 90.9105L194.367 83.951C194.468 83.1274 195.218 82.5417 196.041 82.6428ZM192.62 81.7073C192.414 81.7292 192.229 81.5796 192.207 81.3733C192.185 81.167 192.335 80.9821 192.541 80.9602L199.479 80.2265C199.685 80.2047 199.87 80.3542 199.892 80.5606C199.913 80.7669 199.764 80.9518 199.558 80.9736L192.62 81.7073ZM234.863 86.9628L228.352 84.4586C228.158 84.3841 228.061 84.1668 228.136 83.9732C228.21 83.7795 228.428 83.6829 228.621 83.7574L235.132 86.2616C235.326 86.3361 235.422 86.5534 235.348 86.747C235.273 86.9407 235.056 87.0373 234.863 86.9628ZM215.055 96.8571C214.078 95.6503 212.819 94.9701 211.257 94.8059C208.663 94.5333 208.084 94.6042 206.085 95.4724C205.895 95.5551 205.674 95.4678 205.591 95.2775C205.508 95.0873 205.596 94.866 205.786 94.7834C207.912 93.86 208.62 93.7733 211.336 94.0588C213.095 94.2437 214.536 95.0223 215.639 96.3843C215.769 96.5455 215.745 96.782 215.583 96.9126C215.422 97.0432 215.186 97.0183 215.055 96.8571ZM231.54 85.9246L232.034 86.0029C233.264 86.1976 234.103 87.3521 233.908 88.5815L232.733 96.0016C232.538 97.231 231.383 98.0698 230.154 97.8751L229.659 97.7967C228.43 97.602 227.591 96.4475 227.786 95.2181L228.961 87.798C229.156 86.5686 230.31 85.7299 231.54 85.9246ZM231.422 86.6666C230.603 86.5368 229.833 87.096 229.703 87.9156L228.528 95.3357C228.398 96.1553 228.957 96.9249 229.777 97.0547L230.272 97.1331C231.091 97.2629 231.861 96.7037 231.991 95.8841L233.166 88.464C233.296 87.6444 232.737 86.8748 231.917 86.7449L231.422 86.6666ZM231.63 86.9531C232.45 87.0829 233.009 87.8526 232.879 88.6722L231.783 95.5976C231.653 96.4172 230.883 96.9764 230.063 96.8466C229.244 96.7168 228.685 95.9471 228.814 95.1275L229.911 88.2021C230.041 87.3825 230.811 86.8233 231.63 86.9531Z" fill="#67577F"/>
    <path fill-rule="evenodd" clip-rule="evenodd" d="M273.561 361.468H370.724L403.779 325.658H319.138L273.561 361.468ZM378.196 384.359C379.924 384.855 382.128 382.454 383.12 378.998C384.111 375.541 383.513 372.337 381.785 371.842C380.057 371.346 377.852 373.746 376.861 377.203C375.87 380.66 376.467 383.863 378.196 384.359Z" fill="#67577F"/>
    <path fill-rule="evenodd" clip-rule="evenodd" d="M181.14 228.076L167.515 306.48L172.141 394.378L186.048 406.913C186.87 407.654 186.935 408.921 186.195 409.742C185.815 410.164 185.274 410.404 184.707 410.404H140.839C147.082 363.285 152.134 328.143 155.995 304.978C159.726 282.596 164.84 256.436 171.335 226.498C171.735 224.656 173.365 223.341 175.251 223.341C175.694 223.341 176.121 223.341 176.53 223.341C176.87 223.341 177.238 223.363 177.636 223.407C179.835 223.652 181.419 225.633 181.174 227.833C181.165 227.914 181.154 227.995 181.14 228.076Z" fill="white"/>
    <path d="M172.628 394.203L186.419 406.634C187.395 407.514 187.473 409.018 186.593 409.994C186.142 410.494 185.5 410.78 184.826 410.78H140.958C140.731 410.78 140.556 410.58 140.586 410.355C146.829 363.232 151.882 328.086 155.744 304.916C159.476 282.528 164.591 256.362 171.088 226.419C171.525 224.403 173.308 222.965 175.37 222.965H176.649C177.004 222.965 177.386 222.988 177.797 223.034C180.202 223.302 181.935 225.469 181.667 227.874C181.657 227.963 181.645 228.052 181.629 228.14L168.012 306.503L172.628 394.203ZM172.636 394.358L172.512 394.099L172.628 394.203L172.636 394.358ZM141.387 410.029H184.826C185.287 410.029 185.726 409.833 186.035 409.491C186.637 408.823 186.584 407.794 185.916 407.192L172.009 394.657C171.935 394.59 171.891 394.497 171.886 394.397L167.259 306.5L167.264 306.416L180.889 228.011C180.902 227.938 180.912 227.865 180.921 227.791C181.142 225.798 179.707 224.003 177.713 223.781C177.33 223.738 176.975 223.717 176.649 223.717H175.37C173.662 223.717 172.184 224.908 171.822 226.578C165.327 256.51 160.215 282.665 156.485 305.04C152.636 328.13 147.603 363.127 141.387 410.029Z" fill="#67577F"/>
    <path fill-rule="evenodd" clip-rule="evenodd" d="M170.839 305.676C171.3 301.808 168.542 298.297 164.675 297.829L162.116 297.518C158.238 297.048 154.693 299.756 154.126 303.621C154.119 303.67 154.112 303.72 154.106 303.769C153.636 307.535 156.309 310.968 160.075 311.438L163.012 311.803C163.025 311.805 163.037 311.807 163.05 311.808C166.895 312.266 170.382 309.52 170.839 305.676ZM166.335 304.995C166.127 306.686 164.589 307.89 162.897 307.686L161.527 307.52C159.892 307.323 158.726 305.837 158.923 304.202C158.927 304.172 158.931 304.143 158.935 304.114C159.191 302.42 160.744 301.234 162.445 301.434L163.648 301.575C165.33 301.772 166.534 303.296 166.337 304.978C166.336 304.984 166.335 304.989 166.335 304.995Z" fill="#F6F0FF"/>
    <path d="M171.396 305.898C171.881 301.824 168.977 298.127 164.904 297.633L162.345 297.323C158.265 296.828 154.534 299.678 153.938 303.744C153.93 303.796 153.923 303.848 153.917 303.9C153.422 307.872 156.241 311.493 160.213 311.988L163.149 312.354L163.19 312.359C167.24 312.841 170.914 309.948 171.396 305.898ZM170.65 305.809C170.217 309.447 166.917 312.046 163.279 311.613L163.242 311.608L160.306 311.242C156.745 310.799 154.219 307.553 154.662 303.993C154.668 303.946 154.675 303.9 154.681 303.853C155.219 300.19 158.579 297.623 162.255 298.069L164.814 298.379C168.475 298.823 171.086 302.147 170.65 305.809ZM166.894 305.199C167.115 303.311 165.764 301.601 163.876 301.38L162.673 301.238C160.77 301.015 159.034 302.341 158.748 304.236C158.743 304.268 158.738 304.301 158.734 304.334C158.512 306.176 159.825 307.849 161.666 308.071L163.036 308.236C164.933 308.465 166.658 307.115 166.891 305.218L166.894 305.199ZM163.126 307.49L161.756 307.325C160.327 307.153 159.308 305.854 159.48 304.424C159.483 304.399 159.487 304.373 159.49 304.348C159.716 302.854 161.085 301.808 162.586 301.985L163.788 302.126C165.264 302.299 166.321 303.636 166.147 305.112L166.146 305.127C165.963 306.612 164.612 307.67 163.126 307.49Z" fill="#67577F"/>
    <path fill-rule="evenodd" clip-rule="evenodd" d="M201.265 226.412L225.982 305.641L189.465 372.842L191.739 396.2C191.846 397.301 191.04 398.28 189.939 398.388C189.398 398.44 188.858 398.271 188.445 397.918L154.657 369.085L162.67 361.072L214.182 306.112L191.734 228.154C191.157 226.153 192.312 224.065 194.313 223.488C194.652 223.391 195.003 223.341 195.356 223.341C195.709 223.341 196.073 223.32 196.446 223.277C198.597 223.029 200.621 224.345 201.265 226.412Z" fill="white"/>
    <path d="M189.62 373.021L189.664 372.805L189.675 372.92L189.62 373.021ZM191.937 396.163C192.065 397.471 191.108 398.634 189.8 398.761C189.157 398.824 188.517 398.622 188.025 398.203L154.238 369.371C154.071 369.229 154.061 368.975 154.216 368.82L162.229 360.806L213.586 306.011L191.197 228.258C190.564 226.058 191.834 223.761 194.034 223.127C194.407 223.02 194.793 222.965 195.181 222.965C195.519 222.965 195.868 222.945 196.227 222.903C198.558 222.635 200.75 224.061 201.449 226.3L226.166 305.529C226.196 305.626 226.186 305.731 226.137 305.82L189.675 372.92L191.937 396.163ZM188.513 397.632C188.849 397.919 189.288 398.056 189.727 398.014C190.622 397.926 191.277 397.131 191.19 396.236L188.916 372.878C188.909 372.803 188.924 372.728 188.96 372.662L225.401 305.601L200.731 226.524C200.14 224.629 198.285 223.422 196.313 223.65C195.926 223.694 195.549 223.717 195.181 223.717C194.863 223.717 194.547 223.761 194.241 223.849C192.44 224.368 191.4 226.249 191.919 228.05L214.367 306.008C214.404 306.135 214.371 306.272 214.28 306.369L162.769 361.329L155.035 369.063L188.513 397.632Z" fill="#67577F"/>
    <path fill-rule="evenodd" clip-rule="evenodd" d="M227.857 307.988C228.581 304.217 226.174 300.554 222.425 299.723L219.756 299.131C216.133 298.328 212.529 300.561 211.637 304.164C210.75 307.743 212.93 311.364 216.507 312.256L219.863 313.092C219.978 313.121 220.094 313.147 220.211 313.169C223.753 313.85 227.176 311.53 227.857 307.988ZM223.359 307.224C223.039 308.781 221.517 309.784 219.959 309.464C219.933 309.459 219.908 309.453 219.882 309.447L218.215 309.057C216.715 308.705 215.784 307.204 216.135 305.703C216.141 305.678 216.147 305.654 216.154 305.63C216.563 304.075 218.117 303.113 219.691 303.44L221.057 303.724C222.658 304.056 223.688 305.622 223.359 307.224Z" fill="#F6F0FF"/>
    <path d="M228.174 308.214C228.937 304.244 226.402 300.386 222.455 299.511L219.786 298.92C215.963 298.073 212.162 300.429 211.221 304.229C210.285 308.009 212.586 311.833 216.365 312.775L219.721 313.612C219.843 313.643 219.965 313.67 220.088 313.693C223.834 314.413 227.454 311.96 228.174 308.214ZM227.436 308.073C226.795 311.411 223.568 313.597 220.23 312.956C220.12 312.934 220.011 312.91 219.903 312.883L216.546 312.047C213.17 311.205 211.113 307.788 211.95 304.41C212.794 301.005 216.199 298.894 219.623 299.653L222.292 300.245C225.843 301.032 228.123 304.501 227.436 308.073ZM223.675 307.455C224.046 305.65 222.886 303.886 221.082 303.511L219.716 303.227C217.946 302.86 216.199 303.942 215.739 305.689C215.732 305.717 215.725 305.745 215.718 305.773C215.319 307.475 216.376 309.179 218.078 309.578L219.745 309.968C219.774 309.975 219.803 309.982 219.832 309.988C221.593 310.349 223.313 309.215 223.675 307.455ZM222.939 307.304C222.661 308.658 221.338 309.53 219.983 309.252C219.961 309.247 219.939 309.242 219.916 309.237L218.25 308.846C216.951 308.542 216.145 307.243 216.45 305.944C216.455 305.923 216.46 305.902 216.465 305.88C216.824 304.519 218.185 303.677 219.563 303.963L220.929 304.247C222.328 304.537 223.227 305.905 222.939 307.304Z" fill="#67577F"/>
    <path fill-rule="evenodd" clip-rule="evenodd" d="M276.579 259.011C275.88 256.647 273.703 255.031 271.238 255.045C268.963 255.058 267.121 256.899 267.108 259.175C267.103 259.917 267.101 260.352 267.099 260.48C267.099 260.483 267.099 260.486 267.099 260.489C267.079 263.088 269.169 265.211 271.768 265.231L272.681 265.238C272.872 265.24 273.063 265.228 273.252 265.204C275.596 264.907 277.254 262.766 276.957 260.423C276.937 260.266 276.811 259.795 276.579 259.011ZM299.116 204.419C298.417 202.056 296.24 200.439 293.776 200.454C291.501 200.467 289.659 202.308 289.646 204.584C289.641 205.325 289.638 205.76 289.637 205.888C289.637 205.891 289.637 205.895 289.637 205.898C289.617 208.496 291.707 210.619 294.306 210.64L295.218 210.647C295.41 210.648 295.601 210.637 295.79 210.613C298.133 210.315 299.792 208.175 299.495 205.831C299.475 205.675 299.349 205.204 299.116 204.419ZM66.7272 193.401C66.0281 191.037 63.8511 189.421 61.3867 189.435C59.1112 189.448 57.2697 191.29 57.2563 193.565C57.2519 194.307 57.2491 194.742 57.2478 194.87C57.2478 194.873 57.2477 194.876 57.2477 194.879C57.2275 197.478 59.3177 199.601 61.9164 199.621L62.8292 199.628C63.0203 199.63 63.2113 199.618 63.4009 199.594C65.7442 199.297 67.4027 197.156 67.1053 194.813C67.0854 194.656 66.9594 194.186 66.7272 193.401ZM115.809 276.039C115.11 273.676 112.933 272.059 110.469 272.074C108.193 272.087 106.352 273.928 106.339 276.203C106.334 276.945 106.331 277.38 106.33 277.508C106.33 277.511 106.33 277.515 106.33 277.518C106.31 280.116 108.4 282.239 110.999 282.26L111.911 282.267C112.103 282.268 112.294 282.257 112.483 282.233C114.826 281.935 116.485 279.795 116.188 277.451C116.168 277.295 116.042 276.824 115.809 276.039ZM51.2012 306.089C50.5021 303.726 48.3251 302.11 45.8607 302.124C43.5852 302.137 41.7437 303.978 41.7303 306.254C41.7259 306.996 41.7231 307.431 41.7218 307.559C41.7218 307.562 41.7217 307.565 41.7217 307.568C41.7015 310.167 43.7917 312.29 46.3904 312.31L47.3032 312.317C47.4943 312.318 47.6853 312.307 47.8749 312.283C50.2182 311.986 51.8767 309.845 51.5793 307.502C51.5594 307.345 51.4334 306.874 51.2012 306.089ZM105.292 111.764C104.593 109.401 102.416 107.784 99.9513 107.798C97.6758 107.812 95.8344 109.653 95.8209 111.928C95.8165 112.67 95.8137 113.105 95.8124 113.233C95.8124 113.236 95.8123 113.239 95.8123 113.243C95.7921 115.841 97.8824 117.964 100.481 117.984L101.394 117.991C101.585 117.993 101.776 117.982 101.966 117.958C104.309 117.66 105.967 115.519 105.67 113.176C105.65 113.02 105.524 112.549 105.292 111.764ZM401.288 239.979C400.589 237.616 398.412 235.999 395.947 236.013C393.672 236.026 391.83 237.868 391.817 240.143C391.812 240.885 391.809 241.32 391.808 241.448C391.808 241.451 391.808 241.454 391.808 241.457C391.788 244.056 393.878 246.179 396.477 246.199L397.39 246.206C397.581 246.208 397.772 246.196 397.961 246.172C400.305 245.875 401.963 243.734 401.666 241.391C401.646 241.234 401.52 240.764 401.288 239.979ZM341.187 130.796C340.488 128.433 338.311 126.816 335.846 126.83C333.571 126.843 331.729 128.685 331.716 130.96C331.712 131.702 331.709 132.137 331.708 132.265C331.708 132.268 331.707 132.271 331.707 132.274C331.687 134.873 333.777 136.996 336.376 137.016L337.289 137.023C337.48 137.025 337.671 137.013 337.861 136.989C340.204 136.692 341.862 134.551 341.565 132.208C341.545 132.051 341.419 131.581 341.187 130.796Z" fill="#F6F0FF"/>
    <path fill-rule="evenodd" clip-rule="evenodd" d="M367.872 303.651C372.149 300.866 375.081 296.145 375.368 290.658C375.846 281.543 368.844 273.766 359.728 273.288C350.613 272.811 342.836 279.813 342.358 288.928C342.065 294.517 344.584 299.602 348.678 302.811L354.851 294.922C353.238 293.657 352.246 291.654 352.361 289.453C352.55 285.862 355.613 283.103 359.204 283.291C362.795 283.48 365.554 286.543 365.365 290.134C365.252 292.296 364.097 294.155 362.412 295.253L367.872 303.651Z" fill="#F6F0FF"/>
    <path d="M367.529 304.329L367.844 304.123C372.344 301.193 375.223 296.301 375.51 290.835C375.998 281.513 368.837 273.559 359.514 273.071C350.192 272.582 342.238 279.743 341.75 289.066C341.458 294.634 343.906 299.888 348.212 303.264L348.508 303.496L355.144 295.015L354.849 294.783C353.285 293.558 352.397 291.651 352.503 289.63C352.68 286.246 355.567 283.646 358.951 283.824C362.335 284.001 364.934 286.888 364.757 290.272C364.653 292.256 363.608 294.031 361.974 295.095L361.659 295.3L367.529 304.329ZM367.746 303.285L362.693 295.511C364.348 294.301 365.397 292.41 365.507 290.311C365.706 286.513 362.788 283.273 358.99 283.074C355.192 282.875 351.952 285.792 351.753 289.59C351.64 291.731 352.522 293.758 354.096 295.135L348.382 302.437C344.449 299.205 342.228 294.299 342.5 289.105C342.967 280.197 350.567 273.354 359.475 273.821C368.383 274.288 375.227 281.888 374.76 290.796C374.493 295.891 371.868 300.464 367.746 303.285Z" fill="#67577F"/>
    <path fill-rule="evenodd" clip-rule="evenodd" d="M134.097 177.946L39.3695 140.74C37.3098 139.931 34.9843 140.945 34.1753 143.005C34.0779 143.253 34.0055 143.51 33.9591 143.772L15.0724 250.643C14.8317 252.005 15.7407 253.304 17.1026 253.545C17.573 253.628 18.0574 253.575 18.4985 253.392L136.732 204.309V216.329L17.3519 268.411C11.2672 271.065 4.18268 268.285 1.52812 262.2C0.61171 260.099 0.314926 257.781 0.672729 255.517L19.6355 135.544C20.8879 127.621 28.3261 122.213 36.2493 123.465C37.424 123.651 38.5714 123.98 39.6658 124.446L138.465 166.461C140.637 167.385 141.979 169.589 141.803 171.942C141.751 172.636 141.647 173.324 141.49 174.008C141.485 174.03 141.48 174.053 141.475 174.075C140.781 177.037 137.817 178.876 134.854 178.182C134.596 178.122 134.343 178.043 134.097 177.946Z" fill="white"/>
    <path d="M133.809 178.296L39.0821 141.09C37.2155 140.356 35.108 141.275 34.3749 143.142C34.2866 143.367 34.221 143.6 34.179 143.837L15.2923 250.709C15.0877 251.866 15.8603 252.97 17.0179 253.175C17.4177 253.246 17.8295 253.201 18.2045 253.045L136.958 203.747V216.575L17.3521 268.755C11.0772 271.493 3.77126 268.625 1.03375 262.35C0.0886993 260.184 -0.217377 257.793 0.151611 255.458L19.1144 135.486C20.3992 127.357 28.0298 121.81 36.1579 123.094C37.3629 123.285 38.54 123.623 39.6627 124.1L138.462 166.116C140.782 167.102 142.215 169.456 142.027 171.97C141.974 172.682 141.867 173.39 141.706 174.092C141.698 174.126 141.698 174.126 141.69 174.16C140.949 177.325 137.783 179.289 134.619 178.548C134.343 178.483 134.073 178.399 133.809 178.296ZM136.206 204.872L18.4925 253.739C17.9851 253.949 17.4281 254.01 16.8872 253.915C15.321 253.638 14.2757 252.144 14.5525 250.578L33.4392 143.707C33.4899 143.42 33.5691 143.139 33.6757 142.867C34.5605 140.614 37.104 139.506 39.3568 140.39L134.084 177.596C134.314 177.687 134.55 177.76 134.79 177.816C137.55 178.463 140.312 176.749 140.959 173.989C140.966 173.957 140.966 173.957 140.974 173.925C141.126 173.259 141.228 172.589 141.278 171.914C141.442 169.721 140.191 167.668 138.168 166.807L39.3687 124.791C38.3026 124.338 37.1849 124.017 36.0406 123.837C28.3223 122.617 21.0764 127.885 19.8565 135.603L0.893661 255.575C0.547043 257.768 0.834564 260.015 1.72235 262.05C4.29395 267.944 11.1571 270.638 17.0517 268.066L136.206 216.083V204.872Z" fill="#67577F"/>
    <path fill-rule="evenodd" clip-rule="evenodd" d="M133.069 250.298C137.863 248.547 141.781 244.606 143.296 239.325C145.812 230.55 140.739 221.398 131.964 218.882C123.19 216.366 114.037 221.439 111.521 230.214C109.979 235.593 111.289 241.115 114.555 245.162L122.345 238.863C121.058 237.269 120.542 235.094 121.15 232.975C122.141 229.518 125.747 227.519 129.203 228.51C132.66 229.502 134.658 233.107 133.667 236.564C133.071 238.644 131.527 240.197 129.638 240.887L133.069 250.298Z" fill="#F6F0FF"/>
    <path d="M132.862 250.816L133.215 250.687C138.259 248.844 142.165 244.725 143.674 239.464C146.247 230.491 141.058 221.13 132.085 218.557C123.111 215.983 113.75 221.172 111.177 230.146C109.64 235.506 110.843 241.176 114.28 245.434L114.516 245.726L122.89 238.955L122.654 238.663C121.406 237.117 120.97 235.06 121.528 233.114C122.462 229.857 125.859 227.974 129.116 228.908C132.374 229.842 134.257 233.239 133.323 236.496C132.775 238.406 131.358 239.901 129.526 240.57L129.174 240.699L132.862 250.816ZM130.133 241.137C132.018 240.331 133.466 238.724 134.045 236.703C135.093 233.047 132.979 229.234 129.324 228.185C125.668 227.137 121.854 229.251 120.806 232.907C120.215 234.967 120.618 237.141 121.842 238.837L114.632 244.667C111.526 240.633 110.465 235.352 111.899 230.353C114.358 221.778 123.302 216.82 131.877 219.279C140.452 221.738 145.41 230.682 142.952 239.257C141.545 244.162 137.959 248.027 133.309 249.849L130.133 241.137Z" fill="#67577F"/>
    <path fill-rule="evenodd" clip-rule="evenodd" d="M130.403 221.538C126.084 220.929 123.077 216.933 123.686 212.614C123.704 212.487 123.725 212.36 123.75 212.234L124.556 208.019C125.385 203.685 129.57 200.843 133.904 201.672C133.916 201.675 133.928 201.677 133.94 201.679C138.328 202.539 141.24 206.73 140.514 211.142L139.96 214.513C139.212 219.063 134.968 222.182 130.403 221.538Z" fill="white"/>
    <path d="M130.44 221.796C125.915 221.158 122.765 216.973 123.403 212.448C123.422 212.315 123.444 212.182 123.469 212.05L124.276 207.835C125.143 203.297 129.526 200.322 134.064 201.19L134.101 201.197C138.688 202.096 141.732 206.477 140.974 211.09L140.42 214.461C139.639 219.211 135.207 222.469 130.44 221.796ZM130.545 221.052C134.908 221.668 138.964 218.687 139.678 214.339L140.232 210.968C140.925 206.755 138.146 202.755 133.956 201.934L133.923 201.928C129.792 201.138 125.803 203.845 125.013 207.976L124.207 212.191C124.184 212.311 124.164 212.432 124.147 212.553C123.567 216.667 126.431 220.472 130.545 221.052Z" fill="#67577F"/>
    <path d="M218.27 151.73L155.904 156.236C153.973 156.375 152.521 158.054 152.66 159.985C152.666 160.058 152.673 160.13 152.683 160.203L158.692 204.616C158.944 206.481 160.624 207.814 162.497 207.636L225.812 201.631C227.74 201.448 229.154 199.737 228.971 197.81C228.964 197.733 228.954 197.656 228.942 197.58L221.983 154.666C221.692 152.873 220.081 151.599 218.27 151.73ZM225.475 198.104L162.149 204.198L156.088 159.737L218.522 155.227L225.475 198.104ZM201.411 179.768C203.9 179.768 205.918 177.75 205.918 175.261C205.918 172.771 203.9 170.753 201.411 170.753C198.921 170.753 196.903 172.771 196.903 175.261C196.903 177.75 198.921 179.768 201.411 179.768ZM208.313 185.146L175.838 187.417L175.978 189.415L208.453 187.144L208.313 185.146ZM180.769 181.253L184.866 176.37L179.983 172.273L175.885 177.156L180.769 181.253Z" fill="#F6F0FF"/>
    <path fill-rule="evenodd" clip-rule="evenodd" d="M35.1624 123.674C31.9646 123.384 29.5439 123.634 27.9002 124.426C26.2566 125.217 24.1697 127.137 21.6397 130.185L34.6615 141.955C35.3293 141.454 35.8301 141.12 36.164 140.953C36.4979 140.786 37.0822 140.619 37.917 140.452L35.1624 123.674ZM303.34 145.955C301.172 144.834 299.176 144.085 297.352 143.708C295.527 143.331 292.689 143.08 288.837 142.957L292.093 157.481L293.846 157.731L295.583 158.301L303.34 145.955ZM359.508 196.58C358.817 193.626 358.132 191.361 357.452 189.785C356.773 188.209 355.504 185.94 353.646 182.98L342.177 195.545L342.977 197.124L343.507 198.874L359.508 196.58ZM0.354065 257.148C1.21252 261.393 2.2977 264.231 3.6095 265.662C4.92133 267.093 7.509 268.262 11.3725 269.168L17.3826 253.642C16.4684 253.37 15.878 253.104 15.6115 252.843C15.3449 252.581 15.1005 252.097 14.8784 251.388L0.354065 257.148Z" fill="#67577F"/>
    <path d="M147.343 78.9388L142.591 86.205L114.35 81.9835L114.239 82.7265L142.956 87.0192L148.032 79.2584L165.343 80.9758C165.55 80.9963 165.734 80.8456 165.754 80.6391C165.774 80.4327 165.624 80.2487 165.417 80.2282L148.046 78.5048L146.526 66.5434L119.416 57.9566C119.219 57.894 119.008 58.0035 118.945 58.2013C118.882 58.399 118.992 58.6101 119.19 58.6728L145.841 67.1145L147.343 78.9388Z" fill="#67577F"/>
    <path d="M218.253 193.164C218.47 193.145 218.625 192.945 218.59 192.73L213.832 163.431C213.801 163.238 213.628 163.102 213.433 163.116L163.6 166.873C163.383 166.889 163.225 167.085 163.256 167.3L167.513 197.35C167.541 197.548 167.719 197.689 167.918 197.672L218.253 193.164ZM213.146 163.891L217.784 192.452L168.207 196.892L164.056 167.592L213.146 163.891ZM218.469 151.467L156.104 155.972C153.966 156.127 152.358 157.985 152.513 160.123C152.518 160.204 152.527 160.284 152.538 160.364L158.547 204.778C158.826 206.842 160.686 208.318 162.76 208.121L226.075 202.116C228.209 201.914 229.775 200.019 229.572 197.885C229.564 197.8 229.553 197.715 229.54 197.631L222.581 154.717C222.259 152.732 220.475 151.322 218.469 151.467ZM218.524 152.216C220.141 152.099 221.579 153.237 221.839 154.837L228.798 197.751C228.809 197.819 228.818 197.888 228.824 197.956C228.988 199.677 227.725 201.205 226.004 201.368L162.689 207.374C161.016 207.532 159.517 206.342 159.291 204.677L153.282 160.263C153.273 160.199 153.267 160.134 153.262 160.069C153.137 158.345 154.434 156.846 156.158 156.721L218.524 152.216ZM226.137 198.551L219.065 154.939L155.889 159.503L162.052 204.718L226.137 198.551ZM162.699 203.901L156.741 160.194L218.433 155.737L225.267 197.88L162.699 203.901ZM201.441 180.144C204.138 180.144 206.324 177.957 206.324 175.261C206.324 172.564 204.138 170.377 201.441 170.377C198.744 170.377 196.558 172.564 196.558 175.261C196.558 177.957 198.744 180.144 201.441 180.144ZM201.441 179.393C199.159 179.393 197.309 177.543 197.309 175.261C197.309 172.979 199.159 171.129 201.441 171.129C203.723 171.129 205.573 172.979 205.573 175.261C205.573 177.543 203.723 179.393 201.441 179.393ZM208.692 184.745L175.467 187.068L175.659 189.816L208.884 187.493L208.692 184.745ZM208.082 186.796L176.356 189.014L176.269 187.765L207.995 185.547L208.082 186.796ZM180.845 181.783L185.426 176.324L179.967 171.744L175.386 177.202L180.845 181.783ZM176.445 177.11L180.059 172.802L184.367 176.417L180.753 180.724L176.445 177.11Z" fill="#67577F"/>
    <path d="M166.383 394.753V394.002V394.753ZM166.383 394.002C165.882 394.002 165.882 394.753 166.383 394.753H172.142C172.643 394.753 172.643 394.002 172.142 394.002H166.383H160.623C160.122 394.002 160.122 394.753 160.623 394.753H166.383C166.883 394.753 166.883 394.002 166.383 394.002ZM184.297 369.248L184.779 368.672L184.297 369.248ZM184.297 369.248L188.93 373.129C189.313 373.451 189.796 372.875 189.412 372.554L184.779 368.672L180.147 364.791C179.763 364.469 179.28 365.045 179.664 365.366L184.297 369.248Z" fill="#67577F"/>
</svg>
