<svg width="180" height="180" viewBox="0 0 180 180" fill="none" xmlns="http://www.w3.org/2000/svg">
    <path fill-rule="evenodd" clip-rule="evenodd" d="M125.174 52.6435C125.382 52.2858 125.899 52.2858 126.107 52.6435L126.88 53.9704C126.905 54.0141 126.948 54.0451 126.997 54.0558L128.498 54.3808C128.903 54.4684 129.062 54.9597 128.787 55.2683L127.763 56.4135C127.73 56.4511 127.713 56.5012 127.719 56.5515L127.873 58.0794C127.915 58.4911 127.497 58.7948 127.118 58.6279L125.713 58.0087C125.667 57.9883 125.614 57.9883 125.568 58.0087L124.163 58.6279C123.784 58.7948 123.366 58.4911 123.408 58.0794L123.562 56.5515C123.567 56.5012 123.551 56.4511 123.517 56.4135L122.494 55.2683C122.218 54.9597 122.378 54.4684 122.783 54.3808L124.283 54.0558C124.333 54.0451 124.375 54.0141 124.401 53.9704L125.174 52.6435ZM125.796 52.8247C125.727 52.7054 125.554 52.7054 125.485 52.8247L124.712 54.1516C124.636 54.2826 124.508 54.3755 124.36 54.4076L122.859 54.7326C122.724 54.7618 122.671 54.9256 122.763 55.0285L123.786 56.1736C123.887 56.2866 123.936 56.4369 123.92 56.5878L123.766 58.1156C123.752 58.2529 123.891 58.3541 124.017 58.2985L125.423 57.6792C125.561 57.6181 125.719 57.6181 125.858 57.6792L127.263 58.2985C127.39 58.3541 127.529 58.2529 127.515 58.1156L127.36 56.5878C127.345 56.4369 127.394 56.2866 127.495 56.1736L128.518 55.0285C128.61 54.9256 128.557 54.7618 128.422 54.7326L126.921 54.4076C126.773 54.3755 126.645 54.2826 126.569 54.1516L125.796 52.8247Z" fill="#B9C0DE"/>
    <path opacity="0.796364" fill-rule="evenodd" clip-rule="evenodd" d="M43.0298 23.4049C43.1468 23.8018 42.7922 24.1775 42.3891 24.0835L39.0921 23.3143C39.0429 23.3028 38.9911 23.3125 38.9494 23.3411L36.157 25.2553C35.8156 25.4893 35.3488 25.2681 35.3136 24.8557L35.0264 21.4824C35.0221 21.4321 34.9968 21.3858 34.9568 21.355L32.2733 19.2908C31.9453 19.0384 32.0114 18.526 32.3927 18.3652L35.5122 17.0496C35.5587 17.0299 35.5949 16.9916 35.6118 16.944L36.7458 13.754C36.8844 13.3641 37.3922 13.2686 37.663 13.5816L39.8782 16.1418C39.9113 16.18 39.9589 16.2026 40.0094 16.2039L43.3937 16.2967C43.8074 16.308 44.0551 16.7614 43.8411 17.1157L42.0907 20.0136C42.0646 20.0569 42.0579 20.1091 42.0721 20.1576L43.0298 23.4049ZM42.4709 23.7329C42.6053 23.7642 42.7235 23.639 42.6845 23.5067L41.7268 20.2594C41.684 20.114 41.7042 19.9572 41.7826 19.8275L43.533 16.9295C43.6043 16.8114 43.5217 16.6603 43.3838 16.6565L39.9995 16.5638C39.848 16.5597 39.7052 16.492 39.606 16.3773L37.3908 13.8171C37.3005 13.7128 37.1312 13.7446 37.085 13.8746L35.951 17.0646C35.9003 17.2074 35.7918 17.3224 35.6521 17.3813L32.5326 18.6969C32.4055 18.7505 32.3835 18.9213 32.4928 19.0054L35.1763 21.0697C35.2964 21.1621 35.3722 21.3008 35.3851 21.4519L35.6723 24.8252C35.684 24.9627 35.8397 25.0364 35.9535 24.9584L38.7459 23.0442C38.8709 22.9585 39.0263 22.9293 39.1739 22.9637L42.4709 23.7329Z" fill="#B9C0DE"/>
    <path opacity="0.73011" fill-rule="evenodd" clip-rule="evenodd" d="M33.529 138.432C33.931 138.531 34.0776 139.026 33.7937 139.327L32.1238 141.099C32.0892 141.136 32.0716 141.185 32.0753 141.236L32.2562 143.664C32.2869 144.077 31.861 144.369 31.4869 144.192L29.2857 143.152C29.24 143.13 29.1874 143.129 29.1406 143.148L26.8873 144.07C26.5043 144.227 26.0945 143.912 26.1471 143.502L26.4566 141.087C26.463 141.037 26.4481 140.986 26.4154 140.947L24.8419 139.089C24.5745 138.774 24.7471 138.287 25.1538 138.21L27.5462 137.758C27.5959 137.748 27.6393 137.719 27.6659 137.676L28.9467 135.605C29.1644 135.253 29.6809 135.267 29.8796 135.63L31.0488 137.766C31.073 137.81 31.1148 137.842 31.1639 137.854L33.529 138.432ZM33.5317 139.08C33.6263 138.98 33.5775 138.815 33.4435 138.782L31.0784 138.204C30.9311 138.168 30.8058 138.071 30.733 137.938L29.5638 135.803C29.4976 135.682 29.3254 135.677 29.2529 135.794L27.972 137.865C27.8923 137.994 27.762 138.083 27.613 138.112L25.2206 138.564C25.085 138.589 25.0275 138.751 25.1166 138.857L26.6901 140.715C26.7881 140.83 26.8329 140.982 26.8137 141.132L26.5042 143.547C26.4867 143.684 26.6233 143.789 26.7509 143.737L29.0042 142.815C29.1445 142.757 29.3025 142.761 29.4396 142.826L31.6408 143.867C31.7655 143.926 31.9074 143.828 31.8972 143.691L31.7163 141.263C31.705 141.111 31.7579 140.962 31.8618 140.852L33.5317 139.08Z" fill="#B9C0DE"/>
    <path opacity="0.902331" d="M159.019 95.1138C159.201 95.3212 159.092 95.6478 158.822 95.7038L155.506 96.3911C155.408 96.4116 155.322 96.4728 155.27 96.5597L153.54 99.47C153.399 99.7072 153.055 99.7041 152.918 99.4645L151.24 96.5241C151.19 96.4363 151.105 96.3736 151.007 96.3514L147.704 95.6057C147.435 95.5449 147.332 95.2164 147.517 95.0123L149.795 92.5077C149.863 92.4329 149.897 92.333 149.888 92.2324L149.576 88.8612C149.551 88.5864 149.831 88.3865 150.083 88.4999L153.169 89.8924C153.261 89.934 153.366 89.935 153.459 89.895L156.569 88.5572C156.822 88.4482 157.099 88.6531 157.069 88.9273L156.698 92.2925C156.687 92.393 156.719 92.4935 156.786 92.5694L159.019 95.1138Z" fill="#B9C0DE"/>
    <path opacity="0.370759" d="M18.454 64.5431C18.5372 64.28 18.8732 64.2044 19.061 64.4066L20.4324 65.8826C20.5012 65.9566 20.598 65.9983 20.699 65.9975L22.7137 65.9814C22.9896 65.9792 23.1653 66.2754 23.0311 66.5165L22.0512 68.2769C22.002 68.3652 21.9922 68.4701 22.0242 68.5659L22.6621 70.477C22.7495 70.7388 22.5221 70.9974 22.2513 70.9443L20.2743 70.5562C20.1751 70.5368 20.0723 70.5599 19.991 70.62L18.3706 71.8172C18.1487 71.9812 17.8324 71.8448 17.7993 71.5709L17.5574 69.5707C17.5452 69.4704 17.4915 69.3798 17.4092 69.321L15.7698 68.1498C15.5453 67.9895 15.5773 67.6465 15.8276 67.5304L17.6551 66.6822C17.7468 66.6397 17.8163 66.5605 17.8468 66.4642L18.454 64.5431Z" fill="#B9C0DE"/>
    <path opacity="0.806242" d="M39.5512 102.426C39.4124 102.665 39.0679 102.665 38.9291 102.426L37.225 99.5007C37.1741 99.4133 37.0889 99.3514 36.9901 99.33L33.6813 98.6136C33.4116 98.5552 33.3051 98.2276 33.489 98.0219L35.7447 95.4973C35.812 95.4219 35.8446 95.3217 35.8344 95.2211L35.4932 91.8528C35.4654 91.5783 35.7441 91.3759 35.9966 91.4871L39.0947 92.8522C39.1872 92.893 39.2925 92.893 39.385 92.8522L42.4831 91.4869C42.7355 91.3756 43.0142 91.5781 42.9864 91.8526L42.6455 95.2209C42.6353 95.3215 42.6678 95.4217 42.7352 95.4971L44.991 98.0216C45.1749 98.2273 45.0684 98.5549 44.7988 98.6133L41.49 99.3299C41.3912 99.3513 41.3059 99.4132 41.2551 99.5006L39.5512 102.426Z" fill="#B9C0DE"/>
    <path opacity="0.547916" d="M103.538 23.3689C103.264 23.4027 103.055 23.1286 103.161 22.8738L104.457 19.7462C104.496 19.6529 104.494 19.5475 104.451 19.456L103.017 16.3889C102.9 16.1389 103.097 15.8558 103.372 15.8775L106.747 16.1439C106.848 16.1519 106.947 16.1171 107.021 16.0481L109.495 13.737C109.697 13.5487 110.026 13.6478 110.091 13.9161L110.88 17.2083C110.904 17.3066 110.968 17.3905 111.056 17.4394L114.019 19.0781C114.26 19.2117 114.268 19.556 114.032 19.7001L111.145 21.4684C111.059 21.5212 110.999 21.6078 110.98 21.707L110.337 25.0309C110.284 25.3018 109.959 25.4155 109.75 25.2363L107.176 23.0369C107.099 22.9713 106.998 22.941 106.898 22.9534L103.538 23.3689Z" fill="#B9C0DE"/>
    <path opacity="0.392959" d="M105.768 165.559C105.649 165.807 105.306 165.835 105.148 165.608L103.217 162.827C103.159 162.744 103.069 162.69 102.969 162.676L99.6138 162.225C99.3403 162.188 99.2081 161.87 99.375 161.651L101.423 158.955C101.484 158.874 101.508 158.772 101.49 158.672L100.882 155.342C100.833 155.07 101.094 154.846 101.355 154.937L104.552 156.051C104.647 156.085 104.752 156.076 104.841 156.028L107.821 154.421C108.064 154.29 108.357 154.47 108.352 154.745L108.28 158.13C108.278 158.231 108.318 158.328 108.391 158.398L110.841 160.735C111.04 160.926 110.96 161.261 110.696 161.34L107.455 162.318C107.358 162.347 107.278 162.416 107.234 162.507L105.768 165.559Z" fill="#B9C0DE"/>
    <path fill-rule="evenodd" clip-rule="evenodd" d="M46.6981 32.2889C45.5307 33.8408 43.0694 39.1627 41.8879 41.8695L129.569 79.5608C130.628 76.7955 132.625 71.2247 132.873 69.3325C134.546 58.606 129.174 48.909 118.436 43.1925L75.0116 24.5259C63.4304 20.5935 53.029 23.4606 46.6981 32.2889ZM25.7351 78.6336L40.1351 42.9648L128.885 81.6417L114.37 117.596C108.433 132.303 95.0399 137.1 79.4525 130.308L41.3123 113.686C25.8712 106.957 19.7579 93.4391 25.7351 78.6336Z" fill="url(#paint0_linear)"/>
    <g opacity="0.5" filter="url(#filter0_f)">
        <path d="M99.4091 50.3994L75.2842 40.6341C66.5335 37.0919 59.1914 40.6126 55.341 50.1792L42.3003 82.58C38.3869 92.3033 41.2853 99.8233 50.036 103.365L74.1609 113.131C83.0526 116.73 90.2003 113.277 94.1137 103.553L107.154 71.1524C111.005 61.5859 108.301 53.9987 99.4091 50.3994Z" fill="#9A64E0"/>
    </g>
    <g filter="url(#filter1_b)">
        <mask id="path-11-outside-1" maskUnits="userSpaceOnUse" x="50.667" y="49.1194" width="97" height="100" fill="black">
            <rect fill="white" x="50.667" y="49.1194" width="97" height="100"/>
            <path fill-rule="evenodd" clip-rule="evenodd" d="M52.4972 69.2554C52.0104 71.2268 51.7514 77.3514 51.6841 80.4373H146.007C145.94 77.3461 145.681 71.1742 145.199 69.2554C142.713 58.268 134.168 51.1761 122.205 50.1194H75.4914C63.4246 51.1235 54.983 58.1681 52.4972 69.2554ZM51.667 80.438V120.461C51.667 137.073 62.1283 147.43 78.5453 147.43H119.096C135.668 147.43 146.026 137.284 146.026 120.781V80.438H51.667ZM73.2109 103.328C73.3144 105.741 75.2824 107.639 77.6647 107.528C79.9952 107.428 81.8596 105.431 81.756 103.007C81.7042 100.647 79.788 98.8014 77.4575 98.8014C75.0753 98.9118 73.2109 100.91 73.2109 103.328ZM94.4953 103.328C94.5989 105.741 96.5669 107.639 98.9492 107.528C101.28 107.428 103.144 105.431 103.04 103.007C102.989 100.647 101.073 98.8014 98.742 98.8014C96.3597 98.9118 94.4953 100.91 94.4953 103.328ZM115.781 122.406C115.781 124.824 117.697 126.822 120.079 126.874C122.513 126.874 124.481 124.877 124.481 122.406C124.481 119.94 122.513 117.943 120.079 117.943H120.028C117.645 117.995 115.729 119.988 115.781 122.406ZM98.9492 126.612C96.5669 126.722 94.5989 124.824 94.4953 122.406C94.4953 119.988 96.3597 117.995 98.742 117.885C101.073 117.885 102.989 119.73 103.04 122.096C103.144 124.514 101.28 126.512 98.9492 126.612ZM77.6125 126.612C75.2302 126.722 73.2622 124.824 73.1587 122.406C73.1587 119.988 75.0231 117.995 77.4053 117.885C79.7358 117.885 81.652 119.73 81.7038 122.096C81.8074 124.514 79.943 126.512 77.6125 126.612ZM120.079 98.8592C117.696 98.9118 115.832 100.857 115.832 103.275V103.328C115.884 105.741 117.852 107.581 120.234 107.528C122.565 107.481 124.429 105.483 124.377 103.065C124.274 100.747 122.409 98.8592 120.079 98.8592Z"/>
        </mask>
        <path fill-rule="evenodd" clip-rule="evenodd" d="M52.4972 69.2554C52.0104 71.2268 51.7514 77.3514 51.6841 80.4373H146.007C145.94 77.3461 145.681 71.1742 145.199 69.2554C142.713 58.268 134.168 51.1761 122.205 50.1194H75.4914C63.4246 51.1235 54.983 58.1681 52.4972 69.2554ZM51.667 80.438V120.461C51.667 137.073 62.1283 147.43 78.5453 147.43H119.096C135.668 147.43 146.026 137.284 146.026 120.781V80.438H51.667ZM73.2109 103.328C73.3144 105.741 75.2824 107.639 77.6647 107.528C79.9952 107.428 81.8596 105.431 81.756 103.007C81.7042 100.647 79.788 98.8014 77.4575 98.8014C75.0753 98.9118 73.2109 100.91 73.2109 103.328ZM94.4953 103.328C94.5989 105.741 96.5669 107.639 98.9492 107.528C101.28 107.428 103.144 105.431 103.04 103.007C102.989 100.647 101.073 98.8014 98.742 98.8014C96.3597 98.9118 94.4953 100.91 94.4953 103.328ZM115.781 122.406C115.781 124.824 117.697 126.822 120.079 126.874C122.513 126.874 124.481 124.877 124.481 122.406C124.481 119.94 122.513 117.943 120.079 117.943H120.028C117.645 117.995 115.729 119.988 115.781 122.406ZM98.9492 126.612C96.5669 126.722 94.5989 124.824 94.4953 122.406C94.4953 119.988 96.3597 117.995 98.742 117.885C101.073 117.885 102.989 119.73 103.04 122.096C103.144 124.514 101.28 126.512 98.9492 126.612ZM77.6125 126.612C75.2302 126.722 73.2622 124.824 73.1587 122.406C73.1587 119.988 75.0231 117.995 77.4053 117.885C79.7358 117.885 81.652 119.73 81.7038 122.096C81.8074 124.514 79.943 126.512 77.6125 126.612ZM120.079 98.8592C117.696 98.9118 115.832 100.857 115.832 103.275V103.328C115.884 105.741 117.852 107.581 120.234 107.528C122.565 107.481 124.429 105.483 124.377 103.065C124.274 100.747 122.409 98.8592 120.079 98.8592Z" fill="#D9E0FF" fill-opacity="0.3"/>
        <path d="M51.6841 80.4373L50.6843 80.4155C50.6785 80.6844 50.7812 80.9444 50.9693 81.1367C51.1575 81.3289 51.4151 81.4373 51.6841 81.4373V80.4373ZM52.4972 69.2554L53.468 69.4951C53.4697 69.4881 53.4714 69.4812 53.473 69.4741L52.4972 69.2554ZM146.007 80.4373V81.4373C146.276 81.4373 146.533 81.3289 146.722 81.1367C146.91 80.9444 147.012 80.6845 147.007 80.4155L146.007 80.4373ZM145.199 69.2554L144.224 69.476C144.225 69.4837 144.227 69.4912 144.229 69.4988L145.199 69.2554ZM122.205 50.1194L122.293 49.1233C122.263 49.1207 122.234 49.1194 122.205 49.1194V50.1194ZM75.4914 50.1194V49.1194C75.4637 49.1194 75.436 49.1205 75.4084 49.1228L75.4914 50.1194ZM51.667 80.438V79.438C51.1147 79.438 50.667 79.8858 50.667 80.438H51.667ZM146.026 80.438H147.026C147.026 79.8858 146.578 79.438 146.026 79.438V80.438ZM77.6647 107.528L77.6219 106.529L77.6184 106.529L77.6647 107.528ZM73.2109 103.328H72.2109C72.2109 103.342 72.2112 103.356 72.2118 103.371L73.2109 103.328ZM81.756 103.007L80.7562 103.029C80.7564 103.036 80.7566 103.043 80.7569 103.05L81.756 103.007ZM77.4575 98.8014V97.8014C77.4421 97.8014 77.4267 97.8017 77.4112 97.8025L77.4575 98.8014ZM98.9492 107.528L98.9064 106.529L98.9029 106.529L98.9492 107.528ZM94.4953 103.328H93.4953C93.4953 103.342 93.4957 103.356 93.4963 103.371L94.4953 103.328ZM103.04 103.007L102.041 103.029C102.041 103.036 102.041 103.043 102.041 103.05L103.04 103.007ZM98.742 98.8014V97.8014C98.7266 97.8014 98.7112 97.8017 98.6957 97.8025L98.742 98.8014ZM120.079 126.874L120.057 127.874C120.065 127.874 120.072 127.874 120.079 127.874V126.874ZM115.781 122.406H116.781C116.781 122.399 116.781 122.392 116.781 122.384L115.781 122.406ZM120.028 117.943V116.943C120.02 116.943 120.013 116.943 120.005 116.943L120.028 117.943ZM94.4953 122.406H93.4953C93.4953 122.42 93.4957 122.435 93.4963 122.449L94.4953 122.406ZM98.9492 126.612L98.9064 125.613L98.9029 125.613L98.9492 126.612ZM98.742 117.885V116.885C98.7266 116.885 98.7112 116.885 98.6957 116.886L98.742 117.885ZM103.04 122.096L102.041 122.118C102.041 122.125 102.041 122.132 102.041 122.139L103.04 122.096ZM73.1587 122.406H72.1587C72.1587 122.42 72.159 122.435 72.1596 122.449L73.1587 122.406ZM77.6125 126.612L77.5697 125.613L77.5662 125.613L77.6125 126.612ZM77.4053 117.885V116.885C77.3899 116.885 77.3745 116.885 77.359 116.886L77.4053 117.885ZM81.7038 122.096L80.704 122.118C80.7042 122.125 80.7044 122.132 80.7047 122.139L81.7038 122.096ZM120.079 98.8592V97.8592C120.071 97.8592 120.064 97.8593 120.057 97.8594L120.079 98.8592ZM115.832 103.328H114.832C114.832 103.335 114.832 103.342 114.832 103.349L115.832 103.328ZM120.234 107.528L120.214 106.528L120.212 106.528L120.234 107.528ZM124.377 103.065L125.377 103.044C125.377 103.036 125.377 103.028 125.376 103.02L124.377 103.065ZM52.6839 80.4591C52.7173 78.9266 52.7984 76.6376 52.9314 74.4902C53.0668 72.3056 53.2504 70.3766 53.468 69.4951L51.5263 69.0156C51.2572 70.1056 51.0679 72.2246 50.9353 74.3666C50.8003 76.5458 50.7182 78.8621 50.6843 80.4155L52.6839 80.4591ZM146.007 79.4373H51.6841V81.4373H146.007V79.4373ZM144.229 69.4988C144.443 70.351 144.625 72.2749 144.76 74.4681C144.893 76.6215 144.974 78.9238 145.007 80.4591L147.007 80.4155C146.973 78.8596 146.891 76.5303 146.756 74.3453C146.624 72.2001 146.437 70.0786 146.169 69.0119L144.229 69.4988ZM122.117 51.1155C133.688 52.1376 141.842 58.9512 144.224 69.476L146.174 69.0347C143.584 57.5847 134.648 50.2146 122.293 49.1233L122.117 51.1155ZM75.4914 51.1194H122.205V49.1194H75.4914V51.1194ZM53.473 69.4741C55.8553 58.8487 63.906 52.0869 75.5743 51.1159L75.4084 49.1228C62.9432 50.1601 54.1108 57.4875 51.5214 69.0366L53.473 69.4741ZM52.667 120.461V80.438H50.667V120.461H52.667ZM78.5453 146.43C70.5499 146.43 64.1028 143.912 59.6568 139.468C55.2109 135.024 52.667 128.554 52.667 120.461H50.667C50.667 128.98 53.3537 135.995 58.2428 140.882C63.1317 145.769 70.1237 148.43 78.5453 148.43V146.43ZM119.096 146.43H78.5453V148.43H119.096V146.43ZM145.026 120.781C145.026 128.82 142.508 135.206 138.073 139.582C133.637 143.96 127.177 146.43 119.096 146.43V148.43C127.587 148.43 134.592 145.827 139.478 141.006C144.365 136.183 147.026 129.245 147.026 120.781H145.026ZM145.026 80.438V120.781H147.026V80.438H145.026ZM51.667 81.438H146.026V79.438H51.667V81.438ZM77.6184 106.529C75.8242 106.612 74.2913 105.181 74.2099 103.285L72.2118 103.371C72.3376 106.301 74.7406 108.665 77.711 108.527L77.6184 106.529ZM80.7569 103.05C80.8371 104.926 79.3962 106.453 77.6219 106.529L77.7075 108.527C80.5941 108.404 82.882 105.935 82.7551 102.964L80.7569 103.05ZM77.4575 99.8014C79.2487 99.8014 80.7165 101.217 80.7562 103.029L82.7557 102.985C82.6919 100.077 80.3273 97.8014 77.4575 97.8014V99.8014ZM74.2109 103.328C74.2109 101.426 75.6727 99.8852 77.5038 99.8003L77.4112 97.8025C74.4778 97.9384 72.2109 100.393 72.2109 103.328H74.2109ZM98.9029 106.529C97.1087 106.612 95.5758 105.181 95.4944 103.285L93.4963 103.371C93.622 106.301 96.0251 108.665 98.9955 108.527L98.9029 106.529ZM102.041 103.05C102.122 104.926 100.681 106.453 98.9064 106.529L98.992 108.527C101.879 108.404 104.167 105.935 104.04 102.964L102.041 103.05ZM98.742 99.8014C100.533 99.8014 102.001 101.217 102.041 103.029L104.04 102.985C103.976 100.077 101.612 97.8014 98.742 97.8014V99.8014ZM95.4953 103.328C95.4953 101.426 96.9572 99.8852 98.7883 99.8003L98.6957 97.8025C95.7623 97.9384 93.4953 100.393 93.4953 103.328H95.4953ZM120.101 125.875C118.279 125.834 116.781 124.297 116.781 122.406H114.781C114.781 125.351 117.115 127.809 120.057 127.874L120.101 125.875ZM123.481 122.406C123.481 124.339 121.947 125.874 120.079 125.874V127.874C123.08 127.874 125.481 125.415 125.481 122.406H123.481ZM120.079 118.943C121.948 118.943 123.481 120.479 123.481 122.406H125.481C125.481 119.401 123.079 116.943 120.079 116.943V118.943ZM120.028 118.943H120.079V116.943H120.028V118.943ZM116.781 122.384C116.741 120.515 118.222 118.983 120.05 118.942L120.005 116.943C117.069 117.008 114.718 119.46 114.781 122.427L116.781 122.384ZM93.4963 122.449C93.622 125.384 96.0243 127.748 98.9955 127.611L98.9029 125.613C97.1095 125.696 95.5759 124.265 95.4944 122.363L93.4963 122.449ZM98.6957 116.886C95.7638 117.022 93.4953 119.47 93.4953 122.406H95.4953C95.4953 120.506 96.9557 118.969 98.7883 118.884L98.6957 116.886ZM104.04 122.074C103.976 119.161 101.613 116.885 98.742 116.885V118.885C100.532 118.885 102.001 120.299 102.041 122.118L104.04 122.074ZM98.992 127.611C101.878 127.487 104.167 125.02 104.04 122.053L102.041 122.139C102.122 124.009 100.682 125.537 98.9064 125.613L98.992 127.611ZM72.1596 122.449C72.2853 125.384 74.6876 127.748 77.6588 127.611L77.5662 125.613C75.7728 125.696 74.2392 124.265 74.1577 122.363L72.1596 122.449ZM77.359 116.886C74.4271 117.022 72.1587 119.47 72.1587 122.406H74.1587C74.1587 120.506 75.619 118.969 77.4516 118.884L77.359 116.886ZM82.7036 122.074C82.6398 119.161 80.2759 116.885 77.4053 116.885V118.885C79.1957 118.885 80.6642 120.299 80.704 122.118L82.7036 122.074ZM77.6553 127.611C80.5411 127.487 82.8299 125.02 82.7029 122.053L80.7047 122.139C80.7848 124.009 79.3448 125.537 77.5697 125.613L77.6553 127.611ZM116.832 103.275C116.832 101.384 118.279 99.8992 120.101 99.8589L120.057 97.8594C117.114 97.9244 114.832 100.33 114.832 103.275H116.832ZM116.832 103.328V103.275H114.832V103.328H116.832ZM120.212 106.528C118.373 106.569 116.872 105.158 116.832 103.306L114.832 103.349C114.896 106.324 117.331 108.593 120.256 108.528L120.212 106.528ZM123.377 103.086C123.418 104.981 121.963 106.493 120.214 106.528L120.254 108.528C123.166 108.469 125.44 105.985 125.377 103.044L123.377 103.086ZM120.079 99.8592C121.844 99.8592 123.297 101.295 123.378 103.11L125.376 103.02C125.25 100.198 122.975 97.8592 120.079 97.8592V99.8592Z" fill="url(#paint1_linear)" mask="url(#path-11-outside-1)"/>
    </g>
    <g filter="url(#filter2_bd)">
        <mask id="path-13-inside-2" fill="white">
            <path fill-rule="evenodd" clip-rule="evenodd" d="M83.4647 62.3689C83.4647 64.6873 81.7557 66.4169 79.477 66.4169C77.1983 66.4169 75.4893 64.6873 75.4893 62.3689V46.3399C75.4893 44.0215 77.1983 42.2866 79.477 42.2866C81.7557 42.2866 83.4647 44.0215 83.4647 46.3399V62.3689ZM122.203 62.3689C122.203 64.6873 120.443 66.4169 118.216 66.4169C115.937 66.4169 114.228 64.6873 114.228 62.3689V46.3399C114.228 44.0215 115.937 42.2866 118.216 42.2866C120.443 42.2866 122.203 44.0215 122.203 46.3399V62.3689Z"/>
        </mask>
        <path fill-rule="evenodd" clip-rule="evenodd" d="M83.4647 62.3689C83.4647 64.6873 81.7557 66.4169 79.477 66.4169C77.1983 66.4169 75.4893 64.6873 75.4893 62.3689V46.3399C75.4893 44.0215 77.1983 42.2866 79.477 42.2866C81.7557 42.2866 83.4647 44.0215 83.4647 46.3399V62.3689ZM122.203 62.3689C122.203 64.6873 120.443 66.4169 118.216 66.4169C115.937 66.4169 114.228 64.6873 114.228 62.3689V46.3399C114.228 44.0215 115.937 42.2866 118.216 42.2866C120.443 42.2866 122.203 44.0215 122.203 46.3399V62.3689Z" fill="url(#paint2_linear)"/>
        <path d="M79.477 66.8169C81.9819 66.8169 83.8647 64.9029 83.8647 62.3689H83.0647C83.0647 64.4717 81.5295 66.0169 79.477 66.0169V66.8169ZM75.0893 62.3689C75.0893 64.9029 76.9721 66.8169 79.477 66.8169V66.0169C77.4245 66.0169 75.8893 64.4717 75.8893 62.3689H75.0893ZM75.0893 46.3399V62.3689H75.8893V46.3399H75.0893ZM79.477 41.8866C76.9714 41.8866 75.0893 43.8066 75.0893 46.3399H75.8893C75.8893 44.2364 77.4252 42.6866 79.477 42.6866V41.8866ZM83.8647 46.3399C83.8647 43.8066 81.9826 41.8866 79.477 41.8866V42.6866C81.5288 42.6866 83.0647 44.2364 83.0647 46.3399H83.8647ZM83.8647 62.3689V46.3399H83.0647V62.3689H83.8647ZM118.216 66.8169C120.665 66.8169 122.603 64.9063 122.603 62.3689H121.803C121.803 64.4683 120.22 66.0169 118.216 66.0169V66.8169ZM113.828 62.3689C113.828 64.9029 115.711 66.8169 118.216 66.8169V66.0169C116.163 66.0169 114.628 64.4717 114.628 62.3689H113.828ZM113.828 46.3399V62.3689H114.628V46.3399H113.828ZM118.216 41.8866C115.71 41.8866 113.828 43.8066 113.828 46.3399H114.628C114.628 44.2364 116.164 42.6866 118.216 42.6866V41.8866ZM122.603 46.3399C122.603 43.8032 120.666 41.8866 118.216 41.8866V42.6866C120.219 42.6866 121.803 44.2398 121.803 46.3399H122.603ZM122.603 62.3689V46.3399H121.803V62.3689H122.603Z" fill="url(#paint3_linear)" mask="url(#path-13-inside-2)"/>
    </g>
    <g filter="url(#filter3_bd)">
        <mask id="path-15-inside-3" fill="white">
            <path fill-rule="evenodd" clip-rule="evenodd" d="M73.2563 103.376C73.3599 105.789 75.3279 107.687 77.7101 107.576C80.0406 107.477 81.905 105.479 81.8015 103.055C81.7497 100.695 79.8335 98.8496 77.503 98.8496C75.1207 98.96 73.2563 100.958 73.2563 103.376ZM94.5408 103.376C94.6444 105.789 96.6123 107.687 98.9946 107.576C101.325 107.477 103.19 105.479 103.086 103.055C103.034 100.695 101.118 98.8496 98.7875 98.8496C96.4052 98.96 94.5408 100.958 94.5408 103.376ZM115.826 122.454C115.826 124.872 117.742 126.87 120.125 126.922C122.559 126.922 124.527 124.925 124.527 122.454C124.527 119.988 122.559 117.991 120.125 117.991H120.073C117.691 118.043 115.775 120.036 115.826 122.454ZM98.9946 126.66C96.6123 126.771 94.6444 124.873 94.5408 122.454C94.5408 120.036 96.4052 118.044 98.7875 117.933C101.118 117.933 103.034 119.779 103.086 122.144C103.19 124.563 101.325 126.56 98.9946 126.66ZM77.6579 126.66C75.2756 126.771 73.3077 124.873 73.2041 122.454C73.2041 120.036 75.0685 118.044 77.4508 117.933C79.7813 117.933 81.6974 119.779 81.7492 122.144C81.8528 124.563 79.9884 126.56 77.6579 126.66ZM120.124 98.9075C117.742 98.96 115.877 100.905 115.877 103.323V103.376C115.929 105.789 117.897 107.629 120.28 107.576C122.61 107.529 124.474 105.531 124.423 103.113C124.319 100.795 122.455 98.9075 120.124 98.9075Z"/>
        </mask>
        <path fill-rule="evenodd" clip-rule="evenodd" d="M73.2563 103.376C73.3599 105.789 75.3279 107.687 77.7101 107.576C80.0406 107.477 81.905 105.479 81.8015 103.055C81.7497 100.695 79.8335 98.8496 77.503 98.8496C75.1207 98.96 73.2563 100.958 73.2563 103.376ZM94.5408 103.376C94.6444 105.789 96.6123 107.687 98.9946 107.576C101.325 107.477 103.19 105.479 103.086 103.055C103.034 100.695 101.118 98.8496 98.7875 98.8496C96.4052 98.96 94.5408 100.958 94.5408 103.376ZM115.826 122.454C115.826 124.872 117.742 126.87 120.125 126.922C122.559 126.922 124.527 124.925 124.527 122.454C124.527 119.988 122.559 117.991 120.125 117.991H120.073C117.691 118.043 115.775 120.036 115.826 122.454ZM98.9946 126.66C96.6123 126.771 94.6444 124.873 94.5408 122.454C94.5408 120.036 96.4052 118.044 98.7875 117.933C101.118 117.933 103.034 119.779 103.086 122.144C103.19 124.563 101.325 126.56 98.9946 126.66ZM77.6579 126.66C75.2756 126.771 73.3077 124.873 73.2041 122.454C73.2041 120.036 75.0685 118.044 77.4508 117.933C79.7813 117.933 81.6974 119.779 81.7492 122.144C81.8528 124.563 79.9884 126.56 77.6579 126.66ZM120.124 98.9075C117.742 98.96 115.877 100.905 115.877 103.323V103.376C115.929 105.789 117.897 107.629 120.28 107.576C122.61 107.529 124.474 105.531 124.423 103.113C124.319 100.795 122.455 98.9075 120.124 98.9075Z" fill="url(#paint4_linear)"/>
        <path d="M77.7101 107.576L77.693 107.177L77.6916 107.177L77.7101 107.576ZM73.2563 103.376H72.8563V103.385L72.8567 103.393L73.2563 103.376ZM81.8015 103.055L81.4015 103.064L81.4018 103.072L81.8015 103.055ZM77.503 98.8496V98.4496H77.4937L77.4845 98.45L77.503 98.8496ZM98.9946 107.576L98.9775 107.177L98.9761 107.177L98.9946 107.576ZM94.5408 103.376H94.1408V103.385L94.1412 103.393L94.5408 103.376ZM103.086 103.055L102.686 103.064L102.686 103.072L103.086 103.055ZM98.7875 98.8496V98.4496H98.7782L98.769 98.45L98.7875 98.8496ZM120.125 126.922L120.116 127.322H120.125V126.922ZM115.826 122.454H116.226L116.226 122.445L115.826 122.454ZM120.073 117.991V117.59L120.064 117.591L120.073 117.991ZM94.5408 122.454H94.1408V122.463L94.1412 122.472L94.5408 122.454ZM98.9946 126.66L98.9775 126.261L98.9761 126.261L98.9946 126.66ZM98.7875 117.933V117.533H98.7782L98.769 117.534L98.7875 117.933ZM103.086 122.144L102.686 122.153L102.686 122.161L103.086 122.144ZM73.2041 122.454H72.8041V122.463L72.8045 122.472L73.2041 122.454ZM77.6579 126.66L77.6408 126.261L77.6394 126.261L77.6579 126.66ZM77.4508 117.933V117.533H77.4415L77.4323 117.534L77.4508 117.933ZM81.7492 122.144L81.3492 122.153L81.3496 122.161L81.7492 122.144ZM120.124 98.9075V98.5074L120.115 98.5076L120.124 98.9075ZM115.877 103.376H115.477L115.478 103.385L115.877 103.376ZM120.28 107.576L120.271 107.177L120.271 107.177L120.28 107.576ZM124.423 103.113L124.823 103.105L124.822 103.095L124.423 103.113ZM77.6916 107.177C75.5446 107.276 73.7506 105.565 73.6559 103.359L72.8567 103.393C72.9691 106.013 75.1111 108.097 77.7287 107.976L77.6916 107.177ZM81.4018 103.072C81.496 105.277 79.8011 107.086 77.693 107.177L77.7273 107.976C80.2802 107.867 82.314 105.681 82.2011 103.038L81.4018 103.072ZM77.503 99.2496C79.6178 99.2496 81.3546 100.923 81.4015 103.064L82.2014 103.047C82.1448 100.467 80.0492 98.4496 77.503 98.4496V99.2496ZM73.6563 103.376C73.6563 101.164 75.3597 99.3494 77.5215 99.2492L77.4845 98.45C74.8817 98.5707 72.8563 100.751 72.8563 103.376H73.6563ZM98.9761 107.177C96.8291 107.276 95.0351 105.565 94.9404 103.359L94.1412 103.393C94.2536 106.013 96.3956 108.097 99.0131 107.976L98.9761 107.177ZM102.686 103.072C102.781 105.277 101.086 107.086 98.9775 107.177L99.0118 107.976C101.565 107.867 103.599 105.681 103.486 103.038L102.686 103.072ZM98.7875 99.2496C100.902 99.2496 102.639 100.923 102.686 103.064L103.486 103.047C103.429 100.467 101.334 98.4496 98.7875 98.4496V99.2496ZM94.9408 103.376C94.9408 101.164 96.6442 99.3494 98.806 99.2492L98.769 98.45C96.1662 98.5707 94.1408 100.751 94.1408 103.376H94.9408ZM120.134 126.523C117.975 126.475 116.226 124.661 116.226 122.454H115.426C115.426 125.083 117.51 127.265 120.116 127.322L120.134 126.523ZM124.127 122.454C124.127 124.709 122.332 126.522 120.125 126.522V127.322C122.785 127.322 124.927 125.14 124.927 122.454H124.127ZM120.125 118.391C122.333 118.391 124.127 120.204 124.127 122.454H124.927C124.927 119.773 122.785 117.591 120.125 117.591V118.391ZM120.073 118.391H120.125V117.591H120.073V118.391ZM116.226 122.445C116.179 120.247 117.921 118.438 120.082 118.39L120.064 117.591C117.46 117.648 115.37 119.824 115.426 122.462L116.226 122.445ZM94.1412 122.472C94.2536 125.096 96.3953 127.181 99.0131 127.06L98.9761 126.261C96.8294 126.36 95.0352 124.649 94.9404 122.437L94.1412 122.472ZM98.769 117.534C96.1668 117.654 94.1408 119.829 94.1408 122.454H94.9408C94.9408 120.243 96.6436 118.433 98.806 118.333L98.769 117.534ZM103.486 122.136C103.429 119.551 101.334 117.533 98.7875 117.533V118.333C100.902 118.333 102.639 120.006 102.686 122.153L103.486 122.136ZM99.0118 127.06C101.564 126.95 103.599 124.765 103.486 122.127L102.686 122.161C102.78 124.36 101.086 126.17 98.9775 126.261L99.0118 127.06ZM72.8045 122.472C72.9169 125.096 75.0586 127.181 77.6764 127.06L77.6394 126.261C75.4927 126.36 73.6985 124.649 73.6037 122.437L72.8045 122.472ZM77.4323 117.534C74.8301 117.654 72.8041 119.829 72.8041 122.454H73.6041C73.6041 120.243 75.3069 118.433 77.4693 118.333L77.4323 117.534ZM82.1491 122.136C82.0926 119.551 79.9973 117.533 77.4508 117.533V118.333C79.5652 118.333 81.3023 120.006 81.3493 122.153L82.1491 122.136ZM77.6751 127.06C80.2277 126.95 82.2618 124.765 82.1489 122.127L81.3496 122.161C81.4438 124.36 79.7492 126.17 77.6408 126.261L77.6751 127.06ZM116.277 103.323C116.277 101.116 117.975 99.355 120.133 99.3074L120.115 98.5076C117.509 98.5651 115.477 100.694 115.477 103.323H116.277ZM116.277 103.376V103.323H115.477V103.376H116.277ZM120.271 107.177C118.106 107.224 116.324 105.556 116.277 103.367L115.478 103.385C115.534 106.022 117.689 108.034 120.288 107.976L120.271 107.177ZM124.023 103.122C124.07 105.331 122.369 107.134 120.271 107.177L120.288 107.976C122.851 107.924 124.879 105.732 124.823 103.105L124.023 103.122ZM120.124 99.3075C122.229 99.3075 123.928 101.014 124.023 103.131L124.822 103.095C124.71 100.576 122.681 98.5075 120.124 98.5075V99.3075Z" fill="url(#paint5_linear)" mask="url(#path-15-inside-3)"/>
    </g>
    <g opacity="0.5" filter="url(#filter4_b)">
        <path d="M56.4812 80.8336C56.4812 83.0669 58.2058 84.8327 60.5176 84.8327L135.244 84.8327C137.556 84.8327 139.286 83.0669 139.286 80.8336C139.286 78.5484 137.556 76.8345 135.244 76.8345L60.5176 76.8345C58.2058 76.8345 56.4812 78.5484 56.4812 80.8336Z" fill="url(#paint6_linear)" fill-opacity="0.5"/>
    </g>
    <defs>
        <filter id="filter0_f" x="21.5908" y="20.2852" width="106.27" height="113.237" filterUnits="userSpaceOnUse" color-interpolation-filters="sRGB">
            <feFlood flood-opacity="0" result="BackgroundImageFix"/>
            <feBlend mode="normal" in="SourceGraphic" in2="BackgroundImageFix" result="shape"/>
            <feGaussianBlur stdDeviation="9.5" result="effect1_foregroundBlur"/>
        </filter>
        <filter id="filter1_b" x="26.667" y="25.1194" width="144.359" height="147.31" filterUnits="userSpaceOnUse" color-interpolation-filters="sRGB">
            <feFlood flood-opacity="0" result="BackgroundImageFix"/>
            <feGaussianBlur in="BackgroundImage" stdDeviation="12"/>
            <feComposite in2="SourceAlpha" operator="in" result="effect1_backgroundBlur"/>
            <feBlend mode="normal" in="SourceGraphic" in2="effect1_backgroundBlur" result="shape"/>
        </filter>
        <filter id="filter2_bd" x="60.4893" y="27.2866" width="76.7142" height="54.1303" filterUnits="userSpaceOnUse" color-interpolation-filters="sRGB">
            <feFlood flood-opacity="0" result="BackgroundImageFix"/>
            <feGaussianBlur in="BackgroundImage" stdDeviation="7.5"/>
            <feComposite in2="SourceAlpha" operator="in" result="effect1_backgroundBlur"/>
            <feColorMatrix in="SourceAlpha" type="matrix" values="0 0 0 0 0 0 0 0 0 0 0 0 0 0 0 0 0 0 127 0"/>
            <feOffset dx="5" dy="5"/>
            <feGaussianBlur stdDeviation="5"/>
            <feColorMatrix type="matrix" values="0 0 0 0 0.623529 0 0 0 0 0.423529 0 0 0 0 0.878431 0 0 0 0.2 0"/>
            <feBlend mode="normal" in2="effect1_backgroundBlur" result="effect2_dropShadow"/>
            <feBlend mode="normal" in="SourceGraphic" in2="effect2_dropShadow" result="shape"/>
        </filter>
        <filter id="filter3_bd" x="58.2041" y="83.8496" width="81.3227" height="58.0728" filterUnits="userSpaceOnUse" color-interpolation-filters="sRGB">
            <feFlood flood-opacity="0" result="BackgroundImageFix"/>
            <feGaussianBlur in="BackgroundImage" stdDeviation="7.5"/>
            <feComposite in2="SourceAlpha" operator="in" result="effect1_backgroundBlur"/>
            <feColorMatrix in="SourceAlpha" type="matrix" values="0 0 0 0 0 0 0 0 0 0 0 0 0 0 0 0 0 0 127 0"/>
            <feOffset dx="5" dy="5"/>
            <feGaussianBlur stdDeviation="5"/>
            <feColorMatrix type="matrix" values="0 0 0 0 0.619608 0 0 0 0 0.419608 0 0 0 0 0.882353 0 0 0 0.5 0"/>
            <feBlend mode="normal" in2="effect1_backgroundBlur" result="effect2_dropShadow"/>
            <feBlend mode="normal" in="SourceGraphic" in2="effect2_dropShadow" result="shape"/>
        </filter>
        <filter id="filter4_b" x="41.4814" y="61.8345" width="112.805" height="37.9983" filterUnits="userSpaceOnUse" color-interpolation-filters="sRGB">
            <feFlood flood-opacity="0" result="BackgroundImageFix"/>
            <feGaussianBlur in="BackgroundImage" stdDeviation="7.5"/>
            <feComposite in2="SourceAlpha" operator="in" result="effect1_backgroundBlur"/>
            <feBlend mode="normal" in="SourceGraphic" in2="effect1_backgroundBlur" result="shape"/>
        </filter>
        <linearGradient id="paint0_linear" x1="95.3869" y1="32.5086" x2="54.8454" y2="119.972" gradientUnits="userSpaceOnUse">
            <stop stop-color="#B983FE"/>
            <stop offset="0.244792" stop-color="#AC76F1"/>
            <stop offset="1" stop-color="#9A64E0"/>
        </linearGradient>
        <linearGradient id="paint1_linear" x1="66.6874" y1="61.4562" x2="129.137" y2="136.455" gradientUnits="userSpaceOnUse">
            <stop stop-color="white" stop-opacity="0.25"/>
            <stop offset="1" stop-color="white" stop-opacity="0"/>
        </linearGradient>
        <linearGradient id="paint2_linear" x1="119.387" y1="62.6723" x2="120.798" y2="44.5487" gradientUnits="userSpaceOnUse">
            <stop stop-color="white"/>
            <stop offset="1" stop-color="white" stop-opacity="0.2"/>
        </linearGradient>
        <linearGradient id="paint3_linear" x1="118.103" y1="45.9353" x2="137.111" y2="53.044" gradientUnits="userSpaceOnUse">
            <stop stop-color="white" stop-opacity="0.25"/>
            <stop offset="1" stop-color="white" stop-opacity="0"/>
        </linearGradient>
        <linearGradient id="paint4_linear" x1="120.888" y1="103.919" x2="34.3524" y2="98.2336" gradientUnits="userSpaceOnUse">
            <stop stop-color="white"/>
            <stop offset="1" stop-color="white" stop-opacity="0.2"/>
        </linearGradient>
        <linearGradient id="paint5_linear" x1="81.3738" y1="102.12" x2="94.9136" y2="132.778" gradientUnits="userSpaceOnUse">
            <stop stop-color="white" stop-opacity="0.25"/>
            <stop offset="1" stop-color="white" stop-opacity="0"/>
        </linearGradient>
        <linearGradient id="paint6_linear" x1="78.8305" y1="80.7207" x2="75.8462" y2="71.4001" gradientUnits="userSpaceOnUse">
            <stop stop-color="white"/>
            <stop offset="1" stop-color="white" stop-opacity="0.2"/>
        </linearGradient>
    </defs>
</svg>
