<svg width="306" height="306" viewBox="0 0 306 306" fill="none" xmlns="http://www.w3.org/2000/svg">
    <path fill-rule="evenodd" clip-rule="evenodd" d="M212.795 89.4941C213.149 88.8861 214.027 88.8861 214.382 89.4941L215.696 91.7499C215.739 91.8241 215.811 91.8768 215.895 91.895L218.447 92.4475C219.134 92.5964 219.406 93.4317 218.937 93.9563L217.197 95.903C217.14 95.9671 217.113 96.0523 217.121 96.1377L217.384 98.7351C217.455 99.435 216.744 99.9513 216.101 99.6676L213.712 98.6149C213.633 98.5802 213.544 98.5802 213.465 98.6149L211.076 99.6676C210.432 99.9513 209.722 99.435 209.792 98.7351L210.055 96.1377C210.064 96.0523 210.036 95.9671 209.979 95.903L208.24 93.9563C207.771 93.4317 208.042 92.5964 208.73 92.4475L211.281 91.895C211.365 91.8768 211.438 91.8241 211.481 91.7499L212.795 89.4941ZM213.853 89.8021C213.735 89.5994 213.442 89.5994 213.324 89.8021L212.01 92.0579C211.88 92.2806 211.663 92.4386 211.411 92.4931L208.86 93.0456C208.63 93.0952 208.54 93.3737 208.696 93.5486L210.436 95.4953C210.607 95.6874 210.69 95.943 210.664 96.1994L210.401 98.7967C210.378 99.03 210.615 99.2021 210.829 99.1075L213.218 98.0548C213.454 97.9509 213.723 97.9509 213.959 98.0548L216.347 99.1075C216.562 99.2021 216.799 99.03 216.775 98.7967L216.512 96.1994C216.486 95.943 216.569 95.6874 216.741 95.4953L218.481 93.5486C218.637 93.3737 218.546 93.0952 218.317 93.0456L215.766 92.4931C215.514 92.4386 215.296 92.2806 215.167 92.0579L213.853 89.8021Z" fill="#B9C0DE"/>
    <path opacity="0.796364" fill-rule="evenodd" clip-rule="evenodd" d="M73.151 39.7881C73.35 40.4629 72.7471 41.1016 72.0619 40.9418L66.457 39.6341C66.3733 39.6146 66.2853 39.6311 66.2145 39.6797L61.4673 42.9339C60.887 43.3317 60.0933 42.9556 60.0336 42.2546L59.5452 36.5199C59.5379 36.4343 59.495 36.3557 59.4269 36.3034L54.865 32.7941C54.3074 32.3652 54.4198 31.4941 55.068 31.2207L60.3711 28.9841C60.4503 28.9507 60.5117 28.8856 60.5405 28.8046L62.4683 23.3817C62.704 22.7187 63.5671 22.5564 64.0275 23.0885L67.7933 27.4409C67.8495 27.5058 67.9305 27.5442 68.0164 27.5465L73.7696 27.7042C74.4729 27.7234 74.894 28.4942 74.5303 29.0964L71.5546 34.0229C71.5102 34.0965 71.4987 34.1853 71.523 34.2677L73.151 39.7881ZM72.2009 40.3458C72.4293 40.399 72.6303 40.1862 72.564 39.9612L70.936 34.4408C70.8631 34.1936 70.8975 33.9271 71.0308 33.7065L74.0064 28.78C74.1277 28.5793 73.9873 28.3224 73.7529 28.3159L67.9996 28.1583C67.742 28.1513 67.4992 28.0362 67.3305 27.8413L63.5647 23.4889C63.4112 23.3116 63.1235 23.3657 63.0449 23.5867L61.1172 29.0096C61.0308 29.2525 60.8464 29.4478 60.6089 29.548L55.3059 31.7846C55.0898 31.8757 55.0523 32.1661 55.2382 32.3091L59.8 35.8183C60.0043 35.9754 60.1331 36.2112 60.155 36.468L60.6434 42.2027C60.6633 42.4363 60.9278 42.5617 61.1213 42.4291L65.8684 39.1749C66.081 39.0292 66.345 38.9796 66.596 39.0381L72.2009 40.3458Z" fill="#B9C0DE"/>
    <path opacity="0.73011" fill-rule="evenodd" clip-rule="evenodd" d="M56.9988 235.335C57.6822 235.502 57.9314 236.344 57.4488 236.856L54.61 239.868C54.5511 239.931 54.5212 240.015 54.5276 240.101L54.8351 244.228C54.8873 244.93 54.1633 245.427 53.5273 245.127L49.7853 243.358C49.7076 243.321 49.6181 243.318 49.5386 243.351L45.7079 244.919C45.0568 245.185 44.3602 244.651 44.4496 243.953L44.9758 239.847C44.9867 239.762 44.9613 239.676 44.9058 239.61L42.2308 236.452C41.7761 235.915 42.0696 235.087 42.761 234.957L46.8281 234.188C46.9125 234.172 46.9864 234.122 47.0315 234.049L49.209 230.529C49.5791 229.93 50.4571 229.953 50.7949 230.571L52.7824 234.201C52.8237 234.277 52.8947 234.331 52.9782 234.352L56.9988 235.335ZM57.0035 236.436C57.1643 236.266 57.0813 235.985 56.8535 235.929L52.8328 234.946C52.5825 234.885 52.3694 234.721 52.2456 234.495L50.2581 230.864C50.1455 230.659 49.8528 230.651 49.7294 230.85L47.552 234.371C47.4164 234.59 47.195 234.742 46.9417 234.79L42.8746 235.558C42.6441 235.601 42.5463 235.877 42.6978 236.056L45.3728 239.215C45.5393 239.412 45.6156 239.669 45.5828 239.925L45.0567 244.03C45.0269 244.263 45.2591 244.441 45.4761 244.353L49.3067 242.785C49.5452 242.687 49.8138 242.694 50.0468 242.804L53.7888 244.573C54.0008 244.674 54.2422 244.508 54.2248 244.274L53.9173 240.146C53.8981 239.889 53.9879 239.636 54.1647 239.448L57.0035 236.436Z" fill="#B9C0DE"/>
    <path opacity="0.902331" d="M270.332 161.693C270.641 162.046 270.456 162.601 269.996 162.696L264.361 163.865C264.192 163.9 264.047 164.004 263.959 164.151L261.018 169.099C260.779 169.502 260.193 169.497 259.961 169.09L257.108 164.091C257.023 163.942 256.879 163.835 256.711 163.797L251.097 162.53C250.64 162.426 250.464 161.868 250.779 161.521L254.652 157.263C254.767 157.136 254.824 156.966 254.808 156.795L254.279 151.064C254.236 150.597 254.713 150.257 255.14 150.45L260.386 152.817C260.543 152.888 260.722 152.889 260.88 152.821L266.167 150.547C266.598 150.362 267.068 150.71 267.017 151.176L266.387 156.897C266.368 157.068 266.422 157.239 266.535 157.368L270.332 161.693Z" fill="#B9C0DE"/>
    <path opacity="0.370759" d="M31.3712 109.723C31.5126 109.276 32.0839 109.148 32.4031 109.491L34.7345 112.001C34.8514 112.126 35.0159 112.197 35.1877 112.196L38.6127 112.169C39.0817 112.165 39.3804 112.668 39.1523 113.078L37.4863 116.071C37.4028 116.221 37.3861 116.399 37.4405 116.562L38.525 119.811C38.6735 120.256 38.2869 120.696 37.8266 120.605L34.4656 119.946C34.297 119.913 34.1223 119.952 33.9841 120.054L31.2293 122.089C30.8521 122.368 30.3144 122.136 30.2581 121.671L29.8469 118.27C29.8262 118.1 29.7349 117.946 29.5951 117.846L26.8081 115.855C26.4264 115.582 26.4807 114.999 26.9062 114.802L30.013 113.36C30.1689 113.288 30.2871 113.153 30.3389 112.989L31.3712 109.723Z" fill="#B9C0DE"/>
    <path opacity="0.806242" d="M67.2372 174.124C67.0012 174.529 66.4156 174.529 66.1796 174.124L63.2827 169.151C63.1962 169.002 63.0513 168.897 62.8834 168.861L57.2583 167.643C56.7999 167.544 56.6189 166.987 56.9314 166.637L60.7661 162.345C60.8806 162.217 60.9359 162.047 60.9186 161.876L60.3387 156.149C60.2914 155.683 60.7651 155.339 61.1943 155.528L66.4611 157.848C66.6184 157.918 66.7975 157.918 66.9547 157.848L72.2214 155.527C72.6506 155.338 73.1243 155.682 73.0771 156.149L72.4975 161.875C72.4802 162.046 72.5355 162.217 72.65 162.345L76.4849 166.636C76.7975 166.986 76.6165 167.543 76.1581 167.642L70.5331 168.86C70.3652 168.897 70.2203 169.002 70.1338 169.151L67.2372 174.124Z" fill="#B9C0DE"/>
    <path opacity="0.547916" d="M176.013 39.7267C175.548 39.7842 175.193 39.3183 175.373 38.885L177.577 33.5681C177.642 33.4094 177.639 33.2303 177.566 33.0747L175.129 27.8606C174.93 27.4357 175.264 26.9545 175.731 26.9914L181.469 27.4443C181.64 27.4578 181.809 27.3987 181.935 27.2814L186.141 23.3525C186.484 23.0323 187.044 23.2009 187.154 23.657L188.496 29.2537C188.536 29.4208 188.645 29.5633 188.795 29.6465L193.831 32.4324C194.242 32.6594 194.255 33.2448 193.855 33.4898L188.947 36.4959C188.8 36.5856 188.698 36.7328 188.665 36.9015L187.572 42.5522C187.483 43.0127 186.93 43.2059 186.574 42.9012L182.198 39.1624C182.067 39.0507 181.896 38.9992 181.725 39.0203L176.013 39.7267Z" fill="#B9C0DE"/>
    <path opacity="0.392959" d="M179.806 281.449C179.603 281.872 179.019 281.919 178.752 281.533L175.468 276.806C175.37 276.665 175.218 276.572 175.047 276.549L169.343 275.782C168.878 275.72 168.654 275.179 168.937 274.806L172.418 270.222C172.522 270.086 172.564 269.911 172.533 269.742L171.5 264.08C171.415 263.619 171.86 263.238 172.303 263.393L177.738 265.287C177.9 265.344 178.079 265.329 178.23 265.248L183.295 262.515C183.708 262.292 184.207 262.598 184.197 263.067L184.075 268.821C184.072 268.993 184.14 269.158 184.265 269.277L188.429 273.25C188.768 273.573 188.632 274.143 188.183 274.278L182.673 275.94C182.508 275.99 182.372 276.106 182.298 276.261L179.806 281.449Z" fill="#B9C0DE"/>
    <path fill-rule="evenodd" clip-rule="evenodd" d="M77.5838 54.1179C75.59 56.752 71.4006 65.7971 69.3908 70.3981L220.269 135.255C222.066 130.554 225.456 121.081 225.869 117.86C228.665 99.6048 219.368 83.0491 200.883 73.2318L126.16 41.1113C106.24 34.3262 88.3943 39.1304 77.5838 54.1179ZM43.7496 133.677L68.2296 73.0399L219.105 138.791L194.429 199.914C184.335 224.916 161.568 233.071 135.069 221.523L70.2309 193.266C43.9809 181.827 33.5884 158.846 43.7496 133.677Z" fill="url(#paint0_linear)"/>
    <g opacity="0.5" filter="url(#filter0_f)">
        <path d="M168.993 85.6786L127.981 69.0775C113.105 63.0558 100.623 69.0411 94.0775 85.3042L71.9083 140.386C65.2554 156.915 70.1827 169.699 85.0589 175.721L126.071 192.322C141.187 198.441 153.338 192.57 159.991 176.04L182.16 120.959C188.706 104.696 184.109 91.7973 168.993 85.6786Z" fill="#9A64E0"/>
    </g>
    <g filter="url(#filter1_b)">
        <mask id="path-11-outside-1" maskUnits="userSpaceOnUse" x="86.833" y="84.2031" width="163" height="168" fill="black">
            <rect fill="white" x="86.833" y="84.2031" width="163" height="168"/>
            <path fill-rule="evenodd" clip-rule="evenodd" d="M89.2464 117.734C88.4188 121.086 87.9786 131.497 87.8642 136.744H248.213C248.098 131.489 247.658 120.996 246.839 117.734C242.613 99.0557 228.087 86.9995 207.749 85.2031H128.337C107.823 86.9101 93.4724 98.8859 89.2464 117.734ZM87.833 136.745V204.784C87.833 233.025 105.617 250.631 133.526 250.631H202.462C230.635 250.631 248.243 233.383 248.243 205.329V136.745H87.833ZM124.458 175.658C124.634 179.76 127.98 182.986 132.03 182.798C135.991 182.629 139.161 179.232 138.985 175.112C138.897 171.1 135.639 167.963 131.677 167.963C127.628 168.15 124.458 171.546 124.458 175.658ZM160.642 175.658C160.818 179.76 164.164 182.986 168.214 182.798C172.175 182.629 175.345 179.232 175.169 175.112C175.081 171.1 171.823 167.963 167.861 167.963C163.812 168.15 160.642 171.546 160.642 175.658ZM196.829 208.09C196.829 212.201 200.086 215.597 204.136 215.686C208.274 215.686 211.62 212.29 211.62 208.09C211.62 203.898 208.274 200.502 204.136 200.502H204.048C199.998 200.592 196.741 203.979 196.829 208.09ZM168.214 215.24C164.164 215.428 160.818 212.202 160.642 208.091C160.642 203.98 163.812 200.592 167.861 200.405C171.823 200.405 175.081 203.542 175.169 207.563C175.345 211.675 172.175 215.071 168.214 215.24ZM131.941 215.24C127.891 215.428 124.545 212.202 124.369 208.091C124.369 203.98 127.539 200.592 131.589 200.405C135.55 200.405 138.808 203.542 138.896 207.563C139.072 211.675 135.903 215.071 131.941 215.24ZM204.135 168.061C200.085 168.151 196.916 171.457 196.916 175.568V175.658C197.004 179.76 200.35 182.888 204.399 182.799C208.361 182.718 211.531 179.322 211.443 175.211C211.267 171.27 208.097 168.061 204.135 168.061Z"/>
        </mask>
        <path fill-rule="evenodd" clip-rule="evenodd" d="M89.2464 117.734C88.4188 121.086 87.9786 131.497 87.8642 136.744H248.213C248.098 131.489 247.658 120.996 246.839 117.734C242.613 99.0557 228.087 86.9995 207.749 85.2031H128.337C107.823 86.9101 93.4724 98.8859 89.2464 117.734ZM87.833 136.745V204.784C87.833 233.025 105.617 250.631 133.526 250.631H202.462C230.635 250.631 248.243 233.383 248.243 205.329V136.745H87.833ZM124.458 175.658C124.634 179.76 127.98 182.986 132.03 182.798C135.991 182.629 139.161 179.232 138.985 175.112C138.897 171.1 135.639 167.963 131.677 167.963C127.628 168.15 124.458 171.546 124.458 175.658ZM160.642 175.658C160.818 179.76 164.164 182.986 168.214 182.798C172.175 182.629 175.345 179.232 175.169 175.112C175.081 171.1 171.823 167.963 167.861 167.963C163.812 168.15 160.642 171.546 160.642 175.658ZM196.829 208.09C196.829 212.201 200.086 215.597 204.136 215.686C208.274 215.686 211.62 212.29 211.62 208.09C211.62 203.898 208.274 200.502 204.136 200.502H204.048C199.998 200.592 196.741 203.979 196.829 208.09ZM168.214 215.24C164.164 215.428 160.818 212.202 160.642 208.091C160.642 203.98 163.812 200.592 167.861 200.405C171.823 200.405 175.081 203.542 175.169 207.563C175.345 211.675 172.175 215.071 168.214 215.24ZM131.941 215.24C127.891 215.428 124.545 212.202 124.369 208.091C124.369 203.98 127.539 200.592 131.589 200.405C135.55 200.405 138.808 203.542 138.896 207.563C139.072 211.675 135.903 215.071 131.941 215.24ZM204.135 168.061C200.085 168.151 196.916 171.457 196.916 175.568V175.658C197.004 179.76 200.35 182.888 204.399 182.799C208.361 182.718 211.531 179.322 211.443 175.211C211.267 171.27 208.097 168.061 204.135 168.061Z" fill="#D9E0FF" fill-opacity="0.3"/>
        <path d="M87.8642 136.744L86.8644 136.722C86.8586 136.991 86.9613 137.251 87.1494 137.443C87.3375 137.635 87.5952 137.744 87.8642 137.744V136.744ZM89.2464 117.734L90.2173 117.974C90.219 117.967 90.2206 117.96 90.2222 117.953L89.2464 117.734ZM248.213 136.744V137.744C248.482 137.744 248.739 137.635 248.928 137.443C249.116 137.251 249.218 136.991 249.213 136.722L248.213 136.744ZM246.839 117.734L245.864 117.955C245.866 117.963 245.868 117.97 245.869 117.978L246.839 117.734ZM207.749 85.2031L207.837 84.207C207.808 84.2044 207.779 84.2031 207.749 84.2031V85.2031ZM128.337 85.2031V84.2031C128.309 84.2031 128.281 84.2043 128.254 84.2066L128.337 85.2031ZM87.833 136.745V135.745C87.2807 135.745 86.833 136.193 86.833 136.745H87.833ZM248.243 136.745H249.243C249.243 136.193 248.796 135.745 248.243 135.745V136.745ZM132.03 182.798L131.987 181.799L131.983 181.799L132.03 182.798ZM124.458 175.658H123.458C123.458 175.672 123.458 175.686 123.459 175.7L124.458 175.658ZM138.985 175.112L137.985 175.134C137.985 175.141 137.985 175.148 137.986 175.155L138.985 175.112ZM131.677 167.963V166.963C131.662 166.963 131.647 166.963 131.631 166.964L131.677 167.963ZM168.214 182.798L168.171 181.799L168.167 181.799L168.214 182.798ZM160.642 175.658H159.642C159.642 175.672 159.642 175.686 159.643 175.7L160.642 175.658ZM175.169 175.112L174.169 175.134C174.169 175.141 174.169 175.148 174.17 175.155L175.169 175.112ZM167.861 167.963V166.963C167.846 166.963 167.831 166.963 167.815 166.964L167.861 167.963ZM204.136 215.686L204.114 216.686C204.121 216.686 204.129 216.686 204.136 216.686V215.686ZM196.829 208.09H197.829C197.829 208.083 197.829 208.076 197.829 208.069L196.829 208.09ZM204.048 200.502V199.502C204.041 199.502 204.033 199.502 204.026 199.503L204.048 200.502ZM160.642 208.091H159.642C159.642 208.105 159.642 208.119 159.643 208.134L160.642 208.091ZM168.214 215.24L168.171 214.241L168.167 214.242L168.214 215.24ZM167.861 200.405V199.405C167.846 199.405 167.831 199.405 167.815 199.406L167.861 200.405ZM175.169 207.563L174.169 207.585C174.169 207.592 174.169 207.599 174.17 207.606L175.169 207.563ZM124.369 208.091H123.369C123.369 208.105 123.37 208.119 123.37 208.134L124.369 208.091ZM131.941 215.24L131.898 214.241L131.894 214.242L131.941 215.24ZM131.589 200.405V199.405C131.573 199.405 131.558 199.405 131.542 199.406L131.589 200.405ZM138.896 207.563L137.896 207.585C137.896 207.592 137.897 207.599 137.897 207.606L138.896 207.563ZM204.135 168.061V167.061C204.128 167.061 204.121 167.061 204.113 167.061L204.135 168.061ZM196.916 175.658H195.916C195.916 175.665 195.916 175.672 195.916 175.679L196.916 175.658ZM204.399 182.799L204.379 181.799L204.377 181.799L204.399 182.799ZM211.443 175.211L212.442 175.19C212.442 175.182 212.442 175.174 212.442 175.166L211.443 175.211ZM88.8639 136.765C88.9209 134.153 89.0591 130.252 89.286 126.59C89.5151 122.891 89.8292 119.546 90.2173 117.974L88.2756 117.495C87.8361 119.274 87.5163 122.81 87.2898 126.467C87.061 130.16 86.9219 134.088 86.8644 136.722L88.8639 136.765ZM248.213 135.744H87.8642V137.744H248.213V135.744ZM245.869 117.978C246.252 119.502 246.564 122.841 246.792 126.553C247.018 130.225 247.156 134.148 247.213 136.765L249.213 136.722C249.155 134.084 249.016 130.134 248.788 126.43C248.563 122.766 248.246 119.229 247.809 117.491L245.869 117.978ZM207.661 86.1992C227.607 87.961 241.743 99.7389 245.864 117.955L247.815 117.514C243.484 98.3724 228.567 86.038 207.837 84.207L207.661 86.1992ZM128.337 86.2031H207.749V84.2031H128.337V86.2031ZM90.2222 117.953C94.3446 99.5665 108.304 87.8735 128.419 86.1997L128.254 84.2066C107.342 85.9467 92.6001 98.2053 88.2706 117.516L90.2222 117.953ZM88.833 204.784V136.745H86.833V204.784H88.833ZM133.526 249.631C119.785 249.631 108.634 245.301 100.921 237.591C93.2077 229.881 88.833 218.692 88.833 204.784H86.833C86.833 219.118 91.3505 230.852 99.5068 239.005C107.663 247.158 119.359 251.631 133.526 251.631V249.631ZM202.462 249.631H133.526V251.631H202.462V249.631ZM247.243 205.329C247.243 219.143 242.913 230.193 235.215 237.789C227.516 245.386 216.344 249.631 202.462 249.631V251.631C216.754 251.631 228.472 247.253 236.62 239.212C244.77 231.17 249.243 219.568 249.243 205.329H247.243ZM247.243 136.745V205.329H249.243V136.745H247.243ZM87.833 137.745H248.243V135.745H87.833V137.745ZM131.983 181.799C128.522 181.96 125.611 179.199 125.457 175.615L123.459 175.7C123.657 180.32 127.438 184.012 132.076 183.797L131.983 181.799ZM137.986 175.155C138.138 178.728 135.393 181.653 131.987 181.799L132.072 183.797C136.59 183.604 140.183 179.737 139.984 175.07L137.986 175.155ZM131.677 168.963C135.1 168.963 137.909 171.67 137.985 175.134L139.985 175.09C139.885 170.53 136.179 166.963 131.677 166.963V168.963ZM125.458 175.658C125.458 172.063 128.225 169.124 131.724 168.962L131.631 166.964C127.03 167.177 123.458 171.03 123.458 175.658H125.458ZM168.167 181.799C164.706 181.96 161.795 179.199 161.641 175.615L159.643 175.7C159.841 180.32 163.622 184.012 168.26 183.797L168.167 181.799ZM174.17 175.155C174.322 178.728 171.576 181.653 168.171 181.799L168.256 183.797C172.774 183.604 176.367 179.737 176.168 175.07L174.17 175.155ZM167.861 168.963C171.284 168.963 174.093 171.67 174.169 175.134L176.169 175.09C176.069 170.53 172.363 166.963 167.861 166.963V168.963ZM161.642 175.658C161.642 172.063 164.409 169.124 167.908 168.962L167.815 166.964C163.214 167.177 159.642 171.03 159.642 175.658H161.642ZM204.158 214.687C200.668 214.61 197.829 211.674 197.829 208.09H195.829C195.829 212.728 199.504 216.585 204.114 216.686L204.158 214.687ZM210.62 208.09C210.62 211.752 207.708 214.686 204.136 214.686V216.686C208.84 216.686 212.62 212.828 212.62 208.09H210.62ZM204.136 201.502C207.708 201.502 210.62 204.437 210.62 208.09H212.62C212.62 203.36 208.84 199.502 204.136 199.502V201.502ZM204.048 201.502H204.136V199.502H204.048V201.502ZM197.829 208.069C197.752 204.507 200.575 201.579 204.07 201.502L204.026 199.503C199.422 199.604 195.729 203.451 195.829 208.111L197.829 208.069ZM159.643 208.134C159.841 212.761 163.621 216.454 168.26 216.239L168.167 214.242C164.706 214.402 161.795 211.642 161.641 208.048L159.643 208.134ZM167.815 199.406C163.216 199.619 159.642 203.462 159.642 208.091H161.642C161.642 204.498 164.408 201.566 167.908 201.404L167.815 199.406ZM176.169 207.542C176.069 202.973 172.363 199.405 167.861 199.405V201.405C171.283 201.405 174.093 204.111 174.169 207.585L176.169 207.542ZM168.256 216.24C172.774 216.046 176.367 212.18 176.168 207.521L174.17 207.606C174.322 211.169 171.577 214.095 168.171 214.241L168.256 216.24ZM123.37 208.134C123.568 212.761 127.348 216.454 131.987 216.239L131.894 214.242C128.433 214.402 125.522 211.642 125.368 208.048L123.37 208.134ZM131.542 199.406C126.943 199.619 123.369 203.462 123.369 208.091H125.369C125.369 204.498 128.135 201.566 131.635 201.404L131.542 199.406ZM139.896 207.542C139.796 202.973 136.091 199.405 131.589 199.405V201.405C135.01 201.405 137.82 204.111 137.896 207.585L139.896 207.542ZM131.984 216.24C136.501 216.046 140.095 212.18 139.895 207.521L137.897 207.606C138.05 211.169 135.304 214.095 131.898 214.241L131.984 216.24ZM197.916 175.568C197.916 171.984 200.668 169.138 204.157 169.061L204.113 167.061C199.503 167.163 195.916 170.931 195.916 175.568H197.916ZM197.916 175.658V175.568H195.916V175.658H197.916ZM204.377 181.799C200.871 181.876 197.992 179.177 197.916 175.636L195.916 175.679C196.016 180.343 199.828 183.9 204.421 183.798L204.377 181.799ZM210.443 175.232C210.52 178.82 207.759 181.73 204.379 181.799L204.42 183.798C208.963 183.706 212.542 179.824 212.442 175.19L210.443 175.232ZM204.135 169.061C207.532 169.061 210.29 171.818 210.444 175.256L212.442 175.166C212.243 170.722 208.662 167.061 204.135 167.061V169.061Z" fill="url(#paint1_linear)" mask="url(#path-11-outside-1)"/>
    </g>
    <g filter="url(#filter2_bd)">
        <mask id="path-13-inside-2" fill="white">
            <path fill-rule="evenodd" clip-rule="evenodd" d="M207.745 106.029C207.745 109.97 204.752 112.91 200.966 112.91C197.092 112.91 194.187 109.97 194.187 106.029V78.7792C194.187 74.8379 197.092 71.8887 200.966 71.8887C204.752 71.8887 207.745 74.8379 207.745 78.7792V106.029ZM141.888 106.03C141.888 109.971 138.983 112.911 135.109 112.911C131.235 112.911 128.33 109.971 128.33 106.03V78.7805C128.33 74.8392 131.235 71.89 135.109 71.89C138.983 71.89 141.888 74.8392 141.888 78.7805V106.03Z"/>
        </mask>
        <path fill-rule="evenodd" clip-rule="evenodd" d="M207.745 106.029C207.745 109.97 204.752 112.91 200.966 112.91C197.092 112.91 194.187 109.97 194.187 106.029V78.7792C194.187 74.8379 197.092 71.8887 200.966 71.8887C204.752 71.8887 207.745 74.8379 207.745 78.7792V106.029ZM141.888 106.03C141.888 109.971 138.983 112.911 135.109 112.911C131.235 112.911 128.33 109.971 128.33 106.03V78.7805C128.33 74.8392 131.235 71.89 135.109 71.89C138.983 71.89 141.888 74.8392 141.888 78.7805V106.03Z" fill="url(#paint2_linear)"/>
        <path d="M200.966 113.31C204.975 113.31 208.145 110.189 208.145 106.029H207.345C207.345 109.751 204.529 112.51 200.966 112.51V113.31ZM193.787 106.029C193.787 110.185 196.866 113.31 200.966 113.31V112.51C197.318 112.51 194.587 109.754 194.587 106.029H193.787ZM193.787 78.7792V106.029H194.587V78.7792H193.787ZM200.966 71.4887C196.865 71.4887 193.787 74.623 193.787 78.7792H194.587C194.587 75.0528 197.319 72.2887 200.966 72.2887V71.4887ZM208.145 78.7792C208.145 74.6196 204.975 71.4887 200.966 71.4887V72.2887C204.528 72.2887 207.345 75.0562 207.345 78.7792H208.145ZM208.145 106.029V78.7792H207.345V106.029H208.145ZM135.109 113.311C139.209 113.311 142.288 110.187 142.288 106.03H141.488C141.488 109.756 138.757 112.511 135.109 112.511V113.311ZM127.93 106.03C127.93 110.187 131.009 113.311 135.109 113.311V112.511C131.462 112.511 128.73 109.756 128.73 106.03H127.93ZM127.93 78.7805V106.03H128.73V78.7805H127.93ZM135.109 71.49C131.009 71.49 127.93 74.6243 127.93 78.7805H128.73C128.73 75.0541 131.462 72.29 135.109 72.29V71.49ZM142.288 78.7805C142.288 74.6243 139.21 71.49 135.109 71.49V72.29C138.756 72.29 141.488 75.0541 141.488 78.7805H142.288ZM142.288 106.03V78.7805H141.488V106.03H142.288Z" fill="url(#paint3_linear)" mask="url(#path-13-inside-2)"/>
    </g>
    <g filter="url(#filter3_bd)">
        <mask id="path-15-inside-3" fill="white">
            <path fill-rule="evenodd" clip-rule="evenodd" d="M160.719 175.74C160.895 179.842 164.241 183.068 168.291 182.881C172.253 182.711 175.422 179.315 175.246 175.195C175.158 171.182 171.901 168.045 167.939 168.045C163.889 168.233 160.719 171.629 160.719 175.74ZM196.903 208.172C196.903 212.283 200.16 215.679 204.21 215.769C208.348 215.769 211.694 212.373 211.694 208.172C211.694 203.981 208.348 200.585 204.21 200.585H204.122C200.072 200.674 196.815 204.061 196.903 208.172ZM168.291 215.323C164.241 215.51 160.895 212.284 160.719 208.173C160.719 204.062 163.889 200.675 167.939 200.487C171.901 200.487 175.158 203.624 175.246 207.646C175.422 211.757 172.253 215.153 168.291 215.323ZM124.537 175.74C124.713 179.842 128.058 183.069 132.108 182.881C136.07 182.711 139.239 179.315 139.063 175.195C138.975 171.182 135.718 168.045 131.756 168.045C127.706 168.233 124.537 171.629 124.537 175.74ZM132.018 215.323C127.968 215.51 124.623 212.284 124.447 208.173C124.447 204.062 127.616 200.675 131.666 200.487C135.628 200.487 138.885 203.624 138.973 207.646C139.149 211.757 135.98 215.153 132.018 215.323ZM204.21 168.142C200.161 168.232 196.991 171.538 196.991 175.65V175.739C197.079 179.841 200.425 182.969 204.475 182.88C208.436 182.799 211.606 179.403 211.518 175.292C211.342 171.351 208.172 168.142 204.21 168.142Z"/>
        </mask>
        <path fill-rule="evenodd" clip-rule="evenodd" d="M160.719 175.74C160.895 179.842 164.241 183.068 168.291 182.881C172.253 182.711 175.422 179.315 175.246 175.195C175.158 171.182 171.901 168.045 167.939 168.045C163.889 168.233 160.719 171.629 160.719 175.74ZM196.903 208.172C196.903 212.283 200.16 215.679 204.21 215.769C208.348 215.769 211.694 212.373 211.694 208.172C211.694 203.981 208.348 200.585 204.21 200.585H204.122C200.072 200.674 196.815 204.061 196.903 208.172ZM168.291 215.323C164.241 215.51 160.895 212.284 160.719 208.173C160.719 204.062 163.889 200.675 167.939 200.487C171.901 200.487 175.158 203.624 175.246 207.646C175.422 211.757 172.253 215.153 168.291 215.323ZM124.537 175.74C124.713 179.842 128.058 183.069 132.108 182.881C136.07 182.711 139.239 179.315 139.063 175.195C138.975 171.182 135.718 168.045 131.756 168.045C127.706 168.233 124.537 171.629 124.537 175.74ZM132.018 215.323C127.968 215.51 124.623 212.284 124.447 208.173C124.447 204.062 127.616 200.675 131.666 200.487C135.628 200.487 138.885 203.624 138.973 207.646C139.149 211.757 135.98 215.153 132.018 215.323ZM204.21 168.142C200.161 168.232 196.991 171.538 196.991 175.65V175.739C197.079 179.841 200.425 182.969 204.475 182.88C208.436 182.799 211.606 179.403 211.518 175.292C211.342 171.351 208.172 168.142 204.21 168.142Z" fill="url(#paint4_linear)"/>
        <path d="M168.291 182.881L168.274 182.481L168.272 182.481L168.291 182.881ZM160.719 175.74H160.319V175.748L160.32 175.757L160.719 175.74ZM175.246 175.195L174.846 175.203L174.846 175.212L175.246 175.195ZM167.939 168.045V167.645H167.929L167.92 167.645L167.939 168.045ZM204.21 215.769L204.201 216.169H204.21V215.769ZM196.903 208.172H197.303L197.303 208.164L196.903 208.172ZM204.122 200.585V200.184L204.113 200.185L204.122 200.585ZM160.719 208.173H160.319V208.182L160.32 208.19L160.719 208.173ZM168.291 215.323L168.274 214.923L168.272 214.923L168.291 215.323ZM167.939 200.487V200.087H167.929L167.92 200.087L167.939 200.487ZM175.246 207.646L174.846 207.654L174.846 207.663L175.246 207.646ZM132.108 182.881L132.091 182.481L132.089 182.482L132.108 182.881ZM124.537 175.74H124.137V175.749L124.137 175.757L124.537 175.74ZM139.063 175.195L138.663 175.204L138.664 175.212L139.063 175.195ZM131.756 168.045V167.645H131.747L131.737 167.646L131.756 168.045ZM124.447 208.173H124.047V208.182L124.047 208.19L124.447 208.173ZM132.018 215.323L132.001 214.923L132 214.923L132.018 215.323ZM131.666 200.487V200.087H131.657L131.647 200.087L131.666 200.487ZM138.973 207.646L138.573 207.654L138.574 207.663L138.973 207.646ZM204.21 168.142V167.742L204.202 167.742L204.21 168.142ZM196.991 175.739H196.591L196.591 175.748L196.991 175.739ZM204.475 182.88L204.466 182.48L204.466 182.48L204.475 182.88ZM211.518 175.292L211.918 175.284L211.917 175.274L211.518 175.292ZM168.272 182.481C164.458 182.658 161.286 179.618 161.119 175.723L160.32 175.757C160.505 180.066 164.024 183.479 168.309 183.28L168.272 182.481ZM174.846 175.212C175.013 179.113 172.013 182.321 168.274 182.481L168.308 183.28C172.492 183.101 175.831 179.517 175.646 175.178L174.846 175.212ZM167.939 168.445C171.685 168.445 174.763 171.41 174.846 175.203L175.646 175.186C175.553 170.954 172.116 167.645 167.939 167.645V168.445ZM161.119 175.74C161.119 171.835 164.128 168.622 167.957 168.444L167.92 167.645C163.65 167.843 160.319 171.422 160.319 175.74H161.119ZM204.219 215.369C200.393 215.284 197.303 212.072 197.303 208.172H196.503C196.503 212.494 199.928 216.074 204.201 216.169L204.219 215.369ZM211.294 208.172C211.294 212.157 208.122 215.369 204.21 215.369V216.169C208.575 216.169 212.094 212.588 212.094 208.172H211.294ZM204.21 200.985C208.122 200.985 211.294 204.196 211.294 208.172H212.094C212.094 203.765 208.574 200.185 204.21 200.185V200.985ZM204.122 200.985H204.21V200.185H204.122V200.985ZM197.303 208.164C197.219 204.272 200.303 201.069 204.131 200.984L204.113 200.185C199.842 200.279 196.41 203.85 196.503 208.181L197.303 208.164ZM160.32 208.19C160.505 212.508 164.024 215.921 168.309 215.722L168.272 214.923C164.458 215.1 161.286 212.06 161.119 208.156L160.32 208.19ZM167.92 200.087C163.65 200.285 160.319 203.855 160.319 208.173H161.119C161.119 204.269 164.127 201.064 167.957 200.887L167.92 200.087ZM175.646 207.637C175.553 203.396 172.117 200.087 167.939 200.087V200.887C171.684 200.887 174.763 203.852 174.846 207.654L175.646 207.637ZM168.308 215.722C172.492 215.543 175.831 211.959 175.646 207.629L174.846 207.663C175.013 211.555 172.013 214.763 168.274 214.923L168.308 215.722ZM132.089 182.482C128.275 182.658 125.103 179.618 124.936 175.723L124.137 175.757C124.322 180.067 127.841 183.479 132.127 183.281L132.089 182.482ZM138.664 175.212C138.83 179.113 135.83 182.321 132.091 182.481L132.125 183.281C136.309 183.101 139.648 179.517 139.463 175.178L138.664 175.212ZM131.756 168.445C135.502 168.445 138.58 171.41 138.663 175.204L139.463 175.186C139.37 170.954 135.933 167.645 131.756 167.645V168.445ZM124.937 175.74C124.937 171.836 127.945 168.622 131.774 168.445L131.737 167.646C127.467 167.844 124.137 171.423 124.137 175.74H124.937ZM124.047 208.19C124.232 212.508 127.751 215.921 132.037 215.722L132 214.923C128.185 215.1 125.013 212.06 124.846 208.156L124.047 208.19ZM131.647 200.087C127.378 200.285 124.047 203.855 124.047 208.173H124.847C124.847 204.269 127.854 201.064 131.684 200.887L131.647 200.087ZM139.373 207.637C139.28 203.396 135.844 200.087 131.666 200.087V200.887C135.412 200.887 138.49 203.852 138.573 207.654L139.373 207.637ZM132.035 215.722C136.219 215.543 139.558 211.959 139.373 207.629L138.574 207.663C138.74 211.555 135.741 214.763 132.001 214.923L132.035 215.722ZM197.391 175.65C197.391 171.749 200.393 168.627 204.219 168.542L204.202 167.742C199.928 167.837 196.591 171.328 196.591 175.65H197.391ZM197.391 175.739V175.65H196.591V175.739H197.391ZM204.466 182.48C200.633 182.564 197.474 179.608 197.391 175.73L196.591 175.748C196.684 180.074 200.216 183.374 204.483 183.28L204.466 182.48ZM211.118 175.301C211.201 179.202 208.196 182.404 204.466 182.48L204.483 183.28C208.677 183.194 212.01 179.604 211.918 175.284L211.118 175.301ZM204.21 168.542C207.946 168.542 210.951 171.57 211.118 175.31L211.917 175.274C211.732 171.132 208.398 167.742 204.21 167.742V168.542Z" fill="url(#paint5_linear)" mask="url(#path-15-inside-3)"/>
    </g>
    <g opacity="0.5" filter="url(#filter4_b)">
        <path d="M96.0159 137.419C96.0159 141.215 98.9478 144.217 102.878 144.217L229.913 144.217C233.844 144.217 236.784 141.215 236.784 137.419C236.784 133.534 233.844 130.62 229.913 130.62L102.878 130.62C98.9478 130.62 96.0159 133.534 96.0159 137.419Z" fill="url(#paint6_linear)" fill-opacity="0.5"/>
    </g>
    <defs>
        <filter id="filter0_f" x="50.0018" y="47.7842" width="154.058" height="165.902" filterUnits="userSpaceOnUse" color-interpolation-filters="sRGB">
            <feFlood flood-opacity="0" result="BackgroundImageFix"/>
            <feBlend mode="normal" in="SourceGraphic" in2="BackgroundImageFix" result="shape"/>
            <feGaussianBlur stdDeviation="9.5" result="effect1_foregroundBlur"/>
        </filter>
        <filter id="filter1_b" x="62.833" y="60.2031" width="210.41" height="215.428" filterUnits="userSpaceOnUse" color-interpolation-filters="sRGB">
            <feFlood flood-opacity="0" result="BackgroundImageFix"/>
            <feGaussianBlur in="BackgroundImage" stdDeviation="12"/>
            <feComposite in2="SourceAlpha" operator="in" result="effect1_backgroundBlur"/>
            <feBlend mode="normal" in="SourceGraphic" in2="effect1_backgroundBlur" result="shape"/>
        </filter>
        <filter id="filter2_bd" x="113.33" y="56.8887" width="109.415" height="71.0228" filterUnits="userSpaceOnUse" color-interpolation-filters="sRGB">
            <feFlood flood-opacity="0" result="BackgroundImageFix"/>
            <feGaussianBlur in="BackgroundImage" stdDeviation="7.5"/>
            <feComposite in2="SourceAlpha" operator="in" result="effect1_backgroundBlur"/>
            <feColorMatrix in="SourceAlpha" type="matrix" values="0 0 0 0 0 0 0 0 0 0 0 0 0 0 0 0 0 0 127 0" result="hardAlpha"/>
            <feOffset dx="5" dy="5"/>
            <feGaussianBlur stdDeviation="5"/>
            <feColorMatrix type="matrix" values="0 0 0 0 0.623529 0 0 0 0 0.423529 0 0 0 0 0.878431 0 0 0 0.2 0"/>
            <feBlend mode="normal" in2="effect1_backgroundBlur" result="effect2_dropShadow"/>
            <feBlend mode="normal" in="SourceGraphic" in2="effect2_dropShadow" result="shape"/>
        </filter>
        <filter id="filter3_bd" x="109.447" y="153.045" width="117.247" height="77.7238" filterUnits="userSpaceOnUse" color-interpolation-filters="sRGB">
            <feFlood flood-opacity="0" result="BackgroundImageFix"/>
            <feGaussianBlur in="BackgroundImage" stdDeviation="7.5"/>
            <feComposite in2="SourceAlpha" operator="in" result="effect1_backgroundBlur"/>
            <feColorMatrix in="SourceAlpha" type="matrix" values="0 0 0 0 0 0 0 0 0 0 0 0 0 0 0 0 0 0 127 0" result="hardAlpha"/>
            <feOffset dx="5" dy="5"/>
            <feGaussianBlur stdDeviation="5"/>
            <feColorMatrix type="matrix" values="0 0 0 0 0.619608 0 0 0 0 0.419608 0 0 0 0 0.882353 0 0 0 0.5 0"/>
            <feBlend mode="normal" in2="effect1_backgroundBlur" result="effect2_dropShadow"/>
            <feBlend mode="normal" in="SourceGraphic" in2="effect2_dropShadow" result="shape"/>
        </filter>
        <filter id="filter4_b" x="81.0159" y="115.62" width="170.768" height="43.597" filterUnits="userSpaceOnUse" color-interpolation-filters="sRGB">
            <feFlood flood-opacity="0" result="BackgroundImageFix"/>
            <feGaussianBlur in="BackgroundImage" stdDeviation="7.5"/>
            <feComposite in2="SourceAlpha" operator="in" result="effect1_backgroundBlur"/>
            <feBlend mode="normal" in="SourceGraphic" in2="effect1_backgroundBlur" result="shape"/>
        </filter>
        <linearGradient id="paint0_linear" x1="162.158" y1="55.2658" x2="93.238" y2="203.951" gradientUnits="userSpaceOnUse">
            <stop stop-color="#B983FE"/>
            <stop offset="0.244792" stop-color="#AC76F1"/>
            <stop offset="1" stop-color="#9A64E0"/>
        </linearGradient>
        <linearGradient id="paint1_linear" x1="113.368" y1="104.476" x2="219.532" y2="231.975" gradientUnits="userSpaceOnUse">
            <stop stop-color="white" stop-opacity="0.25"/>
            <stop offset="1" stop-color="white" stop-opacity="0"/>
        </linearGradient>
        <linearGradient id="paint2_linear" x1="202.957" y1="106.545" x2="205.356" y2="75.7344" gradientUnits="userSpaceOnUse">
            <stop stop-color="white"/>
            <stop offset="1" stop-color="white" stop-opacity="0.2"/>
        </linearGradient>
        <linearGradient id="paint3_linear" x1="200.775" y1="78.0916" x2="233.088" y2="90.1764" gradientUnits="userSpaceOnUse">
            <stop stop-color="white" stop-opacity="0.25"/>
            <stop offset="1" stop-color="white" stop-opacity="0"/>
        </linearGradient>
        <linearGradient id="paint4_linear" x1="205.508" y1="176.663" x2="58.3997" y2="166.998" gradientUnits="userSpaceOnUse">
            <stop stop-color="white"/>
            <stop offset="1" stop-color="white" stop-opacity="0.2"/>
        </linearGradient>
        <linearGradient id="paint5_linear" x1="138.335" y1="173.605" x2="161.353" y2="225.723" gradientUnits="userSpaceOnUse">
            <stop stop-color="white" stop-opacity="0.25"/>
            <stop offset="1" stop-color="white" stop-opacity="0"/>
        </linearGradient>
        <linearGradient id="paint6_linear" x1="134.01" y1="137.227" x2="128.936" y2="121.382" gradientUnits="userSpaceOnUse">
            <stop stop-color="white"/>
            <stop offset="1" stop-color="white" stop-opacity="0.2"/>
        </linearGradient>
    </defs>
</svg>
