<?xml version="1.0" encoding="UTF-8"?>
<svg width="245px" height="260px" viewBox="0 0 245 260" version="1.1" xmlns="http://www.w3.org/2000/svg" xmlns:xlink="http://www.w3.org/1999/xlink">
    <!-- Generator: Sketch 52.2 (67145) - http://www.bohemiancoding.com/sketch -->
    <title>Artboard</title>
    <desc>Created with Sketch.</desc>
    <defs>
        <linearGradient x1="65.5670413%" y1="9.10502808%" x2="28.6028092%" y2="87.9505878%" id="linearGradient-1">
            <stop stop-color="#B983FE" offset="0%"></stop>
            <stop stop-color="#AC76F1" offset="24.4792%"></stop>
            <stop stop-color="#9A64E0" offset="100%"></stop>
        </linearGradient>
        <rect id="path-2" x="0.833" y="0.2031" width="163" height="168"></rect>
        <linearGradient x1="16.3382797%" y1="12.1084359%" x2="81.7061757%" y2="88.2600212%" id="linearGradient-4">
            <stop stop-color="#FFFFFF" stop-opacity="0.25" offset="0%"></stop>
            <stop stop-color="#FFFFFF" stop-opacity="0" offset="100%"></stop>
        </linearGradient>
        <path d="M3.2464,33.734 C2.4188,37.086 1.9786,47.497 1.8642,52.744 L162.213,52.744 C162.098,47.489 161.658,36.996 160.839,33.734 C156.613,15.0557 142.087,2.9995 121.749,1.2031 L42.337,1.2031 C21.823,2.9101 7.4724,14.8859 3.2464,33.734 Z M1.833,52.745 L1.833,120.784 C1.833,149.025 19.617,166.631 47.526,166.631 L116.462,166.631 C144.635,166.631 162.243,149.383 162.243,121.329 L162.243,52.745 L1.833,52.745 Z M38.458,91.658 C38.634,95.76 41.98,98.986 46.03,98.798 C49.991,98.629 53.161,95.232 52.985,91.112 C52.897,87.1 49.639,83.963 45.677,83.963 C41.628,84.15 38.458,87.546 38.458,91.658 Z M74.642,91.658 C74.818,95.76 78.164,98.986 82.214,98.798 C86.175,98.629 89.345,95.232 89.169,91.112 C89.081,87.1 85.823,83.963 81.861,83.963 C77.812,84.15 74.642,87.546 74.642,91.658 Z M110.829,124.09 C110.829,128.201 114.086,131.597 118.136,131.686 C122.274,131.686 125.62,128.29 125.62,124.09 C125.62,119.898 122.274,116.502 118.136,116.502 L118.048,116.502 C113.998,116.592 110.741,119.979 110.829,124.09 Z M82.214,131.24 C78.164,131.428 74.818,128.202 74.642,124.091 C74.642,119.98 77.812,116.592 81.861,116.405 C85.823,116.405 89.081,119.542 89.169,123.563 C89.345,127.675 86.175,131.071 82.214,131.24 Z M45.941,131.24 C41.891,131.428 38.545,128.202 38.369,124.091 C38.369,119.98 41.539,116.592 45.589,116.405 C49.55,116.405 52.808,119.542 52.896,123.563 C53.072,127.675 49.903,131.071 45.941,131.24 Z M118.135,84.061 C114.085,84.151 110.916,87.457 110.916,91.568 L110.916,91.658 C111.004,95.76 114.35,98.888 118.399,98.799 C122.361,98.718 125.531,95.322 125.443,91.211 C125.267,87.27 122.097,84.061 118.135,84.061 Z" id="path-5"></path>
        <linearGradient x1="93.9709123%" y1="84.4816112%" x2="96.9917522%" y2="9.3746572%" id="linearGradient-7">
            <stop stop-color="#FFFFFF" offset="0%"></stop>
            <stop stop-color="#FFFFFF" stop-opacity="0.2" offset="100%"></stop>
        </linearGradient>
        <path d="M79.745,35.029 C79.745,38.97 76.752,41.91 72.966,41.91 C69.092,41.91 66.187,38.97 66.187,35.029 L66.187,7.7792 C66.187,3.8379 69.092,0.8887 72.966,0.8887 C76.752,0.8887 79.745,3.8379 79.745,7.7792 L79.745,35.029 Z M13.888,35.03 C13.888,38.971 10.983,41.911 7.109,41.911 C3.235,41.911 0.33,38.971 0.33,35.03 L0.33,7.7805 C0.33,3.8392 3.235,0.89 7.109,0.89 C10.983,0.89 13.888,3.8392 13.888,7.7805 L13.888,35.03 Z" id="path-8"></path>
        <linearGradient x1="90.8121922%" y1="15.7879887%" x2="131.095182%" y2="44.6835779%" id="linearGradient-10">
            <stop stop-color="#FFFFFF" stop-opacity="0.25" offset="0%"></stop>
            <stop stop-color="#FFFFFF" stop-opacity="0" offset="100%"></stop>
        </linearGradient>
        <linearGradient x1="92.9097849%" y1="18.0580002%" x2="-75.7015141%" y2="-2.19386472%" id="linearGradient-11">
            <stop stop-color="#FFFFFF" offset="0%"></stop>
            <stop stop-color="#FFFFFF" stop-opacity="0.2" offset="100%"></stop>
        </linearGradient>
        <path d="M36.719,7.74 C36.895,11.842 40.241,15.068 44.291,14.881 C48.253,14.711 51.422,11.315 51.246,7.195 C51.158,3.182 47.901,0.045 43.939,0.045 C39.889,0.233 36.719,3.629 36.719,7.74 Z M72.903,40.172 C72.903,44.283 76.16,47.679 80.21,47.769 C84.348,47.769 87.694,44.373 87.694,40.172 C87.694,35.981 84.348,32.585 80.21,32.585 L80.122,32.585 C76.072,32.674 72.815,36.061 72.903,40.172 Z M44.291,47.323 C40.241,47.51 36.895,44.284 36.719,40.173 C36.719,36.062 39.889,32.675 43.939,32.487 C47.901,32.487 51.158,35.624 51.246,39.646 C51.422,43.757 48.253,47.153 44.291,47.323 Z M0.537,7.74 C0.713,11.842 4.058,15.069 8.108,14.881 C12.07,14.711 15.239,11.315 15.063,7.195 C14.975,3.182 11.718,0.045 7.756,0.045 C3.706,0.233 0.537,3.629 0.537,7.74 Z M8.018,47.323 C3.968,47.51 0.623,44.284 0.447,40.173 C0.447,36.062 3.616,32.675 7.666,32.487 C11.628,32.487 14.885,35.624 14.973,39.646 C15.149,43.757 11.98,47.153 8.018,47.323 Z M80.21,0.142 C76.161,0.232 72.991,3.538 72.991,7.65 L72.991,7.739 C73.079,11.841 76.425,14.969 80.475,14.88 C84.436,14.799 87.606,11.403 87.518,7.292 C87.342,3.351 84.172,0.142 80.21,0.142 Z" id="path-12"></path>
        <linearGradient x1="16.2276966%" y1="12.2825818%" x2="42.3705521%" y2="119.689226%" id="linearGradient-14">
            <stop stop-color="#FFFFFF" stop-opacity="0.25" offset="0%"></stop>
            <stop stop-color="#FFFFFF" stop-opacity="0" offset="100%"></stop>
        </linearGradient>
        <linearGradient x1="26.9905611%" y1="48.5916011%" x2="23.3860512%" y2="-67.9414577%" id="linearGradient-15">
            <stop stop-color="#FFFFFF" offset="0%"></stop>
            <stop stop-color="#FFFFFF" stop-opacity="0.2" offset="100%"></stop>
        </linearGradient>
    </defs>
    <g id="Artboard" stroke="none" stroke-width="1" fill="none" fill-rule="evenodd">
        <rect fill="#FFFFFF" opacity="0" x="0" y="0" width="245" height="260"></rect>
        <g id="Group-427318488">
            <path d="M186.795,67.4941 C187.149,66.8861 188.027,66.8861 188.382,67.4941 L189.696,69.7499 C189.739,69.8241 189.811,69.8768 189.895,69.895 L192.447,70.4475 C193.134,70.5964 193.406,71.4317 192.937,71.9563 L191.197,73.903 C191.14,73.9671 191.113,74.0523 191.121,74.1377 L191.384,76.7351 C191.455,77.435 190.744,77.9513 190.101,77.6676 L187.712,76.6149 C187.633,76.5802 187.544,76.5802 187.465,76.6149 L185.076,77.6676 C184.432,77.9513 183.722,77.435 183.792,76.7351 L184.055,74.1377 C184.064,74.0523 184.036,73.9671 183.979,73.903 L182.24,71.9563 C181.771,71.4317 182.042,70.5964 182.73,70.4475 L185.281,69.895 C185.365,69.8768 185.438,69.8241 185.481,69.7499 L186.795,67.4941 Z M187.853,67.8021 C187.735,67.5994 187.442,67.5994 187.324,67.8021 L186.01,70.0579 C185.88,70.2806 185.663,70.4386 185.411,70.4931 L182.86,71.0456 C182.63,71.0952 182.54,71.3737 182.696,71.5486 L184.436,73.4953 C184.607,73.6874 184.69,73.943 184.664,74.1994 L184.401,76.7967 C184.378,77.03 184.615,77.2021 184.829,77.1075 L187.218,76.0548 C187.454,75.9509 187.723,75.9509 187.959,76.0548 L190.347,77.1075 C190.562,77.2021 190.799,77.03 190.775,76.7967 L190.512,74.1994 C190.486,73.943 190.569,73.6874 190.741,73.4953 L192.481,71.5486 C192.637,71.3737 192.546,71.0952 192.317,71.0456 L189.766,70.4931 C189.514,70.4386 189.296,70.2806 189.167,70.0579 L187.853,67.8021 Z" id="Shape" fill="#B9C0DE"></path>
            <path d="M47.151,17.7881 C47.35,18.4629 46.7471,19.1016 46.0619,18.9418 L40.457,17.6341 C40.3733,17.6146 40.2853,17.6311 40.2145,17.6797 L35.4673,20.9339 C34.887,21.3317 34.0933,20.9556 34.0336,20.2546 L33.5452,14.5199 C33.5379,14.4343 33.495,14.3557 33.4269,14.3034 L28.865,10.7941 C28.3074,10.3652 28.4198,9.4941 29.068,9.2207 L34.3711,6.9841 C34.4503,6.9507 34.5117,6.8856 34.5405,6.8046 L36.4683,1.3817 C36.704,0.7187 37.5671,0.5564 38.0275,1.0885 L41.7933,5.4409 C41.8495,5.5058 41.9305,5.5442 42.0164,5.5465 L47.7696,5.7042 C48.4729,5.7234 48.894,6.4942 48.5303,7.0964 L45.5546,12.0229 C45.5102,12.0965 45.4987,12.1853 45.523,12.2677 L47.151,17.7881 Z M46.2009,18.3458 C46.4293,18.399 46.6303,18.1862 46.564,17.9612 L44.936,12.4408 C44.8631,12.1936 44.8975,11.9271 45.0308,11.7065 L48.0064,6.78 C48.1277,6.5793 47.9873,6.3224 47.7529,6.3159 L41.9996,6.1583 C41.742,6.1513 41.4992,6.0362 41.3305,5.8413 L37.5647,1.4889 C37.4112,1.3116 37.1235,1.3657 37.0449,1.5867 L35.1172,7.0096 C35.0308,7.2525 34.8464,7.4478 34.6089,7.548 L29.3059,9.7846 C29.0898,9.8757 29.0523,10.1661 29.2382,10.3091 L33.8,13.8183 C34.0043,13.9754 34.1331,14.2112 34.155,14.468 L34.6434,20.2027 C34.6633,20.4363 34.9278,20.5617 35.1213,20.4291 L39.8684,17.1749 C40.081,17.0292 40.345,16.9796 40.596,17.0381 L46.2009,18.3458 Z" id="Shape" fill="#B9C0DE" opacity="0.796364"></path>
            <path d="M30.9988,213.335 C31.6822,213.502 31.9314,214.344 31.4488,214.856 L28.61,217.868 C28.5511,217.931 28.5212,218.015 28.5276,218.101 L28.8351,222.228 C28.8873,222.93 28.1633,223.427 27.5273,223.127 L23.7853,221.358 C23.7076,221.321 23.6181,221.318 23.5386,221.351 L19.7079,222.919 C19.0568,223.185 18.3602,222.651 18.4496,221.953 L18.9758,217.847 C18.9867,217.762 18.9613,217.676 18.9058,217.61 L16.2308,214.452 C15.7761,213.915 16.0696,213.087 16.761,212.957 L20.8281,212.188 C20.9125,212.172 20.9864,212.122 21.0315,212.049 L23.209,208.529 C23.5791,207.93 24.4571,207.953 24.7949,208.571 L26.7824,212.201 C26.8237,212.277 26.8947,212.331 26.9782,212.352 L30.9988,213.335 Z M31.0035,214.436 C31.1643,214.266 31.0813,213.985 30.8535,213.929 L26.8328,212.946 C26.5825,212.885 26.3694,212.721 26.2456,212.495 L24.2581,208.864 C24.1455,208.659 23.8528,208.651 23.7294,208.85 L21.552,212.371 C21.4164,212.59 21.195,212.742 20.9417,212.79 L16.8746,213.558 C16.6441,213.601 16.5463,213.877 16.6978,214.056 L19.3728,217.215 C19.5393,217.412 19.6156,217.669 19.5828,217.925 L19.0567,222.03 C19.0269,222.263 19.2591,222.441 19.4761,222.353 L23.3067,220.785 C23.5452,220.687 23.8138,220.694 24.0468,220.804 L27.7888,222.573 C28.0008,222.674 28.2422,222.508 28.2248,222.274 L27.9173,218.146 C27.8981,217.889 27.9879,217.636 28.1647,217.448 L31.0035,214.436 Z" id="Shape" fill="#B9C0DE" opacity="0.73011"></path>
            <path d="M244.332,139.693 C244.641,140.046 244.456,140.601 243.996,140.696 L238.361,141.865 C238.192,141.9 238.047,142.004 237.959,142.151 L235.018,147.099 C234.779,147.502 234.193,147.497 233.961,147.09 L231.108,142.091 C231.023,141.942 230.879,141.835 230.711,141.797 L225.097,140.53 C224.64,140.426 224.464,139.868 224.779,139.521 L228.652,135.263 C228.767,135.136 228.824,134.966 228.808,134.795 L228.279,129.064 C228.236,128.597 228.713,128.257 229.14,128.45 L234.386,130.817 C234.543,130.888 234.722,130.889 234.88,130.821 L240.167,128.547 C240.598,128.362 241.068,128.71 241.017,129.176 L240.387,134.897 C240.368,135.068 240.422,135.239 240.535,135.368 L244.332,139.693 Z" id="Path" fill="#B9C0DE" opacity="0.902331"></path>
            <path d="M5.3712,87.723 C5.5126,87.276 6.0839,87.148 6.4031,87.491 L8.7345,90.001 C8.8514,90.126 9.0159,90.197 9.1877,90.196 L12.6127,90.169 C13.0817,90.165 13.3804,90.668 13.1523,91.078 L11.4863,94.071 C11.4028,94.221 11.3861,94.399 11.4405,94.562 L12.525,97.811 C12.6735,98.256 12.2869,98.696 11.8266,98.605 L8.4656,97.946 C8.297,97.913 8.1223,97.952 7.9841,98.054 L5.2293,100.089 C4.8521,100.368 4.3144,100.136 4.2581,99.671 L3.8469,96.27 C3.8262,96.1 3.7349,95.946 3.5951,95.846 L0.8081,93.855 C0.4264,93.582 0.4807,92.999 0.9062,92.802 L4.013,91.36 C4.1689,91.288 4.2871,91.153 4.3389,90.989 L5.3712,87.723 Z" id="Path" fill="#B9C0DE" opacity="0.370759"></path>
            <path d="M41.2372,152.124 C41.0012,152.529 40.4156,152.529 40.1796,152.124 L37.2827,147.151 C37.1962,147.002 37.0513,146.897 36.8834,146.861 L31.2583,145.643 C30.7999,145.544 30.6189,144.987 30.9314,144.637 L34.7661,140.345 C34.8806,140.217 34.9359,140.047 34.9186,139.876 L34.3387,134.149 C34.2914,133.683 34.7651,133.339 35.1943,133.528 L40.4611,135.848 C40.6184,135.918 40.7975,135.918 40.9547,135.848 L46.2214,133.527 C46.6506,133.338 47.1243,133.682 47.0771,134.149 L46.4975,139.875 C46.4802,140.046 46.5355,140.217 46.65,140.345 L50.4849,144.636 C50.7975,144.986 50.6165,145.543 50.1581,145.642 L44.5331,146.86 C44.3652,146.897 44.2203,147.002 44.1338,147.151 L41.2372,152.124 Z" id="Path" fill="#B9C0DE" opacity="0.806242"></path>
            <path d="M150.013,17.7267 C149.548,17.7842 149.193,17.3183 149.373,16.885 L151.577,11.5681 C151.642,11.4094 151.639,11.2303 151.566,11.0747 L149.129,5.8606 C148.93,5.4357 149.264,4.9545 149.731,4.9914 L155.469,5.4443 C155.64,5.4578 155.809,5.3987 155.935,5.2814 L160.141,1.3525 C160.484,1.0323 161.044,1.2009 161.154,1.657 L162.496,7.2537 C162.536,7.4208 162.645,7.5633 162.795,7.6465 L167.831,10.4324 C168.242,10.6594 168.255,11.2448 167.855,11.4898 L162.947,14.4959 C162.8,14.5856 162.698,14.7328 162.665,14.9015 L161.572,20.5522 C161.483,21.0127 160.93,21.2059 160.574,20.9012 L156.198,17.1624 C156.067,17.0507 155.896,16.9992 155.725,17.0203 L150.013,17.7267 Z" id="Path" fill="#B9C0DE" opacity="0.547916"></path>
            <path d="M153.806,259.449 C153.603,259.872 153.019,259.919 152.752,259.533 L149.468,254.806 C149.37,254.665 149.218,254.572 149.047,254.549 L143.343,253.782 C142.878,253.72 142.654,253.179 142.937,252.806 L146.418,248.222 C146.522,248.086 146.564,247.911 146.533,247.742 L145.5,242.08 C145.415,241.619 145.86,241.238 146.303,241.393 L151.738,243.287 C151.9,243.344 152.079,243.329 152.23,243.248 L157.295,240.515 C157.708,240.292 158.207,240.598 158.197,241.067 L158.075,246.821 C158.072,246.993 158.14,247.158 158.265,247.277 L162.429,251.25 C162.768,251.573 162.632,252.143 162.183,252.278 L156.673,253.94 C156.508,253.99 156.372,254.106 156.298,254.261 L153.806,259.449 Z" id="Path" fill="#B9C0DE" opacity="0.392959"></path>
            <path d="M51.5838,32.1179 C49.59,34.752 45.4006,43.7971 43.3908,48.3981 L194.269,113.255 C196.066,108.554 199.456,99.081 199.869,95.86 C202.665,77.6048 193.368,61.0491 174.883,51.2318 L100.16,19.1113 C80.24,12.3262 62.3943,17.1304 51.5838,32.1179 Z M17.7496,111.677 L42.2296,51.0399 L193.105,116.791 L168.429,177.914 C158.335,202.916 135.568,211.071 109.069,199.523 L44.2309,171.266 C17.9809,159.827 7.5884,136.846 17.7496,111.677 Z" id="Shape" fill="url(#linearGradient-1)"></path>
            <g id="Group" opacity="0.5" transform="translate(43.000000, 44.000000)" fill="#9A64E0">
                <path d="M99.993,19.6786 L58.981,3.0775 C44.105,-2.9442 31.623,3.0411 25.0775,19.3042 L2.9083,74.386 C-3.7446,90.915 1.1827,103.699 16.0589,109.721 L57.071,126.322 C72.187,132.441 84.338,126.57 90.991,110.04 L113.16,54.959 C119.706,38.696 115.109,25.7973 99.993,19.6786 Z" id="Path"></path>
            </g>
            <g id="Group" transform="translate(60.000000, 62.000000)">
                <path d="M3.2464,33.734 C2.4188,37.086 1.9786,47.497 1.8642,52.744 L162.213,52.744 C162.098,47.489 161.658,36.996 160.839,33.734 C156.613,15.0557 142.087,2.9995 121.749,1.2031 L42.337,1.2031 C21.823,2.9101 7.4724,14.8859 3.2464,33.734 Z M1.833,52.745 L1.833,120.784 C1.833,149.025 19.617,166.631 47.526,166.631 L116.462,166.631 C144.635,166.631 162.243,149.383 162.243,121.329 L162.243,52.745 L1.833,52.745 Z M38.458,91.658 C38.634,95.76 41.98,98.986 46.03,98.798 C49.991,98.629 53.161,95.232 52.985,91.112 C52.897,87.1 49.639,83.963 45.677,83.963 C41.628,84.15 38.458,87.546 38.458,91.658 Z M74.642,91.658 C74.818,95.76 78.164,98.986 82.214,98.798 C86.175,98.629 89.345,95.232 89.169,91.112 C89.081,87.1 85.823,83.963 81.861,83.963 C77.812,84.15 74.642,87.546 74.642,91.658 Z M110.829,124.09 C110.829,128.201 114.086,131.597 118.136,131.686 C122.274,131.686 125.62,128.29 125.62,124.09 C125.62,119.898 122.274,116.502 118.136,116.502 L118.048,116.502 C113.998,116.592 110.741,119.979 110.829,124.09 Z M82.214,131.24 C78.164,131.428 74.818,128.202 74.642,124.091 C74.642,119.98 77.812,116.592 81.861,116.405 C85.823,116.405 89.081,119.542 89.169,123.563 C89.345,127.675 86.175,131.071 82.214,131.24 Z M45.941,131.24 C41.891,131.428 38.545,128.202 38.369,124.091 C38.369,119.98 41.539,116.592 45.589,116.405 C49.55,116.405 52.808,119.542 52.896,123.563 C53.072,127.675 49.903,131.071 45.941,131.24 Z M118.135,84.061 C114.085,84.151 110.916,87.457 110.916,91.568 L110.916,91.658 C111.004,95.76 114.35,98.888 118.399,98.799 C122.361,98.718 125.531,95.322 125.443,91.211 C125.267,87.27 122.097,84.061 118.135,84.061 Z" id="Shape" fill-opacity="0.3" fill="#D9E0FF"></path>
                <g id="Clipped">
                    <mask id="mask-3" fill="white">
                        <use xlink:href="#path-2"></use>
                    </mask>
                    <g id="Rectangle"></g>
                    <path d="M1.8642,52.744 L0.8644,52.722 C0.8586,52.991 0.9613,53.251 1.1494,53.443 C1.3375,53.635 1.5952,53.744 1.8642,53.744 L1.8642,52.744 Z M3.2464,33.734 L4.2173,33.974 C4.219,33.967 4.2206,33.96 4.2222,33.953 L3.2464,33.734 Z M162.213,52.744 L162.213,53.744 C162.482,53.744 162.739,53.635 162.928,53.443 C163.116,53.251 163.218,52.991 163.213,52.722 L162.213,52.744 Z M160.839,33.734 L159.864,33.955 C159.866,33.963 159.868,33.97 159.869,33.978 L160.839,33.734 Z M121.749,1.2031 L121.837,0.207 C121.808,0.2044 121.779,0.2031 121.749,0.2031 L121.749,1.2031 Z M42.337,1.2031 L42.337,0.2031 C42.309,0.2031 42.281,0.2043 42.254,0.2066 L42.337,1.2031 Z M1.833,52.745 L1.833,51.745 C1.2807,51.745 0.833,52.193 0.833,52.745 L1.833,52.745 Z M162.243,52.745 L163.243,52.745 C163.243,52.193 162.796,51.745 162.243,51.745 L162.243,52.745 Z M46.03,98.798 L45.987,97.799 L45.983,97.799 L46.03,98.798 Z M38.458,91.658 L37.458,91.658 C37.458,91.672 37.458,91.686 37.459,91.7 L38.458,91.658 Z M52.985,91.112 L51.985,91.134 C51.985,91.141 51.985,91.148 51.986,91.155 L52.985,91.112 Z M45.677,83.963 L45.677,82.963 C45.662,82.963 45.647,82.963 45.631,82.964 L45.677,83.963 Z M82.214,98.798 L82.171,97.799 L82.167,97.799 L82.214,98.798 Z M74.642,91.658 L73.642,91.658 C73.642,91.672 73.642,91.686 73.643,91.7 L74.642,91.658 Z M89.169,91.112 L88.169,91.134 C88.169,91.141 88.169,91.148 88.17,91.155 L89.169,91.112 Z M81.861,83.963 L81.861,82.963 C81.846,82.963 81.831,82.963 81.815,82.964 L81.861,83.963 Z M118.136,131.686 L118.114,132.686 C118.121,132.686 118.129,132.686 118.136,132.686 L118.136,131.686 Z M110.829,124.09 L111.829,124.09 C111.829,124.083 111.829,124.076 111.829,124.069 L110.829,124.09 Z M118.048,116.502 L118.048,115.502 C118.041,115.502 118.033,115.502 118.026,115.503 L118.048,116.502 Z M74.642,124.091 L73.642,124.091 C73.642,124.105 73.642,124.119 73.643,124.134 L74.642,124.091 Z M82.214,131.24 L82.171,130.241 L82.167,130.242 L82.214,131.24 Z M81.861,116.405 L81.861,115.405 C81.846,115.405 81.831,115.405 81.815,115.406 L81.861,116.405 Z M89.169,123.563 L88.169,123.585 C88.169,123.592 88.169,123.599 88.17,123.606 L89.169,123.563 Z M38.369,124.091 L37.369,124.091 C37.369,124.105 37.37,124.119 37.37,124.134 L38.369,124.091 Z M45.941,131.24 L45.898,130.241 L45.894,130.242 L45.941,131.24 Z M45.589,116.405 L45.589,115.405 C45.573,115.405 45.558,115.405 45.542,115.406 L45.589,116.405 Z M52.896,123.563 L51.896,123.585 C51.896,123.592 51.897,123.599 51.897,123.606 L52.896,123.563 Z M118.135,84.061 L118.135,83.061 C118.128,83.061 118.121,83.061 118.113,83.061 L118.135,84.061 Z M110.916,91.658 L109.916,91.658 C109.916,91.665 109.916,91.672 109.916,91.679 L110.916,91.658 Z M118.399,98.799 L118.379,97.799 L118.377,97.799 L118.399,98.799 Z M125.443,91.211 L126.442,91.19 C126.442,91.182 126.442,91.174 126.442,91.166 L125.443,91.211 Z M2.8639,52.765 C2.9209,50.153 3.0591,46.252 3.286,42.59 C3.5151,38.891 3.8292,35.546 4.2173,33.974 L2.2756,33.495 C1.8361,35.274 1.5163,38.81 1.2898,42.467 C1.061,46.16 0.9219,50.088 0.8644,52.722 L2.8639,52.765 Z M162.213,51.744 L1.8642,51.744 L1.8642,53.744 L162.213,53.744 L162.213,51.744 Z M159.869,33.978 C160.252,35.502 160.564,38.841 160.792,42.553 C161.018,46.225 161.156,50.148 161.213,52.765 L163.213,52.722 C163.155,50.084 163.016,46.134 162.788,42.43 C162.563,38.766 162.246,35.229 161.809,33.491 L159.869,33.978 Z M121.661,2.1992 C141.607,3.961 155.743,15.7389 159.864,33.955 L161.815,33.514 C157.484,14.3724 142.567,2.038 121.837,0.207 L121.661,2.1992 Z M42.337,2.2031 L121.749,2.2031 L121.749,0.2031 L42.337,0.2031 L42.337,2.2031 Z M4.2222,33.953 C8.3446,15.5665 22.304,3.8735 42.419,2.1997 L42.254,0.2066 C21.342,1.9467 6.6001,14.2053 2.2706,33.516 L4.2222,33.953 Z M2.833,120.784 L2.833,52.745 L0.833,52.745 L0.833,120.784 L2.833,120.784 Z M47.526,165.631 C33.785,165.631 22.634,161.301 14.921,153.591 C7.2077,145.881 2.833,134.692 2.833,120.784 L0.833,120.784 C0.833,135.118 5.3505,146.852 13.5068,155.005 C21.663,163.158 33.359,167.631 47.526,167.631 L47.526,165.631 Z M116.462,165.631 L47.526,165.631 L47.526,167.631 L116.462,167.631 L116.462,165.631 Z M161.243,121.329 C161.243,135.143 156.913,146.193 149.215,153.789 C141.516,161.386 130.344,165.631 116.462,165.631 L116.462,167.631 C130.754,167.631 142.472,163.253 150.62,155.212 C158.77,147.17 163.243,135.568 163.243,121.329 L161.243,121.329 Z M161.243,52.745 L161.243,121.329 L163.243,121.329 L163.243,52.745 L161.243,52.745 Z M1.833,53.745 L162.243,53.745 L162.243,51.745 L1.833,51.745 L1.833,53.745 Z M45.983,97.799 C42.522,97.96 39.611,95.199 39.457,91.615 L37.459,91.7 C37.657,96.32 41.438,100.012 46.076,99.797 L45.983,97.799 Z M51.986,91.155 C52.138,94.728 49.393,97.653 45.987,97.799 L46.072,99.797 C50.59,99.604 54.183,95.737 53.984,91.07 L51.986,91.155 Z M45.677,84.963 C49.1,84.963 51.909,87.67 51.985,91.134 L53.985,91.09 C53.885,86.53 50.179,82.963 45.677,82.963 L45.677,84.963 Z M39.458,91.658 C39.458,88.063 42.225,85.124 45.724,84.962 L45.631,82.964 C41.03,83.177 37.458,87.03 37.458,91.658 L39.458,91.658 Z M82.167,97.799 C78.706,97.96 75.795,95.199 75.641,91.615 L73.643,91.7 C73.841,96.32 77.622,100.012 82.26,99.797 L82.167,97.799 Z M88.17,91.155 C88.322,94.728 85.576,97.653 82.171,97.799 L82.256,99.797 C86.774,99.604 90.367,95.737 90.168,91.07 L88.17,91.155 Z M81.861,84.963 C85.284,84.963 88.093,87.67 88.169,91.134 L90.169,91.09 C90.069,86.53 86.363,82.963 81.861,82.963 L81.861,84.963 Z M75.642,91.658 C75.642,88.063 78.409,85.124 81.908,84.962 L81.815,82.964 C77.214,83.177 73.642,87.03 73.642,91.658 L75.642,91.658 Z M118.158,130.687 C114.668,130.61 111.829,127.674 111.829,124.09 L109.829,124.09 C109.829,128.728 113.504,132.585 118.114,132.686 L118.158,130.687 Z M124.62,124.09 C124.62,127.752 121.708,130.686 118.136,130.686 L118.136,132.686 C122.84,132.686 126.62,128.828 126.62,124.09 L124.62,124.09 Z M118.136,117.502 C121.708,117.502 124.62,120.437 124.62,124.09 L126.62,124.09 C126.62,119.36 122.84,115.502 118.136,115.502 L118.136,117.502 Z M118.048,117.502 L118.136,117.502 L118.136,115.502 L118.048,115.502 L118.048,117.502 Z M111.829,124.069 C111.752,120.507 114.575,117.579 118.07,117.502 L118.026,115.503 C113.422,115.604 109.729,119.451 109.829,124.111 L111.829,124.069 Z M73.643,124.134 C73.841,128.761 77.621,132.454 82.26,132.239 L82.167,130.242 C78.706,130.402 75.795,127.642 75.641,124.048 L73.643,124.134 Z M81.815,115.406 C77.216,115.619 73.642,119.462 73.642,124.091 L75.642,124.091 C75.642,120.498 78.408,117.566 81.908,117.404 L81.815,115.406 Z M90.169,123.542 C90.069,118.973 86.363,115.405 81.861,115.405 L81.861,117.405 C85.283,117.405 88.093,120.111 88.169,123.585 L90.169,123.542 Z M82.256,132.24 C86.774,132.046 90.367,128.18 90.168,123.521 L88.17,123.606 C88.322,127.169 85.577,130.095 82.171,130.241 L82.256,132.24 Z M37.37,124.134 C37.568,128.761 41.348,132.454 45.987,132.239 L45.894,130.242 C42.433,130.402 39.522,127.642 39.368,124.048 L37.37,124.134 Z M45.542,115.406 C40.943,115.619 37.369,119.462 37.369,124.091 L39.369,124.091 C39.369,120.498 42.135,117.566 45.635,117.404 L45.542,115.406 Z M53.896,123.542 C53.796,118.973 50.091,115.405 45.589,115.405 L45.589,117.405 C49.01,117.405 51.82,120.111 51.896,123.585 L53.896,123.542 Z M45.984,132.24 C50.501,132.046 54.095,128.18 53.895,123.521 L51.897,123.606 C52.05,127.169 49.304,130.095 45.898,130.241 L45.984,132.24 Z M111.916,91.568 C111.916,87.984 114.668,85.138 118.157,85.061 L118.113,83.061 C113.503,83.163 109.916,86.931 109.916,91.568 L111.916,91.568 Z M111.916,91.658 L111.916,91.568 L109.916,91.568 L109.916,91.658 L111.916,91.658 Z M118.377,97.799 C114.871,97.876 111.992,95.177 111.916,91.636 L109.916,91.679 C110.016,96.343 113.828,99.9 118.421,99.798 L118.377,97.799 Z M124.443,91.232 C124.52,94.82 121.759,97.73 118.379,97.799 L118.42,99.798 C122.963,99.706 126.542,95.824 126.442,91.19 L124.443,91.232 Z M118.135,85.061 C121.532,85.061 124.29,87.818 124.444,91.256 L126.442,91.166 C126.243,86.722 122.662,83.061 118.135,83.061 L118.135,85.061 Z" id="Shape" fill="url(#linearGradient-4)" fill-rule="nonzero" mask="url(#mask-3)"></path>
                    <mask id="mask-6" fill="white">
                        <use xlink:href="#path-5"></use>
                    </mask>
                    <g id="Shape"></g>
                </g>
            </g>
            <g id="Group" transform="translate(102.000000, 49.000000)">
                <path d="M79.745,35.029 C79.745,38.97 76.752,41.91 72.966,41.91 C69.092,41.91 66.187,38.97 66.187,35.029 L66.187,7.7792 C66.187,3.8379 69.092,0.8887 72.966,0.8887 C76.752,0.8887 79.745,3.8379 79.745,7.7792 L79.745,35.029 Z M13.888,35.03 C13.888,38.971 10.983,41.911 7.109,41.911 C3.235,41.911 0.33,38.971 0.33,35.03 L0.33,7.7805 C0.33,3.8392 3.235,0.89 7.109,0.89 C10.983,0.89 13.888,3.8392 13.888,7.7805 L13.888,35.03 Z" id="Shape" fill="url(#linearGradient-7)"></path>
                <g id="Clipped">
                    <mask id="mask-9" fill="white">
                        <use xlink:href="#path-8"></use>
                    </mask>
                    <g id="Shape"></g>
                    <path d="M72.966,42.31 C76.975,42.31 80.145,39.189 80.145,35.029 L79.345,35.029 C79.345,38.751 76.529,41.51 72.966,41.51 L72.966,42.31 Z M65.787,35.029 C65.787,39.185 68.866,42.31 72.966,42.31 L72.966,41.51 C69.318,41.51 66.587,38.754 66.587,35.029 L65.787,35.029 Z M65.787,7.7792 L65.787,35.029 L66.587,35.029 L66.587,7.7792 L65.787,7.7792 Z M72.966,0.4887 C68.865,0.4887 65.787,3.623 65.787,7.7792 L66.587,7.7792 C66.587,4.0528 69.319,1.2887 72.966,1.2887 L72.966,0.4887 Z M80.145,7.7792 C80.145,3.6196 76.975,0.4887 72.966,0.4887 L72.966,1.2887 C76.528,1.2887 79.345,4.0562 79.345,7.7792 L80.145,7.7792 Z M80.145,35.029 L80.145,7.7792 L79.345,7.7792 L79.345,35.029 L80.145,35.029 Z M7.109,42.311 C11.209,42.311 14.288,39.187 14.288,35.03 L13.488,35.03 C13.488,38.756 10.757,41.511 7.109,41.511 L7.109,42.311 Z M-0.07,35.03 C-0.07,39.187 3.009,42.311 7.109,42.311 L7.109,41.511 C3.462,41.511 0.73,38.756 0.73,35.03 L-0.07,35.03 Z M-0.07,7.7805 L-0.07,35.03 L0.73,35.03 L0.73,7.7805 L-0.07,7.7805 Z M7.109,0.49 C3.009,0.49 -0.07,3.6243 -0.07,7.7805 L0.73,7.7805 C0.73,4.0541 3.462,1.29 7.109,1.29 L7.109,0.49 Z M14.288,7.7805 C14.288,3.6243 11.21,0.49 7.109,0.49 L7.109,1.29 C10.756,1.29 13.488,4.0541 13.488,7.7805 L14.288,7.7805 Z M14.288,35.03 L14.288,7.7805 L13.488,7.7805 L13.488,35.03 L14.288,35.03 Z" id="Shape" fill="url(#linearGradient-10)" fill-rule="nonzero" mask="url(#mask-9)"></path>
                </g>
            </g>
            <g id="Group" transform="translate(98.000000, 146.000000)">
                <path d="M36.719,7.74 C36.895,11.842 40.241,15.068 44.291,14.881 C48.253,14.711 51.422,11.315 51.246,7.195 C51.158,3.182 47.901,0.045 43.939,0.045 C39.889,0.233 36.719,3.629 36.719,7.74 Z M72.903,40.172 C72.903,44.283 76.16,47.679 80.21,47.769 C84.348,47.769 87.694,44.373 87.694,40.172 C87.694,35.981 84.348,32.585 80.21,32.585 L80.122,32.585 C76.072,32.674 72.815,36.061 72.903,40.172 Z M44.291,47.323 C40.241,47.51 36.895,44.284 36.719,40.173 C36.719,36.062 39.889,32.675 43.939,32.487 C47.901,32.487 51.158,35.624 51.246,39.646 C51.422,43.757 48.253,47.153 44.291,47.323 Z M0.537,7.74 C0.713,11.842 4.058,15.069 8.108,14.881 C12.07,14.711 15.239,11.315 15.063,7.195 C14.975,3.182 11.718,0.045 7.756,0.045 C3.706,0.233 0.537,3.629 0.537,7.74 Z M8.018,47.323 C3.968,47.51 0.623,44.284 0.447,40.173 C0.447,36.062 3.616,32.675 7.666,32.487 C11.628,32.487 14.885,35.624 14.973,39.646 C15.149,43.757 11.98,47.153 8.018,47.323 Z M80.21,0.142 C76.161,0.232 72.991,3.538 72.991,7.65 L72.991,7.739 C73.079,11.841 76.425,14.969 80.475,14.88 C84.436,14.799 87.606,11.403 87.518,7.292 C87.342,3.351 84.172,0.142 80.21,0.142 Z" id="Shape" fill="url(#linearGradient-11)"></path>
                <g id="Clipped">
                    <mask id="mask-13" fill="white">
                        <use xlink:href="#path-12"></use>
                    </mask>
                    <g id="Shape"></g>
                    <path d="M44.291,14.881 L44.274,14.481 L44.272,14.481 L44.291,14.881 Z M36.719,7.74 L36.319,7.74 L36.319,7.748 L36.32,7.757 L36.719,7.74 Z M51.246,7.195 L50.846,7.203 L50.846,7.212 L51.246,7.195 Z M43.939,0.045 L43.939,-0.355 L43.929,-0.355 L43.92,-0.355 L43.939,0.045 Z M80.21,47.769 L80.201,48.169 L80.21,48.169 L80.21,47.769 Z M72.903,40.172 L73.303,40.172 L73.303,40.164 L72.903,40.172 Z M80.122,32.585 L80.122,32.184 L80.113,32.185 L80.122,32.585 Z M36.719,40.173 L36.319,40.173 L36.319,40.182 L36.32,40.19 L36.719,40.173 Z M44.291,47.323 L44.274,46.923 L44.272,46.923 L44.291,47.323 Z M43.939,32.487 L43.939,32.087 L43.929,32.087 L43.92,32.087 L43.939,32.487 Z M51.246,39.646 L50.846,39.654 L50.846,39.663 L51.246,39.646 Z M8.108,14.881 L8.091,14.481 L8.089,14.482 L8.108,14.881 Z M0.537,7.74 L0.137,7.74 L0.137,7.749 L0.137,7.757 L0.537,7.74 Z M15.063,7.195 L14.663,7.204 L14.664,7.212 L15.063,7.195 Z M7.756,0.045 L7.756,-0.355 L7.747,-0.355 L7.737,-0.354 L7.756,0.045 Z M0.447,40.173 L0.047,40.173 L0.047,40.182 L0.047,40.19 L0.447,40.173 Z M8.018,47.323 L8.001,46.923 L8,46.923 L8.018,47.323 Z M7.666,32.487 L7.666,32.087 L7.657,32.087 L7.647,32.087 L7.666,32.487 Z M14.973,39.646 L14.573,39.654 L14.574,39.663 L14.973,39.646 Z M80.21,0.142 L80.21,-0.258 L80.202,-0.258 L80.21,0.142 Z M72.991,7.739 L72.591,7.739 L72.591,7.748 L72.991,7.739 Z M80.475,14.88 L80.466,14.48 L80.475,14.88 Z M87.518,7.292 L87.918,7.284 L87.917,7.274 L87.518,7.292 Z M44.272,14.481 C40.458,14.658 37.286,11.618 37.119,7.723 L36.32,7.757 C36.505,12.066 40.024,15.479 44.309,15.28 L44.272,14.481 Z M50.846,7.212 C51.013,11.113 48.013,14.321 44.274,14.481 L44.308,15.28 C48.492,15.101 51.831,11.517 51.646,7.178 L50.846,7.212 Z M43.939,0.445 C47.685,0.445 50.763,3.41 50.846,7.203 L51.646,7.186 C51.553,2.954 48.116,-0.355 43.939,-0.355 L43.939,0.445 Z M37.119,7.74 C37.119,3.835 40.128,0.622 43.957,0.444 L43.92,-0.355 C39.65,-0.157 36.319,3.422 36.319,7.74 L37.119,7.74 Z M80.219,47.369 C76.393,47.284 73.303,44.072 73.303,40.172 L72.503,40.172 C72.503,44.494 75.928,48.074 80.201,48.169 L80.219,47.369 Z M87.294,40.172 C87.294,44.157 84.122,47.369 80.21,47.369 L80.21,48.169 C84.575,48.169 88.094,44.588 88.094,40.172 L87.294,40.172 Z M80.21,32.985 C84.122,32.985 87.294,36.196 87.294,40.172 L88.094,40.172 C88.094,35.765 84.574,32.185 80.21,32.185 L80.21,32.985 Z M80.122,32.985 L80.21,32.985 L80.21,32.185 L80.122,32.185 L80.122,32.985 Z M73.303,40.164 C73.219,36.272 76.303,33.069 80.131,32.984 L80.113,32.185 C75.842,32.279 72.41,35.85 72.503,40.181 L73.303,40.164 Z M36.32,40.19 C36.505,44.508 40.024,47.921 44.309,47.722 L44.272,46.923 C40.458,47.1 37.286,44.06 37.119,40.156 L36.32,40.19 Z M43.92,32.087 C39.65,32.285 36.319,35.855 36.319,40.173 L37.119,40.173 C37.119,36.269 40.127,33.064 43.957,32.887 L43.92,32.087 Z M51.646,39.637 C51.553,35.396 48.117,32.087 43.939,32.087 L43.939,32.887 C47.684,32.887 50.763,35.852 50.846,39.654 L51.646,39.637 Z M44.308,47.722 C48.492,47.543 51.831,43.959 51.646,39.629 L50.846,39.663 C51.013,43.555 48.013,46.763 44.274,46.923 L44.308,47.722 Z M8.089,14.482 C4.275,14.658 1.103,11.618 0.936,7.723 L0.137,7.757 C0.322,12.067 3.841,15.479 8.127,15.281 L8.089,14.482 Z M14.664,7.212 C14.83,11.113 11.83,14.321 8.091,14.481 L8.125,15.281 C12.309,15.101 15.648,11.517 15.463,7.178 L14.664,7.212 Z M7.756,0.445 C11.502,0.445 14.58,3.41 14.663,7.204 L15.463,7.186 C15.37,2.954 11.933,-0.355 7.756,-0.355 L7.756,0.445 Z M0.937,7.74 C0.937,3.836 3.945,0.622 7.774,0.445 L7.737,-0.354 C3.467,-0.156 0.137,3.423 0.137,7.74 L0.937,7.74 Z M0.047,40.19 C0.232,44.508 3.751,47.921 8.037,47.722 L8,46.923 C4.185,47.1 1.013,44.06 0.846,40.156 L0.047,40.19 Z M7.647,32.087 C3.378,32.285 0.047,35.855 0.047,40.173 L0.847,40.173 C0.847,36.269 3.854,33.064 7.684,32.887 L7.647,32.087 Z M15.373,39.637 C15.28,35.396 11.844,32.087 7.666,32.087 L7.666,32.887 C11.412,32.887 14.49,35.852 14.573,39.654 L15.373,39.637 Z M8.035,47.722 C12.219,47.543 15.558,43.959 15.373,39.629 L14.574,39.663 C14.74,43.555 11.741,46.763 8.001,46.923 L8.035,47.722 Z M73.391,7.65 C73.391,3.749 76.393,0.627 80.219,0.542 L80.202,-0.258 C75.928,-0.163 72.591,3.328 72.591,7.65 L73.391,7.65 Z M73.391,7.739 L73.391,7.65 L72.591,7.65 L72.591,7.739 L73.391,7.739 Z M80.466,14.48 C76.633,14.564 73.474,11.608 73.391,7.73 L72.591,7.748 C72.684,12.074 76.216,15.374 80.483,15.28 L80.466,14.48 Z M87.118,7.301 C87.201,11.202 84.196,14.404 80.466,14.48 L80.483,15.28 C84.677,15.194 88.01,11.604 87.918,7.284 L87.118,7.301 Z M80.21,0.542 C83.946,0.542 86.951,3.57 87.118,7.31 L87.917,7.274 C87.732,3.132 84.398,-0.258 80.21,-0.258 L80.21,0.542 Z" id="Shape" fill="url(#linearGradient-14)" fill-rule="nonzero" mask="url(#mask-13)"></path>
                </g>
            </g>
            <g id="Group" opacity="0.5" transform="translate(70.000000, 108.000000)" fill="url(#linearGradient-15)" fill-opacity="0.5">
                <path d="M0.0159,7.419 C0.0159,11.215 2.9478,14.217 6.878,14.217 L133.913,14.217 C137.844,14.217 140.784,11.215 140.784,7.419 C140.784,3.534 137.844,0.62 133.913,0.62 L6.878,0.62 C2.9478,0.62 0.0159,3.534 0.0159,7.419 Z" id="Path"></path>
            </g>
        </g>
    </g>
</svg>