<svg width="180" height="180" viewBox="0 0 180 180" fill="none" xmlns="http://www.w3.org/2000/svg">
    <path fill-rule="evenodd" clip-rule="evenodd" d="M125.174 52.6435C125.382 52.2858 125.899 52.2858 126.107 52.6435L126.88 53.9704C126.905 54.0141 126.948 54.0451 126.997 54.0558L128.498 54.3808C128.903 54.4684 129.062 54.9597 128.787 55.2683L127.763 56.4135C127.73 56.4511 127.713 56.5012 127.719 56.5515L127.873 58.0794C127.915 58.4911 127.497 58.7948 127.118 58.6279L125.713 58.0087C125.667 57.9883 125.614 57.9883 125.568 58.0087L124.163 58.6279C123.784 58.7948 123.366 58.4911 123.408 58.0794L123.562 56.5515C123.567 56.5012 123.551 56.4511 123.517 56.4135L122.494 55.2683C122.218 54.9597 122.378 54.4684 122.783 54.3808L124.283 54.0558C124.333 54.0451 124.375 54.0141 124.401 53.9704L125.174 52.6435ZM125.796 52.8247C125.727 52.7054 125.554 52.7054 125.485 52.8247L124.712 54.1516C124.636 54.2826 124.508 54.3755 124.36 54.4076L122.859 54.7326C122.724 54.7618 122.671 54.9256 122.763 55.0285L123.786 56.1736C123.887 56.2866 123.936 56.4369 123.92 56.5878L123.766 58.1156C123.752 58.2529 123.891 58.3541 124.017 58.2985L125.423 57.6792C125.561 57.6181 125.719 57.6181 125.858 57.6792L127.263 58.2985C127.39 58.3541 127.529 58.2529 127.515 58.1156L127.36 56.5878C127.345 56.4369 127.394 56.2866 127.495 56.1736L128.518 55.0285C128.61 54.9256 128.557 54.7618 128.422 54.7326L126.921 54.4076C126.773 54.3755 126.645 54.2826 126.569 54.1516L125.796 52.8247Z" fill="#B9C0DE"/>
    <path opacity="0.796364" fill-rule="evenodd" clip-rule="evenodd" d="M43.0298 23.4049C43.1468 23.8018 42.7922 24.1775 42.3891 24.0835L39.0921 23.3143C39.0429 23.3028 38.9911 23.3125 38.9494 23.3411L36.157 25.2553C35.8156 25.4893 35.3488 25.2681 35.3136 24.8557L35.0264 21.4824C35.0221 21.4321 34.9968 21.3858 34.9568 21.355L32.2733 19.2908C31.9453 19.0384 32.0114 18.526 32.3927 18.3652L35.5122 17.0496C35.5587 17.0299 35.5949 16.9916 35.6118 16.944L36.7458 13.754C36.8844 13.3641 37.3922 13.2686 37.663 13.5816L39.8782 16.1418C39.9113 16.18 39.9589 16.2026 40.0094 16.2039L43.3937 16.2967C43.8074 16.308 44.0551 16.7614 43.8411 17.1157L42.0907 20.0136C42.0646 20.0569 42.0579 20.1091 42.0721 20.1576L43.0298 23.4049ZM42.4709 23.7329C42.6053 23.7642 42.7235 23.639 42.6845 23.5067L41.7268 20.2594C41.684 20.114 41.7042 19.9572 41.7826 19.8275L43.533 16.9295C43.6043 16.8114 43.5217 16.6603 43.3838 16.6565L39.9995 16.5638C39.848 16.5597 39.7052 16.492 39.606 16.3773L37.3908 13.8171C37.3005 13.7128 37.1312 13.7446 37.085 13.8746L35.951 17.0646C35.9003 17.2074 35.7918 17.3224 35.6521 17.3813L32.5326 18.6969C32.4055 18.7505 32.3835 18.9213 32.4928 19.0054L35.1763 21.0697C35.2964 21.1621 35.3722 21.3008 35.3851 21.4519L35.6723 24.8252C35.684 24.9627 35.8397 25.0364 35.9535 24.9584L38.7459 23.0442C38.8709 22.9585 39.0263 22.9293 39.1739 22.9637L42.4709 23.7329Z" fill="#B9C0DE"/>
    <path opacity="0.73011" fill-rule="evenodd" clip-rule="evenodd" d="M33.529 138.432C33.931 138.531 34.0776 139.026 33.7937 139.327L32.1238 141.099C32.0892 141.136 32.0716 141.185 32.0753 141.236L32.2562 143.664C32.2869 144.077 31.861 144.369 31.4869 144.192L29.2857 143.152C29.24 143.13 29.1874 143.129 29.1406 143.148L26.8873 144.07C26.5043 144.227 26.0945 143.912 26.1471 143.502L26.4566 141.087C26.463 141.037 26.4481 140.986 26.4154 140.947L24.8419 139.089C24.5745 138.774 24.7471 138.287 25.1538 138.21L27.5462 137.758C27.5959 137.748 27.6393 137.719 27.6659 137.676L28.9467 135.605C29.1644 135.253 29.6809 135.267 29.8796 135.63L31.0488 137.766C31.073 137.81 31.1148 137.842 31.1639 137.854L33.529 138.432ZM33.5317 139.08C33.6263 138.98 33.5775 138.815 33.4435 138.782L31.0784 138.204C30.9311 138.168 30.8058 138.071 30.733 137.938L29.5638 135.803C29.4976 135.682 29.3254 135.677 29.2529 135.794L27.972 137.865C27.8923 137.994 27.762 138.083 27.613 138.112L25.2206 138.564C25.085 138.589 25.0275 138.751 25.1166 138.857L26.6901 140.715C26.7881 140.83 26.8329 140.982 26.8137 141.132L26.5042 143.547C26.4867 143.684 26.6233 143.789 26.7509 143.737L29.0042 142.815C29.1445 142.757 29.3025 142.761 29.4396 142.826L31.6408 143.867C31.7655 143.926 31.9074 143.828 31.8972 143.691L31.7163 141.263C31.705 141.111 31.7579 140.962 31.8618 140.852L33.5317 139.08Z" fill="#B9C0DE"/>
    <path opacity="0.902331" d="M159.019 95.1138C159.201 95.3212 159.092 95.6478 158.822 95.7038L155.506 96.3911C155.408 96.4116 155.322 96.4728 155.27 96.5597L153.54 99.47C153.399 99.7072 153.055 99.7041 152.918 99.4645L151.24 96.5241C151.19 96.4363 151.105 96.3736 151.007 96.3514L147.704 95.6057C147.435 95.5449 147.332 95.2164 147.517 95.0123L149.795 92.5077C149.863 92.4329 149.897 92.333 149.888 92.2324L149.576 88.8612C149.551 88.5864 149.831 88.3865 150.083 88.4999L153.169 89.8924C153.261 89.934 153.366 89.935 153.459 89.895L156.569 88.5572C156.822 88.4482 157.099 88.6531 157.069 88.9273L156.698 92.2925C156.687 92.393 156.719 92.4935 156.786 92.5694L159.019 95.1138Z" fill="#B9C0DE"/>
    <path opacity="0.370759" d="M18.454 64.5431C18.5372 64.28 18.8732 64.2044 19.061 64.4066L20.4324 65.8826C20.5012 65.9566 20.598 65.9983 20.699 65.9975L22.7137 65.9814C22.9896 65.9792 23.1653 66.2754 23.0311 66.5165L22.0512 68.2769C22.002 68.3652 21.9922 68.4701 22.0242 68.5659L22.6621 70.477C22.7495 70.7388 22.5221 70.9974 22.2513 70.9443L20.2743 70.5562C20.1751 70.5368 20.0723 70.5599 19.991 70.62L18.3706 71.8172C18.1487 71.9812 17.8324 71.8448 17.7993 71.5709L17.5574 69.5707C17.5452 69.4704 17.4915 69.3798 17.4092 69.321L15.7698 68.1498C15.5453 67.9895 15.5773 67.6465 15.8276 67.5304L17.6551 66.6822C17.7468 66.6397 17.8163 66.5605 17.8468 66.4642L18.454 64.5431Z" fill="#B9C0DE"/>
    <path opacity="0.806242" d="M39.5512 102.426C39.4124 102.665 39.0679 102.665 38.9291 102.426L37.225 99.5007C37.1741 99.4133 37.0889 99.3514 36.9901 99.33L33.6813 98.6136C33.4116 98.5552 33.3051 98.2276 33.489 98.0219L35.7447 95.4973C35.812 95.4219 35.8446 95.3217 35.8344 95.2211L35.4932 91.8528C35.4654 91.5783 35.7441 91.3759 35.9966 91.4871L39.0947 92.8522C39.1872 92.893 39.2925 92.893 39.385 92.8522L42.4831 91.4869C42.7355 91.3756 43.0142 91.5781 42.9864 91.8526L42.6455 95.2209C42.6353 95.3215 42.6678 95.4217 42.7352 95.4971L44.991 98.0216C45.1749 98.2273 45.0684 98.5549 44.7988 98.6133L41.49 99.3299C41.3912 99.3513 41.3059 99.4132 41.2551 99.5006L39.5512 102.426Z" fill="#B9C0DE"/>
    <path opacity="0.547916" d="M103.538 23.3689C103.264 23.4027 103.055 23.1286 103.161 22.8738L104.457 19.7462C104.496 19.6529 104.494 19.5475 104.451 19.456L103.017 16.3889C102.9 16.1389 103.097 15.8558 103.372 15.8775L106.747 16.1439C106.848 16.1519 106.947 16.1171 107.021 16.0481L109.495 13.737C109.697 13.5487 110.026 13.6478 110.091 13.9161L110.88 17.2083C110.904 17.3066 110.968 17.3905 111.056 17.4394L114.019 19.0781C114.26 19.2117 114.268 19.556 114.032 19.7001L111.145 21.4684C111.059 21.5212 110.999 21.6078 110.98 21.707L110.337 25.0309C110.284 25.3018 109.959 25.4155 109.75 25.2363L107.176 23.0369C107.099 22.9713 106.998 22.941 106.898 22.9534L103.538 23.3689Z" fill="#B9C0DE"/>
    <path opacity="0.392959" d="M105.768 165.559C105.649 165.807 105.306 165.835 105.148 165.608L103.217 162.827C103.159 162.744 103.069 162.69 102.969 162.676L99.6138 162.225C99.3403 162.188 99.2081 161.87 99.375 161.651L101.423 158.955C101.484 158.874 101.508 158.772 101.49 158.672L100.882 155.342C100.833 155.07 101.094 154.846 101.355 154.937L104.552 156.051C104.647 156.085 104.752 156.076 104.841 156.028L107.821 154.421C108.064 154.29 108.357 154.47 108.352 154.745L108.28 158.13C108.278 158.231 108.318 158.328 108.391 158.398L110.841 160.735C111.04 160.926 110.96 161.261 110.696 161.34L107.455 162.318C107.358 162.347 107.278 162.416 107.234 162.507L105.768 165.559Z" fill="#B9C0DE"/>
    <path fill-rule="evenodd" clip-rule="evenodd" d="M46.9438 32.9545C45.7357 34.5814 43.1386 40.1222 41.8883 42.9386L128.889 79.5607C130.017 76.6873 132.155 70.9018 132.449 68.9473C134.387 57.8615 129.236 48.0113 118.608 42.3931L75.5211 24.256C64.0045 20.4958 53.5057 23.707 46.9438 32.9545ZM26.4142 79.8366L41.8214 42.9647L128.886 79.6281L113.355 116.795C107.002 131.998 93.5395 137.321 78.2483 130.882L40.8326 115.126C25.6847 108.747 20.019 95.1413 26.4142 79.8366Z" fill="url(#paint0_linear)"/>
    <g opacity="0.5" filter="url(#filter0_f)">
        <path d="M99.4091 50.3994L75.2842 40.6341C66.5335 37.0919 59.1914 40.6126 55.341 50.1792L42.3003 82.58C38.3869 92.3033 41.2853 99.8233 50.036 103.365L74.1609 113.131C83.0526 116.73 90.2003 113.277 94.1137 103.553L107.154 71.1524C111.005 61.5859 108.301 53.9987 99.4091 50.3994Z" fill="#9A64E0"/>
    </g>
    <g filter="url(#filter1_b)">
        <mask id="path-11-outside-1" maskUnits="userSpaceOnUse" x="50.668" y="49.1194" width="97" height="100" fill="black">
            <rect fill="white" x="50.668" y="49.1194" width="97" height="100"/>
            <path fill-rule="evenodd" clip-rule="evenodd" d="M52.4982 69.2554C52.0113 71.2268 51.7524 77.3514 51.6851 80.4373H146.008C145.94 77.3461 145.682 71.1742 145.2 69.2554C142.714 58.268 134.169 51.1761 122.206 50.1194H75.4923C63.4256 51.1235 54.984 58.1681 52.4982 69.2554ZM51.668 80.4381V120.461C51.668 137.073 62.1293 147.43 78.5463 147.43H119.097C135.669 147.43 146.027 137.284 146.027 120.781V80.4381H51.668ZM73.2118 103.328C73.3154 105.741 75.2834 107.639 77.6657 107.528C79.9962 107.428 81.8605 105.431 81.757 103.007C81.7052 100.647 79.789 98.8014 77.4585 98.8014C75.0762 98.9118 73.2118 100.91 73.2118 103.328ZM94.4963 103.328C94.5999 105.741 96.5679 107.639 98.9502 107.528C101.281 107.428 103.145 105.431 103.041 103.007C102.99 100.647 101.073 98.8014 98.743 98.8014C96.3607 98.9118 94.4963 100.91 94.4963 103.328ZM115.782 122.406C115.782 124.824 117.698 126.822 120.08 126.874C122.514 126.874 124.482 124.877 124.482 122.406C124.482 119.94 122.514 117.943 120.08 117.943H120.029C117.646 117.995 115.73 119.988 115.782 122.406ZM98.9502 126.612C96.5679 126.722 94.5999 124.824 94.4963 122.406C94.4963 119.988 96.3607 117.995 98.743 117.885C101.073 117.885 102.99 119.73 103.041 122.096C103.145 124.514 101.281 126.512 98.9502 126.612ZM77.6135 126.612C75.2312 126.722 73.2632 124.824 73.1596 122.406C73.1596 119.988 75.024 117.995 77.4063 117.885C79.7368 117.885 81.653 119.73 81.7048 122.096C81.8083 124.514 79.944 126.512 77.6135 126.612ZM120.08 98.8592C117.697 98.9118 115.833 100.857 115.833 103.275V103.328C115.885 105.741 117.853 107.581 120.235 107.528C122.566 107.481 124.43 105.483 124.378 103.065C124.275 100.747 122.41 98.8592 120.08 98.8592Z"/>
        </mask>
        <path fill-rule="evenodd" clip-rule="evenodd" d="M52.4982 69.2554C52.0113 71.2268 51.7524 77.3514 51.6851 80.4373H146.008C145.94 77.3461 145.682 71.1742 145.2 69.2554C142.714 58.268 134.169 51.1761 122.206 50.1194H75.4923C63.4256 51.1235 54.984 58.1681 52.4982 69.2554ZM51.668 80.4381V120.461C51.668 137.073 62.1293 147.43 78.5463 147.43H119.097C135.669 147.43 146.027 137.284 146.027 120.781V80.4381H51.668ZM73.2118 103.328C73.3154 105.741 75.2834 107.639 77.6657 107.528C79.9962 107.428 81.8605 105.431 81.757 103.007C81.7052 100.647 79.789 98.8014 77.4585 98.8014C75.0762 98.9118 73.2118 100.91 73.2118 103.328ZM94.4963 103.328C94.5999 105.741 96.5679 107.639 98.9502 107.528C101.281 107.428 103.145 105.431 103.041 103.007C102.99 100.647 101.073 98.8014 98.743 98.8014C96.3607 98.9118 94.4963 100.91 94.4963 103.328ZM115.782 122.406C115.782 124.824 117.698 126.822 120.08 126.874C122.514 126.874 124.482 124.877 124.482 122.406C124.482 119.94 122.514 117.943 120.08 117.943H120.029C117.646 117.995 115.73 119.988 115.782 122.406ZM98.9502 126.612C96.5679 126.722 94.5999 124.824 94.4963 122.406C94.4963 119.988 96.3607 117.995 98.743 117.885C101.073 117.885 102.99 119.73 103.041 122.096C103.145 124.514 101.281 126.512 98.9502 126.612ZM77.6135 126.612C75.2312 126.722 73.2632 124.824 73.1596 122.406C73.1596 119.988 75.024 117.995 77.4063 117.885C79.7368 117.885 81.653 119.73 81.7048 122.096C81.8083 124.514 79.944 126.512 77.6135 126.612ZM120.08 98.8592C117.697 98.9118 115.833 100.857 115.833 103.275V103.328C115.885 105.741 117.853 107.581 120.235 107.528C122.566 107.481 124.43 105.483 124.378 103.065C124.275 100.747 122.41 98.8592 120.08 98.8592Z" fill="#D9E0FF" fill-opacity="0.3"/>
        <path d="M51.6851 80.4373L50.6853 80.4155C50.6794 80.6844 50.7822 80.9444 50.9703 81.1367C51.1584 81.3289 51.4161 81.4373 51.6851 81.4373V80.4373ZM52.4982 69.2554L53.469 69.4951C53.4707 69.4881 53.4724 69.4812 53.4739 69.4741L52.4982 69.2554ZM146.008 80.4373V81.4373C146.277 81.4373 146.534 81.3289 146.723 81.1367C146.911 80.9444 147.013 80.6845 147.008 80.4155L146.008 80.4373ZM145.2 69.2554L144.225 69.476C144.226 69.4837 144.228 69.4912 144.23 69.4988L145.2 69.2554ZM122.206 50.1194L122.294 49.1233C122.264 49.1207 122.235 49.1194 122.206 49.1194V50.1194ZM75.4923 50.1194V49.1194C75.4647 49.1194 75.437 49.1205 75.4094 49.1228L75.4923 50.1194ZM51.668 80.4381V79.4381C51.1157 79.4381 50.668 79.8858 50.668 80.4381H51.668ZM146.027 80.4381H147.027C147.027 79.8858 146.579 79.4381 146.027 79.4381V80.4381ZM77.6657 107.528L77.6228 106.529L77.6194 106.529L77.6657 107.528ZM73.2118 103.328H72.2118C72.2118 103.342 72.2121 103.356 72.2128 103.371L73.2118 103.328ZM81.757 103.007L80.7572 103.029C80.7574 103.036 80.7576 103.043 80.7579 103.05L81.757 103.007ZM77.4585 98.8014V97.8014C77.4431 97.8014 77.4276 97.8017 77.4122 97.8025L77.4585 98.8014ZM98.9502 107.528L98.9073 106.529L98.9039 106.529L98.9502 107.528ZM94.4963 103.328H93.4963C93.4963 103.342 93.4966 103.356 93.4972 103.371L94.4963 103.328ZM103.041 103.007L102.042 103.029C102.042 103.036 102.042 103.043 102.042 103.05L103.041 103.007ZM98.743 98.8014V97.8014C98.7276 97.8014 98.7121 97.8017 98.6967 97.8025L98.743 98.8014ZM120.08 126.874L120.058 127.874C120.066 127.874 120.073 127.874 120.08 127.874V126.874ZM115.782 122.406H116.782C116.782 122.399 116.782 122.392 116.782 122.385L115.782 122.406ZM120.029 117.943V116.943C120.021 116.943 120.014 116.943 120.006 116.943L120.029 117.943ZM94.4963 122.406H93.4963C93.4963 122.42 93.4966 122.435 93.4972 122.449L94.4963 122.406ZM98.9502 126.612L98.9073 125.613L98.9039 125.613L98.9502 126.612ZM98.743 117.885V116.885C98.7276 116.885 98.7121 116.885 98.6967 116.886L98.743 117.885ZM103.041 122.096L102.042 122.118C102.042 122.125 102.042 122.132 102.042 122.139L103.041 122.096ZM73.1596 122.406H72.1596C72.1596 122.42 72.1599 122.435 72.1606 122.449L73.1596 122.406ZM77.6135 126.612L77.5706 125.613L77.5672 125.613L77.6135 126.612ZM77.4063 117.885V116.885C77.3909 116.885 77.3754 116.885 77.36 116.886L77.4063 117.885ZM81.7048 122.096L80.705 122.118C80.7052 122.125 80.7054 122.132 80.7057 122.139L81.7048 122.096ZM120.08 98.8592V97.8592C120.072 97.8592 120.065 97.8593 120.058 97.8595L120.08 98.8592ZM115.833 103.328H114.833C114.833 103.335 114.833 103.342 114.833 103.349L115.833 103.328ZM120.235 107.528L120.215 106.528L120.213 106.529L120.235 107.528ZM124.378 103.065L125.378 103.044C125.378 103.036 125.377 103.028 125.377 103.02L124.378 103.065ZM52.6848 80.4591C52.7183 78.9266 52.7994 76.6376 52.9324 74.4902C53.0677 72.3056 53.2513 70.3766 53.469 69.4951L51.5273 69.0156C51.2582 70.1056 51.0689 72.2246 50.9362 74.3666C50.8012 76.5458 50.7192 78.8621 50.6853 80.4155L52.6848 80.4591ZM146.008 79.4373H51.6851V81.4373H146.008V79.4373ZM144.23 69.4988C144.444 70.351 144.626 72.2749 144.761 74.4681C144.893 76.6215 144.975 78.9238 145.008 80.4591L147.008 80.4155C146.974 78.8596 146.892 76.5303 146.757 74.3453C146.625 72.2001 146.438 70.0786 146.17 69.0119L144.23 69.4988ZM122.118 51.1155C133.689 52.1376 141.843 58.9512 144.225 69.476L146.175 69.0347C143.585 57.5847 134.649 50.2146 122.294 49.1233L122.118 51.1155ZM75.4923 51.1194H122.206V49.1194H75.4923V51.1194ZM53.4739 69.4741C55.8562 58.8487 63.907 52.0869 75.5753 51.1159L75.4094 49.1228C62.9442 50.1601 54.1118 57.4875 51.5224 69.0366L53.4739 69.4741ZM52.668 120.461V80.4381H50.668V120.461H52.668ZM78.5463 146.43C70.5509 146.43 64.1038 143.912 59.6577 139.468C55.2119 135.024 52.668 128.554 52.668 120.461H50.668C50.668 128.98 53.3547 135.995 58.2438 140.882C63.1326 145.769 70.1247 148.43 78.5463 148.43V146.43ZM119.097 146.43H78.5463V148.43H119.097V146.43ZM145.027 120.781C145.027 128.82 142.509 135.206 138.074 139.582C133.638 143.96 127.178 146.43 119.097 146.43V148.43C127.588 148.43 134.593 145.827 139.479 141.006C144.366 136.183 147.027 129.245 147.027 120.781H145.027ZM145.027 80.4381V120.781H147.027V80.4381H145.027ZM51.668 81.4381H146.027V79.4381H51.668V81.4381ZM77.6194 106.529C75.8252 106.612 74.2923 105.181 74.2109 103.285L72.2128 103.371C72.3385 106.301 74.7416 108.665 77.712 108.527L77.6194 106.529ZM80.7579 103.05C80.8381 104.926 79.3972 106.453 77.6228 106.529L77.7085 108.527C80.5951 108.404 82.883 105.935 82.7561 102.964L80.7579 103.05ZM77.4585 99.8014C79.2497 99.8014 80.7174 101.217 80.7572 103.029L82.7567 102.985C82.6929 100.077 80.3283 97.8014 77.4585 97.8014V99.8014ZM74.2118 103.328C74.2118 101.426 75.6737 99.8852 77.5048 99.8003L77.4122 97.8025C74.4788 97.9384 72.2118 100.393 72.2118 103.328H74.2118ZM98.9039 106.529C97.1097 106.612 95.5768 105.181 95.4954 103.285L93.4972 103.371C93.623 106.301 96.0261 108.665 98.9965 108.527L98.9039 106.529ZM102.042 103.05C102.123 104.926 100.682 106.453 98.9073 106.529L98.993 108.527C101.88 108.404 104.168 105.935 104.041 102.964L102.042 103.05ZM98.743 99.8014C100.534 99.8014 102.002 101.217 102.042 103.029L104.041 102.985C103.977 100.077 101.613 97.8014 98.743 97.8014V99.8014ZM95.4963 103.328C95.4963 101.426 96.9582 99.8852 98.7893 99.8003L98.6967 97.8025C95.7633 97.9384 93.4963 100.393 93.4963 103.328H95.4963ZM120.102 125.875C118.28 125.835 116.782 124.297 116.782 122.406H114.782C114.782 125.351 117.116 127.809 120.058 127.874L120.102 125.875ZM123.482 122.406C123.482 124.339 121.948 125.874 120.08 125.874V127.874C123.081 127.874 125.482 125.415 125.482 122.406H123.482ZM120.08 118.943C121.949 118.943 123.482 120.479 123.482 122.406H125.482C125.482 119.401 123.08 116.943 120.08 116.943V118.943ZM120.029 118.943H120.08V116.943H120.029V118.943ZM116.782 122.385C116.742 120.515 118.223 118.983 120.051 118.942L120.006 116.943C117.069 117.008 114.719 119.46 114.782 122.427L116.782 122.385ZM93.4972 122.449C93.6229 125.384 96.0253 127.749 98.9964 127.611L98.9039 125.613C97.1104 125.696 95.5769 124.265 95.4954 122.363L93.4972 122.449ZM98.6967 116.886C95.7647 117.022 93.4963 119.47 93.4963 122.406H95.4963C95.4963 120.506 96.9567 118.969 98.7893 118.884L98.6967 116.886ZM104.041 122.074C103.977 119.161 101.614 116.885 98.743 116.885V118.885C100.533 118.885 102.002 120.299 102.042 122.118L104.041 122.074ZM98.993 127.611C101.879 127.487 104.168 125.02 104.041 122.053L102.042 122.139C102.122 124.009 100.683 125.537 98.9073 125.613L98.993 127.611ZM72.1606 122.449C72.2863 125.384 74.6886 127.749 77.6598 127.611L77.5672 125.613C75.7737 125.696 74.2402 124.265 74.1587 122.363L72.1606 122.449ZM77.36 116.886C74.428 117.022 72.1596 119.47 72.1596 122.406H74.1596C74.1596 120.506 75.62 118.969 77.4526 118.884L77.36 116.886ZM82.7045 122.074C82.6408 119.161 80.2769 116.885 77.4063 116.885V118.885C79.1967 118.885 80.6652 120.299 80.705 122.118L82.7045 122.074ZM77.6563 127.611C80.5421 127.487 82.8309 125.02 82.7039 122.053L80.7057 122.139C80.7858 124.009 79.3458 125.537 77.5706 125.613L77.6563 127.611ZM116.833 103.275C116.833 101.384 118.28 99.8992 120.102 99.859L120.058 97.8595C117.115 97.9244 114.833 100.33 114.833 103.275H116.833ZM116.833 103.328V103.275H114.833V103.328H116.833ZM120.213 106.529C118.374 106.569 116.873 105.158 116.833 103.306L114.833 103.349C114.897 106.324 117.331 108.593 120.257 108.528L120.213 106.529ZM123.378 103.086C123.419 104.982 121.964 106.493 120.215 106.528L120.255 108.528C123.167 108.469 125.441 105.985 125.378 103.044L123.378 103.086ZM120.08 99.8592C121.845 99.8592 123.298 101.295 123.379 103.11L125.377 103.02C125.251 100.198 122.976 97.8592 120.08 97.8592V99.8592Z" fill="url(#paint1_linear)" mask="url(#path-11-outside-1)"/>
    </g>
    <g filter="url(#filter2_bd)">
        <mask id="path-13-inside-2" fill="white">
            <path fill-rule="evenodd" clip-rule="evenodd" d="M122.204 62.3689C122.204 64.6873 120.444 66.4169 118.217 66.4169C115.938 66.4169 114.229 64.6873 114.229 62.3689V46.3399C114.229 44.0215 115.938 42.2866 118.217 42.2866C120.444 42.2866 122.204 44.0215 122.204 46.3399V62.3689ZM83.4657 62.3689C83.4657 64.6873 81.7567 66.4169 79.478 66.4169C77.1993 66.4169 75.4902 64.6873 75.4902 62.3689V46.3399C75.4902 44.0215 77.1993 42.2866 79.478 42.2866C81.7567 42.2866 83.4657 44.0215 83.4657 46.3399V62.3689Z"/>
        </mask>
        <path fill-rule="evenodd" clip-rule="evenodd" d="M122.204 62.3689C122.204 64.6873 120.444 66.4169 118.217 66.4169C115.938 66.4169 114.229 64.6873 114.229 62.3689V46.3399C114.229 44.0215 115.938 42.2866 118.217 42.2866C120.444 42.2866 122.204 44.0215 122.204 46.3399V62.3689ZM83.4657 62.3689C83.4657 64.6873 81.7567 66.4169 79.478 66.4169C77.1993 66.4169 75.4902 64.6873 75.4902 62.3689V46.3399C75.4902 44.0215 77.1993 42.2866 79.478 42.2866C81.7567 42.2866 83.4657 44.0215 83.4657 46.3399V62.3689Z" fill="url(#paint2_linear)"/>
        <path d="M118.217 66.8169C120.666 66.8169 122.604 64.9063 122.604 62.3689H121.804C121.804 64.4683 120.221 66.0169 118.217 66.0169V66.8169ZM113.829 62.3689C113.829 64.9029 115.712 66.8169 118.217 66.8169V66.0169C116.164 66.0169 114.629 64.4717 114.629 62.3689H113.829ZM113.829 46.3399V62.3689H114.629V46.3399H113.829ZM118.217 41.8866C115.711 41.8866 113.829 43.8066 113.829 46.3399H114.629C114.629 44.2364 116.165 42.6866 118.217 42.6866V41.8866ZM122.604 46.3399C122.604 43.8032 120.667 41.8866 118.217 41.8866V42.6866C120.22 42.6866 121.804 44.2398 121.804 46.3399H122.604ZM122.604 62.3689V46.3399H121.804V62.3689H122.604ZM79.478 66.8169C81.9829 66.8169 83.8657 64.9029 83.8657 62.3689H83.0657C83.0657 64.4717 81.5305 66.0169 79.478 66.0169V66.8169ZM75.0902 62.3689C75.0902 64.9029 76.9731 66.8169 79.478 66.8169V66.0169C77.4255 66.0169 75.8902 64.4717 75.8902 62.3689H75.0902ZM75.0902 46.3399V62.3689H75.8902V46.3399H75.0902ZM79.478 41.8866C76.9724 41.8866 75.0902 43.8066 75.0902 46.3399H75.8902C75.8902 44.2364 77.4262 42.6866 79.478 42.6866V41.8866ZM83.8657 46.3399C83.8657 43.8066 81.9836 41.8866 79.478 41.8866V42.6866C81.5298 42.6866 83.0657 44.2364 83.0657 46.3399H83.8657ZM83.8657 62.3689V46.3399H83.0657V62.3689H83.8657Z" fill="url(#paint3_linear)" mask="url(#path-13-inside-2)"/>
    </g>
    <g filter="url(#filter3_bd)">
        <mask id="path-15-inside-3" fill="white">
            <path fill-rule="evenodd" clip-rule="evenodd" d="M73.2573 103.376C73.3609 105.789 75.3288 107.687 77.7111 107.576C80.0416 107.477 81.906 105.479 81.8024 103.055C81.7506 100.695 79.8344 98.8496 77.504 98.8496C75.1217 98.96 73.2573 100.958 73.2573 103.376ZM94.5418 103.376C94.6453 105.789 96.6133 107.687 98.9956 107.576C101.326 107.477 103.19 105.479 103.087 103.055C103.035 100.695 101.119 98.8496 98.7884 98.8496C96.4062 98.96 94.5418 100.958 94.5418 103.376ZM115.827 122.454C115.827 124.872 117.743 126.87 120.126 126.922C122.56 126.922 124.528 124.925 124.528 122.454C124.528 119.988 122.56 117.991 120.126 117.991H120.074C117.692 118.043 115.775 120.036 115.827 122.454ZM98.9956 126.66C96.6133 126.771 94.6453 124.873 94.5418 122.454C94.5418 120.036 96.4062 118.044 98.7884 117.933C101.119 117.933 103.035 119.779 103.087 122.144C103.19 124.563 101.326 126.56 98.9956 126.66ZM77.6589 126.66C75.2766 126.771 73.3087 124.873 73.2051 122.454C73.2051 120.036 75.0695 118.044 77.4517 117.933C79.7822 117.933 81.6984 119.779 81.7502 122.144C81.8538 124.563 79.9894 126.56 77.6589 126.66ZM120.125 98.9074C117.743 98.96 115.878 100.905 115.878 103.323V103.376C115.93 105.789 117.898 107.629 120.28 107.576C122.611 107.529 124.475 105.531 124.424 103.113C124.32 100.795 122.456 98.9074 120.125 98.9074Z"/>
        </mask>
        <path fill-rule="evenodd" clip-rule="evenodd" d="M73.2573 103.376C73.3609 105.789 75.3288 107.687 77.7111 107.576C80.0416 107.477 81.906 105.479 81.8024 103.055C81.7506 100.695 79.8344 98.8496 77.504 98.8496C75.1217 98.96 73.2573 100.958 73.2573 103.376ZM94.5418 103.376C94.6453 105.789 96.6133 107.687 98.9956 107.576C101.326 107.477 103.19 105.479 103.087 103.055C103.035 100.695 101.119 98.8496 98.7884 98.8496C96.4062 98.96 94.5418 100.958 94.5418 103.376ZM115.827 122.454C115.827 124.872 117.743 126.87 120.126 126.922C122.56 126.922 124.528 124.925 124.528 122.454C124.528 119.988 122.56 117.991 120.126 117.991H120.074C117.692 118.043 115.775 120.036 115.827 122.454ZM98.9956 126.66C96.6133 126.771 94.6453 124.873 94.5418 122.454C94.5418 120.036 96.4062 118.044 98.7884 117.933C101.119 117.933 103.035 119.779 103.087 122.144C103.19 124.563 101.326 126.56 98.9956 126.66ZM77.6589 126.66C75.2766 126.771 73.3087 124.873 73.2051 122.454C73.2051 120.036 75.0695 118.044 77.4517 117.933C79.7822 117.933 81.6984 119.779 81.7502 122.144C81.8538 124.563 79.9894 126.56 77.6589 126.66ZM120.125 98.9074C117.743 98.96 115.878 100.905 115.878 103.323V103.376C115.93 105.789 117.898 107.629 120.28 107.576C122.611 107.529 124.475 105.531 124.424 103.113C124.32 100.795 122.456 98.9074 120.125 98.9074Z" fill="url(#paint4_linear)"/>
        <path d="M77.7111 107.576L77.694 107.177L77.6926 107.177L77.7111 107.576ZM73.2573 103.376H72.8573V103.385L72.8576 103.393L73.2573 103.376ZM81.8024 103.055L81.4024 103.064L81.4028 103.072L81.8024 103.055ZM77.504 98.8496V98.4496H77.4947L77.4854 98.45L77.504 98.8496ZM98.9956 107.576L98.9785 107.177L98.9771 107.177L98.9956 107.576ZM94.5418 103.376H94.1418V103.385L94.1421 103.393L94.5418 103.376ZM103.087 103.055L102.687 103.064L102.687 103.072L103.087 103.055ZM98.7884 98.8496V98.4496H98.7792L98.7699 98.45L98.7884 98.8496ZM120.126 126.922L120.117 127.322H120.126V126.922ZM115.827 122.454H116.227L116.227 122.445L115.827 122.454ZM120.074 117.991V117.59L120.065 117.591L120.074 117.991ZM94.5418 122.454H94.1418V122.463L94.1421 122.472L94.5418 122.454ZM98.9956 126.66L98.9785 126.26L98.9771 126.261L98.9956 126.66ZM98.7884 117.933V117.533H98.7792L98.7699 117.534L98.7884 117.933ZM103.087 122.144L102.687 122.153L102.687 122.161L103.087 122.144ZM73.2051 122.454H72.8051V122.463L72.8054 122.472L73.2051 122.454ZM77.6589 126.66L77.6418 126.26L77.6404 126.261L77.6589 126.66ZM77.4517 117.933V117.533H77.4425L77.4332 117.534L77.4517 117.933ZM81.7502 122.144L81.3502 122.153L81.3506 122.161L81.7502 122.144ZM120.125 98.9074V98.5074L120.116 98.5075L120.125 98.9074ZM115.878 103.376H115.478L115.479 103.385L115.878 103.376ZM120.28 107.576L120.272 107.177L120.272 107.177L120.28 107.576ZM124.424 103.113L124.824 103.105L124.823 103.095L124.424 103.113ZM77.6926 107.177C75.5456 107.276 73.7516 105.565 73.6569 103.359L72.8576 103.393C72.9701 106.013 75.1121 108.097 77.7296 107.976L77.6926 107.177ZM81.4028 103.072C81.497 105.277 79.802 107.086 77.694 107.177L77.7282 107.976C80.2812 107.867 82.315 105.681 82.2021 103.038L81.4028 103.072ZM77.504 99.2496C79.6187 99.2496 81.3555 100.923 81.4025 103.064L82.2023 103.047C82.1457 100.467 80.0502 98.4496 77.504 98.4496V99.2496ZM73.6573 103.376C73.6573 101.164 75.3607 99.3494 77.5225 99.2492L77.4854 98.45C74.8827 98.5707 72.8573 100.751 72.8573 103.376H73.6573ZM98.9771 107.177C96.83 107.276 95.0361 105.565 94.9414 103.359L94.1421 103.393C94.2546 106.013 96.3966 108.097 99.0141 107.976L98.9771 107.177ZM102.687 103.072C102.781 105.277 101.086 107.086 98.9785 107.177L99.0127 107.976C101.566 107.867 103.599 105.681 103.487 103.038L102.687 103.072ZM98.7884 99.2496C100.903 99.2496 102.64 100.923 102.687 103.064L103.487 103.047C103.43 100.467 101.335 98.4496 98.7884 98.4496V99.2496ZM94.9418 103.376C94.9418 101.164 96.6451 99.3494 98.807 99.2492L98.7699 98.45C96.1672 98.5707 94.1418 100.751 94.1418 103.376H94.9418ZM120.135 126.522C117.976 126.475 116.227 124.661 116.227 122.454H115.427C115.427 125.083 117.511 127.265 120.117 127.322L120.135 126.522ZM124.128 122.454C124.128 124.709 122.333 126.522 120.126 126.522V127.322C122.786 127.322 124.928 125.14 124.928 122.454H124.128ZM120.126 118.391C122.334 118.391 124.128 120.204 124.128 122.454H124.928C124.928 119.773 122.786 117.591 120.126 117.591V118.391ZM120.074 118.391H120.126V117.591H120.074V118.391ZM116.227 122.445C116.18 120.247 117.922 118.438 120.083 118.39L120.065 117.591C117.461 117.648 115.371 119.824 115.427 122.462L116.227 122.445ZM94.1421 122.472C94.2546 125.096 96.3963 127.181 99.0141 127.06L98.9771 126.261C96.8303 126.36 95.0361 124.649 94.9414 122.437L94.1421 122.472ZM98.7699 117.534C96.1678 117.654 94.1418 119.829 94.1418 122.454H94.9418C94.9418 120.243 96.6446 118.433 98.807 118.333L98.7699 117.534ZM103.487 122.135C103.43 119.551 101.335 117.533 98.7884 117.533V118.333C100.903 118.333 102.64 120.006 102.687 122.153L103.487 122.135ZM99.0127 127.06C101.565 126.95 103.599 124.765 103.487 122.127L102.687 122.161C102.781 124.36 101.087 126.17 98.9785 126.26L99.0127 127.06ZM72.8054 122.472C72.9179 125.096 75.0596 127.181 77.6774 127.06L77.6404 126.261C75.4936 126.36 73.6994 124.649 73.6047 122.437L72.8054 122.472ZM77.4332 117.534C74.8311 117.654 72.8051 119.829 72.8051 122.454H73.6051C73.6051 120.243 75.3079 118.433 77.4703 118.333L77.4332 117.534ZM82.1501 122.135C82.0935 119.551 79.9983 117.533 77.4517 117.533V118.333C79.5662 118.333 81.3033 120.006 81.3503 122.153L82.1501 122.135ZM77.676 127.06C80.2287 126.95 82.2628 124.765 82.1498 122.127L81.3506 122.161C81.4448 124.36 79.7501 126.17 77.6418 126.26L77.676 127.06ZM116.278 103.323C116.278 101.116 117.976 99.355 120.134 99.3074L120.116 98.5075C117.51 98.5651 115.478 100.694 115.478 103.323H116.278ZM116.278 103.376V103.323H115.478V103.376H116.278ZM120.272 107.177C118.107 107.224 116.325 105.556 116.278 103.367L115.479 103.385C115.535 106.022 117.69 108.034 120.289 107.976L120.272 107.177ZM124.024 103.122C124.071 105.331 122.37 107.134 120.272 107.177L120.289 107.976C122.852 107.924 124.88 105.732 124.824 103.105L124.024 103.122ZM120.125 99.3074C122.229 99.3074 123.929 101.014 124.024 103.131L124.823 103.095C124.711 100.576 122.682 98.5074 120.125 98.5074V99.3074Z" fill="url(#paint5_linear)" mask="url(#path-15-inside-3)"/>
    </g>
    <g opacity="0.5" filter="url(#filter4_b)">
        <path d="M56.4821 80.8336C56.4821 83.0669 58.2068 84.8327 60.5186 84.8327L135.245 84.8327C137.557 84.8327 139.287 83.0669 139.287 80.8336C139.287 78.5484 137.557 76.8345 135.245 76.8345L60.5186 76.8345C58.2068 76.8345 56.4821 78.5484 56.4821 80.8336Z" fill="url(#paint6_linear)" fill-opacity="0.5"/>
    </g>
    <defs>
        <filter id="filter0_f" x="21.5908" y="20.2852" width="106.27" height="113.237" filterUnits="userSpaceOnUse" color-interpolation-filters="sRGB">
            <feFlood flood-opacity="0" result="BackgroundImageFix"/>
            <feBlend mode="normal" in="SourceGraphic" in2="BackgroundImageFix" result="shape"/>
            <feGaussianBlur stdDeviation="9.5" result="effect1_foregroundBlur"/>
        </filter>
        <filter id="filter1_b" x="26.668" y="25.1194" width="144.359" height="147.31" filterUnits="userSpaceOnUse" color-interpolation-filters="sRGB">
            <feFlood flood-opacity="0" result="BackgroundImageFix"/>
            <feGaussianBlur in="BackgroundImage" stdDeviation="12"/>
            <feComposite in2="SourceAlpha" operator="in" result="effect1_backgroundBlur"/>
            <feBlend mode="normal" in="SourceGraphic" in2="effect1_backgroundBlur" result="shape"/>
        </filter>
        <filter id="filter2_bd" x="60.4902" y="27.2866" width="76.7142" height="54.1303" filterUnits="userSpaceOnUse" color-interpolation-filters="sRGB">
            <feFlood flood-opacity="0" result="BackgroundImageFix"/>
            <feGaussianBlur in="BackgroundImage" stdDeviation="7.5"/>
            <feComposite in2="SourceAlpha" operator="in" result="effect1_backgroundBlur"/>
            <feColorMatrix in="SourceAlpha" type="matrix" values="0 0 0 0 0 0 0 0 0 0 0 0 0 0 0 0 0 0 127 0" result="hardAlpha"/>
            <feOffset dx="5" dy="5"/>
            <feGaussianBlur stdDeviation="5"/>
            <feColorMatrix type="matrix" values="0 0 0 0 0.623529 0 0 0 0 0.423529 0 0 0 0 0.878431 0 0 0 0.2 0"/>
            <feBlend mode="normal" in2="effect1_backgroundBlur" result="effect2_dropShadow"/>
            <feBlend mode="normal" in="SourceGraphic" in2="effect2_dropShadow" result="shape"/>
        </filter>
        <filter id="filter3_bd" x="58.2051" y="83.8496" width="81.3227" height="58.0728" filterUnits="userSpaceOnUse" color-interpolation-filters="sRGB">
            <feFlood flood-opacity="0" result="BackgroundImageFix"/>
            <feGaussianBlur in="BackgroundImage" stdDeviation="7.5"/>
            <feComposite in2="SourceAlpha" operator="in" result="effect1_backgroundBlur"/>
            <feColorMatrix in="SourceAlpha" type="matrix" values="0 0 0 0 0 0 0 0 0 0 0 0 0 0 0 0 0 0 127 0" result="hardAlpha"/>
            <feOffset dx="5" dy="5"/>
            <feGaussianBlur stdDeviation="5"/>
            <feColorMatrix type="matrix" values="0 0 0 0 0.619608 0 0 0 0 0.419608 0 0 0 0 0.882353 0 0 0 0.5 0"/>
            <feBlend mode="normal" in2="effect1_backgroundBlur" result="effect2_dropShadow"/>
            <feBlend mode="normal" in="SourceGraphic" in2="effect2_dropShadow" result="shape"/>
        </filter>
        <filter id="filter4_b" x="41.4824" y="61.8345" width="112.805" height="37.9983" filterUnits="userSpaceOnUse" color-interpolation-filters="sRGB">
            <feFlood flood-opacity="0" result="BackgroundImageFix"/>
            <feGaussianBlur in="BackgroundImage" stdDeviation="7.5"/>
            <feComposite in2="SourceAlpha" operator="in" result="effect1_backgroundBlur"/>
            <feBlend mode="normal" in="SourceGraphic" in2="effect1_backgroundBlur" result="shape"/>
        </filter>
        <linearGradient id="paint0_linear" x1="97.0641" y1="33.3186" x2="59.3634" y2="122.938" gradientUnits="userSpaceOnUse">
            <stop stop-color="#B983FE"/>
            <stop offset="0.244792" stop-color="#AC76F1"/>
            <stop offset="1" stop-color="#9A64E0"/>
        </linearGradient>
        <linearGradient id="paint1_linear" x1="66.6884" y1="61.4562" x2="129.138" y2="136.455" gradientUnits="userSpaceOnUse">
            <stop stop-color="white" stop-opacity="0.25"/>
            <stop offset="1" stop-color="white" stop-opacity="0"/>
        </linearGradient>
        <linearGradient id="paint2_linear" x1="119.388" y1="62.6723" x2="120.799" y2="44.5487" gradientUnits="userSpaceOnUse">
            <stop stop-color="white"/>
            <stop offset="1" stop-color="white" stop-opacity="0.2"/>
        </linearGradient>
        <linearGradient id="paint3_linear" x1="118.104" y1="45.9353" x2="137.112" y2="53.044" gradientUnits="userSpaceOnUse">
            <stop stop-color="white" stop-opacity="0.25"/>
            <stop offset="1" stop-color="white" stop-opacity="0"/>
        </linearGradient>
        <linearGradient id="paint4_linear" x1="120.889" y1="103.919" x2="34.3534" y2="98.2336" gradientUnits="userSpaceOnUse">
            <stop stop-color="white"/>
            <stop offset="1" stop-color="white" stop-opacity="0.2"/>
        </linearGradient>
        <linearGradient id="paint5_linear" x1="81.3748" y1="102.12" x2="94.9146" y2="132.778" gradientUnits="userSpaceOnUse">
            <stop stop-color="white" stop-opacity="0.25"/>
            <stop offset="1" stop-color="white" stop-opacity="0"/>
        </linearGradient>
        <linearGradient id="paint6_linear" x1="78.8315" y1="80.7207" x2="75.8472" y2="71.4001" gradientUnits="userSpaceOnUse">
            <stop stop-color="white"/>
            <stop offset="1" stop-color="white" stop-opacity="0.2"/>
        </linearGradient>
    </defs>
</svg>
