<svg width="327" height="128" viewBox="0 0 327 128" fill="none" xmlns="http://www.w3.org/2000/svg">
    <rect width="327" height="127" rx="18" fill="#373D48"/>
    <g opacity="0.8">
        <path d="M147 54.9999C221.5 2.00024 327 25.9999 327 25.9999V91C327 107.971 327 116.456 321.728 121.728C316.456 127 307.971 127 291 127L14.5 127C14.5 127 72.5 108 147 54.9999Z" fill="#464B56"/>
    </g>
    <g opacity="0.5">
        <path d="M181 55.4205C106.5 2.4209 1 26.4206 1 26.4206V91.4206C1 108.391 1 116.876 6.27208 122.149C11.5442 127.421 20.0294 127.421 37 127.421L313.5 127.421C313.5 127.421 255.5 108.42 181 55.4205Z" fill="#373D48"/>
    </g>
    <path fill-rule="evenodd" clip-rule="evenodd" d="M278.839 38.6804C278.98 38.4381 279.331 38.4381 279.472 38.6804L279.996 39.5798C280.013 39.6094 280.042 39.6304 280.075 39.6377L281.092 39.858C281.367 39.9173 281.475 40.2504 281.288 40.4595L280.594 41.2357C280.572 41.2612 280.561 41.2952 280.564 41.3292L280.669 42.3648C280.697 42.6439 280.414 42.8497 280.157 42.7366L279.205 42.3169C279.173 42.303 279.138 42.303 279.106 42.3169L278.154 42.7366C277.897 42.8497 277.614 42.6439 277.642 42.3648L277.747 41.3292C277.75 41.2952 277.739 41.2612 277.717 41.2357L277.023 40.4595C276.836 40.2504 276.944 39.9173 277.219 39.858L278.236 39.6377C278.269 39.6304 278.298 39.6094 278.315 39.5798L278.839 38.6804ZM279.261 38.8033C279.214 38.7225 279.097 38.7225 279.05 38.8033L278.526 39.7026C278.475 39.7914 278.388 39.8544 278.287 39.8761L277.27 40.0964C277.179 40.1162 277.143 40.2272 277.205 40.297L277.899 41.0731C277.967 41.1497 278 41.2516 277.99 41.3538L277.885 42.3894C277.875 42.4824 277.97 42.551 278.055 42.5133L279.008 42.0936C279.102 42.0521 279.209 42.0521 279.303 42.0936L280.256 42.5133C280.341 42.551 280.436 42.4824 280.426 42.3894L280.321 41.3538C280.311 41.2516 280.344 41.1497 280.412 41.0731L281.106 40.297C281.168 40.2272 281.132 40.1162 281.041 40.0964L280.024 39.8761C279.923 39.8544 279.836 39.7914 279.785 39.7026L279.261 38.8033Z" fill="#B9C0DE"/>
    <path opacity="0.796364" fill-rule="evenodd" clip-rule="evenodd" d="M223.165 18.8633C223.245 19.1324 223.004 19.387 222.731 19.3233L220.497 18.8019C220.463 18.7942 220.428 18.8008 220.4 18.8201L218.507 20.1175C218.276 20.2761 217.959 20.1262 217.936 19.8467L217.741 17.5603C217.738 17.5262 217.721 17.4949 217.694 17.474L215.875 16.0749C215.653 15.9039 215.697 15.5566 215.956 15.4476L218.07 14.5559C218.102 14.5425 218.126 14.5166 218.138 14.4843L218.906 12.3222C219 12.0579 219.344 11.9932 219.528 12.2053L221.029 13.9406C221.052 13.9665 221.084 13.9818 221.118 13.9827L223.412 14.0456C223.692 14.0532 223.86 14.3605 223.715 14.6007L222.529 16.5648C222.511 16.5941 222.507 16.6295 222.516 16.6624L223.165 18.8633ZM222.787 19.0857C222.878 19.1069 222.958 19.022 222.931 18.9324L222.282 16.7314C222.253 16.6329 222.267 16.5266 222.32 16.4387L223.506 14.4745C223.555 14.3945 223.499 14.292 223.405 14.2895L221.112 14.2266C221.009 14.2238 220.912 14.1779 220.845 14.1002L219.343 12.365C219.282 12.2943 219.168 12.3158 219.136 12.4039L218.368 14.566C218.333 14.6629 218.26 14.7407 218.165 14.7807L216.051 15.6724C215.965 15.7087 215.95 15.8245 216.024 15.8815L217.842 17.2806C217.924 17.3432 217.975 17.4372 217.984 17.5396L218.179 19.826C218.187 19.9192 218.292 19.9691 218.369 19.9163L220.262 18.6189C220.347 18.5608 220.452 18.541 220.552 18.5643L222.787 19.0857Z" fill="#B9C0DE"/>
    <path opacity="0.73011" fill-rule="evenodd" clip-rule="evenodd" d="M216.725 96.8262C216.997 96.8928 217.097 97.2286 216.904 97.4327L215.772 98.6336C215.749 98.6586 215.737 98.6922 215.74 98.7264L215.862 100.372C215.883 100.652 215.594 100.85 215.341 100.73L213.849 100.025C213.818 100.01 213.782 100.009 213.751 100.022L212.223 100.647C211.964 100.754 211.686 100.54 211.722 100.262L211.931 98.6253C211.936 98.5913 211.926 98.557 211.903 98.5309L210.837 97.2716C210.656 97.0575 210.773 96.7275 211.048 96.6754L212.67 96.3691C212.704 96.3627 212.733 96.3425 212.751 96.3134L213.619 94.91C213.767 94.6714 214.117 94.6807 214.251 94.9268L215.044 96.3743C215.06 96.4043 215.089 96.4261 215.122 96.4342L216.725 96.8262ZM216.727 97.2654C216.791 97.1973 216.758 97.0854 216.667 97.0632L215.064 96.6712C214.964 96.6468 214.879 96.5816 214.83 96.4915L214.037 95.0439C213.992 94.9619 213.876 94.9588 213.827 95.0383L212.958 96.4418C212.904 96.5291 212.816 96.5898 212.715 96.6089L211.094 96.9152C211.002 96.9325 210.963 97.0426 211.023 97.1139L212.09 98.3732C212.156 98.4516 212.186 98.5544 212.173 98.6563L211.964 100.293C211.952 100.386 212.044 100.457 212.131 100.422L213.658 99.7964C213.753 99.7575 213.86 99.7603 213.953 99.8042L215.445 100.51C215.53 100.55 215.626 100.483 215.619 100.39L215.496 98.7445C215.489 98.642 215.524 98.5411 215.595 98.4663L216.727 97.2654Z" fill="#B9C0DE"/>
    <path opacity="0.902331" d="M301.779 67.4661C301.902 67.6066 301.828 67.828 301.645 67.866L299.398 68.3318C299.331 68.3457 299.273 68.3872 299.238 68.446L298.066 70.4186C297.97 70.5794 297.737 70.5773 297.644 70.4149L296.507 68.4219C296.473 68.3624 296.415 68.32 296.349 68.3049L294.11 67.7994C293.928 67.7583 293.858 67.5356 293.984 67.3973L295.527 65.6997C295.574 65.6491 295.596 65.5813 295.59 65.5131L295.379 63.2282C295.362 63.042 295.552 62.9064 295.722 62.9834L297.814 63.9272C297.876 63.9553 297.948 63.956 298.011 63.9289L300.118 63.0222C300.29 62.9483 300.478 63.0871 300.457 63.273L300.206 65.5539C300.199 65.622 300.22 65.6901 300.265 65.7416L301.779 67.4661Z" fill="#B9C0DE"/>
    <path opacity="0.370759" d="M206.506 46.7458C206.563 46.5675 206.791 46.5162 206.918 46.6532L207.847 47.6536C207.894 47.7038 207.96 47.7321 208.028 47.7315L209.394 47.7206C209.581 47.7191 209.7 47.9199 209.609 48.0833L208.945 49.2764C208.911 49.3363 208.905 49.4074 208.926 49.4724L209.359 50.7677C209.418 50.945 209.264 51.1204 209.08 51.0843L207.74 50.8213C207.673 50.8081 207.603 50.8238 207.548 50.8645L206.45 51.676C206.299 51.7871 206.085 51.6947 206.063 51.509L205.899 50.1534C205.89 50.0854 205.854 50.0239 205.798 49.9841L204.687 49.1903C204.535 49.0816 204.557 48.8492 204.726 48.7705L205.965 48.1956C206.027 48.1668 206.074 48.1131 206.095 48.0478L206.506 46.7458Z" fill="#B9C0DE"/>
    <path opacity="0.806242" d="M220.807 72.4221C220.713 72.5837 220.48 72.5837 220.386 72.4221L219.231 70.4394C219.196 70.3802 219.138 70.3382 219.071 70.3237L216.829 69.8381C216.646 69.7985 216.574 69.5765 216.698 69.4371L218.227 67.7259C218.273 67.6748 218.295 67.6069 218.288 67.5388L218.057 65.2558C218.038 65.0698 218.227 64.9325 218.398 65.0079L220.498 65.9332C220.561 65.9608 220.632 65.9608 220.695 65.9332L222.794 65.0078C222.966 64.9324 223.154 65.0696 223.136 65.2557L222.905 67.5386C222.898 67.6068 222.92 67.6747 222.965 67.7258L224.494 69.4368C224.619 69.5763 224.547 69.7983 224.364 69.8379L222.121 70.3236C222.054 70.3381 221.997 70.3801 221.962 70.4393L220.807 72.4221Z" fill="#B9C0DE"/>
    <path opacity="0.547916" d="M264.176 18.839C263.99 18.8619 263.849 18.6762 263.92 18.5034L264.799 16.3836C264.825 16.3204 264.824 16.249 264.795 16.1869L263.823 14.1081C263.744 13.9387 263.877 13.7468 264.063 13.7615L266.351 13.9421C266.419 13.9475 266.486 13.9239 266.537 13.8771L268.213 12.3107C268.35 12.1831 268.574 12.2503 268.617 12.4321L269.152 14.6635C269.168 14.7301 269.212 14.7869 269.272 14.8201L271.279 15.9308C271.443 16.0213 271.448 16.2547 271.289 16.3524L269.332 17.5509C269.274 17.5867 269.233 17.6454 269.22 17.7126L268.784 19.9655C268.748 20.1491 268.528 20.2261 268.386 20.1047L266.641 18.614C266.589 18.5695 266.521 18.549 266.453 18.5574L264.176 18.839Z" fill="#B9C0DE"/>
    <path opacity="0.392959" d="M265.687 115.212C265.606 115.381 265.373 115.399 265.266 115.246L263.957 113.361C263.918 113.305 263.857 113.267 263.789 113.258L261.515 112.953C261.33 112.928 261.24 112.712 261.353 112.563L262.741 110.736C262.783 110.681 262.799 110.612 262.787 110.544L262.375 108.287C262.341 108.103 262.519 107.951 262.695 108.013L264.862 108.768C264.927 108.791 264.998 108.785 265.058 108.753L267.078 107.663C267.242 107.574 267.441 107.696 267.437 107.883L267.389 110.177C267.387 110.246 267.415 110.312 267.464 110.359L269.124 111.943C269.26 112.072 269.205 112.299 269.026 112.353L266.829 113.016C266.764 113.035 266.71 113.082 266.68 113.144L265.687 115.212Z" fill="#B9C0DE"/>
    <path fill-rule="evenodd" clip-rule="evenodd" d="M225.082 24.6421C224.288 25.6926 222.618 29.2991 221.817 31.1335L281.815 56.9248C282.532 55.0504 283.884 51.274 284.049 49.9902C285.168 42.7135 281.475 36.119 274.125 32.2133L244.411 19.4402C236.489 16.7436 229.388 18.6649 225.082 24.6421ZM211.443 56.2958L221.203 32.1202L281.356 58.3346L271.518 82.7039C267.494 92.672 258.416 95.9233 247.852 91.3192L222.001 80.0536C211.535 75.4927 207.392 66.3306 211.443 56.2958Z" fill="url(#paint0_linear)"/>
    <g opacity="0.5" filter="url(#filter0_f)">
        <path d="M261.378 37.1597L245.027 30.5409C239.096 28.1401 234.12 30.5264 231.51 37.0104L222.671 58.9709C220.019 65.5612 221.983 70.6581 227.914 73.0589L244.266 79.6776C250.292 82.1171 255.137 79.7764 257.789 73.1861L266.628 51.2256C269.238 44.7416 267.405 39.5992 261.378 37.1597Z" fill="#9A64E0"/>
    </g>
    <g filter="url(#filter1_b)">
        <mask id="path-14-outside-1" maskUnits="userSpaceOnUse" x="228.02" y="35.9702" width="66" height="68" fill="black">
            <rect fill="white" x="228.02" y="35.9702" width="66" height="68"/>
            <path fill-rule="evenodd" clip-rule="evenodd" d="M229.583 49.9402C229.254 51.2764 229.078 55.4274 229.032 57.519H292.962C292.917 55.4239 292.741 51.2407 292.415 49.9402C290.73 42.4931 284.938 37.6864 276.83 36.9702H245.168C236.99 37.6508 231.268 42.4254 229.583 49.9402ZM229.02 57.5194V84.6458C229.02 95.9054 236.11 102.925 247.237 102.925H274.721C285.954 102.925 292.974 96.048 292.974 84.8632V57.5194H229.02ZM243.621 73.0337C243.691 74.6692 245.025 75.9555 246.64 75.8806C248.219 75.8129 249.483 74.4589 249.413 72.8163C249.378 71.2164 248.079 69.9658 246.499 69.9658C244.885 70.0406 243.621 71.3946 243.621 73.0337ZM258.047 73.0337C258.118 74.6692 259.452 75.9555 261.066 75.8806C262.646 75.8129 263.909 74.4589 263.839 72.8163C263.804 71.2164 262.505 69.9658 260.926 69.9658C259.311 70.0406 258.047 71.3946 258.047 73.0337ZM272.475 85.9642C272.475 87.6032 273.773 88.9572 275.388 88.9929C277.038 88.9929 278.372 87.6388 278.372 85.9642C278.372 84.293 277.038 82.939 275.388 82.939H275.353C273.738 82.9747 272.44 84.3251 272.475 85.9642ZM261.066 88.8147C259.452 88.8895 258.118 87.6032 258.047 85.9642C258.047 84.3251 259.311 82.9747 260.926 82.8998C262.505 82.8998 263.804 84.1505 263.839 85.7539C263.909 87.393 262.646 88.747 261.066 88.8147ZM246.604 88.8147C244.99 88.8895 243.656 87.6032 243.585 85.9642C243.585 84.3251 244.849 82.9747 246.464 82.8998C248.043 82.8998 249.342 84.1505 249.377 85.7539C249.447 87.393 248.184 88.747 246.604 88.8147ZM275.388 70.005C273.773 70.0406 272.509 71.359 272.509 72.998V73.0337C272.545 74.6692 273.878 75.9163 275.493 75.8806C277.073 75.8486 278.336 74.4946 278.301 72.8555C278.231 71.2841 276.967 70.005 275.388 70.005Z"/>
        </mask>
        <path fill-rule="evenodd" clip-rule="evenodd" d="M229.583 49.9402C229.254 51.2764 229.078 55.4274 229.032 57.519H292.962C292.917 55.4239 292.741 51.2407 292.415 49.9402C290.73 42.4931 284.938 37.6864 276.83 36.9702H245.168C236.99 37.6508 231.268 42.4254 229.583 49.9402ZM229.02 57.5194V84.6458C229.02 95.9054 236.11 102.925 247.237 102.925H274.721C285.954 102.925 292.974 96.048 292.974 84.8632V57.5194H229.02ZM243.621 73.0337C243.691 74.6692 245.025 75.9555 246.64 75.8806C248.219 75.8129 249.483 74.4589 249.413 72.8163C249.378 71.2164 248.079 69.9658 246.499 69.9658C244.885 70.0406 243.621 71.3946 243.621 73.0337ZM258.047 73.0337C258.118 74.6692 259.452 75.9555 261.066 75.8806C262.646 75.8129 263.909 74.4589 263.839 72.8163C263.804 71.2164 262.505 69.9658 260.926 69.9658C259.311 70.0406 258.047 71.3946 258.047 73.0337ZM272.475 85.9642C272.475 87.6032 273.773 88.9572 275.388 88.9929C277.038 88.9929 278.372 87.6388 278.372 85.9642C278.372 84.293 277.038 82.939 275.388 82.939H275.353C273.738 82.9747 272.44 84.3251 272.475 85.9642ZM261.066 88.8147C259.452 88.8895 258.118 87.6032 258.047 85.9642C258.047 84.3251 259.311 82.9747 260.926 82.8998C262.505 82.8998 263.804 84.1505 263.839 85.7539C263.909 87.393 262.646 88.747 261.066 88.8147ZM246.604 88.8147C244.99 88.8895 243.656 87.6032 243.585 85.9642C243.585 84.3251 244.849 82.9747 246.464 82.8998C248.043 82.8998 249.342 84.1505 249.377 85.7539C249.447 87.393 248.184 88.747 246.604 88.8147ZM275.388 70.005C273.773 70.0406 272.509 71.359 272.509 72.998V73.0337C272.545 74.6692 273.878 75.9163 275.493 75.8806C277.073 75.8486 278.336 74.4946 278.301 72.8555C278.231 71.2841 276.967 70.005 275.388 70.005Z" fill="#D9E0FF" fill-opacity="0.3"/>
        <path d="M229.032 57.519L228.033 57.4972C228.027 57.7662 228.129 58.0261 228.318 58.2184C228.506 58.4107 228.763 58.519 229.032 58.519V57.519ZM229.583 49.9402L230.554 50.1799C230.556 50.1729 230.558 50.1659 230.559 50.1589L229.583 49.9402ZM292.962 57.519V58.519C293.231 58.519 293.489 58.4107 293.677 58.2184C293.865 58.0261 293.968 57.7662 293.962 57.4973L292.962 57.519ZM292.415 49.9402L291.439 50.1608C291.441 50.1684 291.443 50.176 291.445 50.1836L292.415 49.9402ZM276.83 36.9702L276.918 35.9741C276.888 35.9715 276.859 35.9702 276.83 35.9702V36.9702ZM245.168 36.9702V35.9702C245.141 35.9702 245.113 35.9714 245.086 35.9737L245.168 36.9702ZM229.02 57.5194V56.5194C228.467 56.5194 228.02 56.9671 228.02 57.5194H229.02ZM292.974 57.5194H293.974C293.974 56.9671 293.526 56.5194 292.974 56.5194V57.5194ZM246.64 75.8806L246.597 74.8815L246.593 74.8817L246.64 75.8806ZM243.621 73.0337H242.621C242.621 73.048 242.621 73.0623 242.622 73.0765L243.621 73.0337ZM249.413 72.8163L248.413 72.8382C248.413 72.8452 248.413 72.8521 248.414 72.859L249.413 72.8163ZM246.499 69.9658V68.9658C246.484 68.9658 246.468 68.9661 246.453 68.9668L246.499 69.9658ZM261.066 75.8806L261.023 74.8815L261.02 74.8817L261.066 75.8806ZM258.047 73.0337H257.047C257.047 73.048 257.048 73.0623 257.048 73.0765L258.047 73.0337ZM263.839 72.8163L262.839 72.8382C262.84 72.8452 262.84 72.8521 262.84 72.859L263.839 72.8163ZM260.926 69.9658V68.9658C260.91 68.9658 260.895 68.9661 260.879 68.9668L260.926 69.9658ZM275.388 88.9929L275.366 89.9926C275.373 89.9928 275.381 89.9929 275.388 89.9929V88.9929ZM272.475 85.9642H273.475C273.475 85.957 273.475 85.9499 273.474 85.9427L272.475 85.9642ZM275.353 82.939V81.939C275.346 81.939 275.338 81.9391 275.331 81.9393L275.353 82.939ZM258.047 85.9642H257.047C257.047 85.9784 257.048 85.9927 257.048 86.007L258.047 85.9642ZM261.066 88.8147L261.023 87.8156L261.02 87.8158L261.066 88.8147ZM260.926 82.8998V81.8998C260.91 81.8998 260.895 81.9002 260.879 81.9009L260.926 82.8998ZM263.839 85.7539L262.839 85.7758C262.84 85.7828 262.84 85.7898 262.84 85.7967L263.839 85.7539ZM243.585 85.9642H242.585C242.585 85.9784 242.586 85.9927 242.586 86.007L243.585 85.9642ZM246.604 88.8147L246.561 87.8156L246.558 87.8158L246.604 88.8147ZM246.464 82.8998V81.8998C246.448 81.8998 246.433 81.9002 246.417 81.9009L246.464 82.8998ZM249.377 85.7539L248.377 85.7758C248.378 85.7828 248.378 85.7898 248.378 85.7967L249.377 85.7539ZM275.388 70.005V69.005C275.38 69.005 275.373 69.005 275.366 69.0052L275.388 70.005ZM272.509 73.0337H271.509C271.509 73.0408 271.51 73.048 271.51 73.0551L272.509 73.0337ZM275.493 75.8806L275.473 74.8808L275.471 74.8809L275.493 75.8806ZM278.301 72.8555L279.301 72.8341C279.301 72.8263 279.301 72.8186 279.3 72.8109L278.301 72.8555ZM230.032 57.5408C230.055 56.5055 230.11 54.9585 230.199 53.5081C230.292 52.0205 230.415 50.7438 230.554 50.1799L228.613 49.7004C228.422 50.4727 228.293 51.9396 228.203 53.3845C228.111 54.8667 228.056 56.441 228.033 57.4972L230.032 57.5408ZM292.962 56.519H229.032V58.519H292.962V56.519ZM291.445 50.1836C291.581 50.7267 291.704 51.9988 291.796 53.493C291.885 54.9475 291.94 56.5036 291.962 57.5408L293.962 57.4973C293.939 56.4394 293.883 54.8563 293.792 53.3703C293.703 51.924 293.575 50.4542 293.385 49.6967L291.445 50.1836ZM276.742 37.9663C284.458 38.6479 289.859 43.1764 291.439 50.1608L293.39 49.7195C291.6 41.8099 285.418 36.7249 276.918 35.9741L276.742 37.9663ZM245.168 37.9702H276.83V35.9702H245.168V37.9702ZM230.559 50.1589C232.141 43.106 237.471 38.6142 245.251 37.9668L245.086 35.9737C236.508 36.6874 230.396 41.7448 228.608 49.7214L230.559 50.1589ZM230.02 84.6458V57.5194H228.02V84.6458H230.02ZM247.237 101.925C241.887 101.925 237.605 100.241 234.663 97.3005C231.721 94.3597 230.02 90.0626 230.02 84.6458H228.02C228.02 90.4886 229.864 95.3311 233.249 98.7149C236.634 102.099 241.46 103.925 247.237 103.925V101.925ZM274.721 101.925H247.237V103.925H274.721V101.925ZM291.974 84.8632C291.974 90.243 290.29 94.4825 287.357 97.3765C284.423 100.272 280.132 101.925 274.721 101.925V103.925C280.543 103.925 285.378 102.139 288.762 98.8001C292.148 95.4595 293.974 90.6681 293.974 84.8632H291.974ZM291.974 57.5194V84.8632H293.974V57.5194H291.974ZM229.02 58.5194H292.974V56.5194H229.02V58.5194ZM246.593 74.8817C245.567 74.9293 244.668 74.1089 244.62 72.9908L242.622 73.0765C242.714 75.2294 244.483 76.9816 246.686 76.8796L246.593 74.8817ZM248.414 72.859C248.46 73.9543 247.62 74.8377 246.597 74.8815L246.683 76.8797C248.818 76.7882 250.505 74.9635 250.412 72.7736L248.414 72.859ZM246.499 70.9658C247.54 70.9658 248.39 71.7864 248.413 72.8382L250.412 72.7944C250.365 70.6465 248.618 68.9658 246.499 68.9658V70.9658ZM244.621 73.0337C244.621 71.9112 245.482 71.014 246.546 70.9647L246.453 68.9668C244.287 69.0672 242.621 70.878 242.621 73.0337H244.621ZM261.02 74.8817C259.993 74.9293 259.095 74.1089 259.047 72.9908L257.048 73.0765C257.141 75.2294 258.91 76.9816 261.112 76.8796L261.02 74.8817ZM262.84 72.859C262.887 73.9543 262.047 74.8377 261.023 74.8815L261.109 76.8797C263.245 76.7882 264.932 74.9635 264.838 72.7736L262.84 72.859ZM260.926 70.9658C261.966 70.9658 262.816 71.7864 262.839 72.8382L264.839 72.7944C264.792 70.6465 263.045 68.9658 260.926 68.9658V70.9658ZM259.047 73.0337C259.047 71.9112 259.909 71.014 260.972 70.9647L260.879 68.9668C258.714 69.0672 257.047 70.8779 257.047 73.0337H259.047ZM275.41 87.9931C274.355 87.9698 273.475 87.076 273.475 85.9642H271.475C271.475 88.1304 273.191 89.9446 275.366 89.9926L275.41 87.9931ZM277.372 85.9642C277.372 87.1008 276.471 87.9929 275.388 87.9929V89.9929C277.604 89.9929 279.372 88.1769 279.372 85.9642H277.372ZM275.388 83.939C276.472 83.939 277.372 84.8319 277.372 85.9642H279.372C279.372 83.7542 277.603 81.939 275.388 81.939V83.939ZM275.353 83.939H275.388V81.939H275.353V83.939ZM273.474 85.9427C273.451 84.8528 274.315 83.9622 275.375 83.9388L275.331 81.9393C273.162 81.9871 271.428 83.7974 271.475 85.9856L273.474 85.9427ZM257.048 86.007C257.141 88.1627 258.909 89.9157 261.112 89.8136L261.02 87.8158C259.994 87.8633 259.095 87.0438 259.047 85.9214L257.048 86.007ZM260.879 81.9009C258.715 82.0012 257.047 83.807 257.047 85.9642H259.047C259.047 84.8432 259.907 83.9481 260.972 83.8988L260.879 81.9009ZM264.839 85.732C264.792 83.5813 263.045 81.8998 260.926 81.8998V83.8998C261.965 83.8998 262.816 84.7197 262.839 85.7758L264.839 85.732ZM261.109 89.8138C263.244 89.7223 264.932 87.8984 264.838 85.7111L262.84 85.7967C262.887 86.8876 262.048 87.7717 261.023 87.8156L261.109 89.8138ZM242.586 86.007C242.679 88.1627 244.447 89.9157 246.65 89.8136L246.558 87.8158C245.532 87.8633 244.633 87.0438 244.585 85.9214L242.586 86.007ZM246.417 81.9009C244.253 82.0012 242.585 83.807 242.585 85.9642H244.585C244.585 84.8432 245.445 83.9481 246.51 83.8988L246.417 81.9009ZM250.377 85.732C250.33 83.5813 248.583 81.8998 246.464 81.8998V83.8998C247.503 83.8998 248.354 84.7197 248.377 85.7758L250.377 85.732ZM246.647 89.8138C248.782 89.7223 250.47 87.8984 250.376 85.7111L248.378 85.7967C248.425 86.8876 247.586 87.7717 246.561 87.8156L246.647 89.8138ZM273.509 72.998C273.509 71.8858 274.355 71.028 275.41 71.0047L275.366 69.0052C273.191 69.0532 271.509 70.8322 271.509 72.998H273.509ZM273.509 73.0337V72.998H271.509V73.0337H273.509ZM275.471 74.8809C274.4 74.9045 273.532 74.0863 273.509 73.0122L271.51 73.0551C271.557 75.252 273.357 76.928 275.515 76.8804L275.471 74.8809ZM277.301 72.8769C277.325 73.9928 276.471 74.8606 275.473 74.8808L275.513 76.8804C277.675 76.8366 279.347 74.9963 279.301 72.8341L277.301 72.8769ZM275.388 71.005C276.402 71.005 277.254 71.8323 277.302 72.9001L279.3 72.8109C279.207 70.736 277.533 69.005 275.388 69.005V71.005Z" fill="url(#paint1_linear)" mask="url(#path-14-outside-1)"/>
    </g>
    <g filter="url(#filter2_bd)">
        <mask id="path-16-inside-2" fill="white">
            <path fill-rule="evenodd" clip-rule="evenodd" d="M250.572 45.2729C250.572 46.8443 249.413 48.0166 247.869 48.0166C246.324 48.0166 245.166 46.8443 245.166 45.2729V34.4088C245.166 32.8375 246.324 31.6616 247.869 31.6616C249.413 31.6616 250.572 32.8375 250.572 34.4088V45.2729ZM276.826 45.273C276.826 46.8444 275.633 48.0166 274.123 48.0166C272.579 48.0166 271.421 46.8444 271.421 45.273V34.4089C271.421 32.8375 272.579 31.6617 274.123 31.6617C275.633 31.6617 276.826 32.8375 276.826 34.4089V45.273Z"/>
        </mask>
        <path fill-rule="evenodd" clip-rule="evenodd" d="M250.572 45.2729C250.572 46.8443 249.413 48.0166 247.869 48.0166C246.324 48.0166 245.166 46.8443 245.166 45.2729V34.4088C245.166 32.8375 246.324 31.6616 247.869 31.6616C249.413 31.6616 250.572 32.8375 250.572 34.4088V45.2729ZM276.826 45.273C276.826 46.8444 275.633 48.0166 274.123 48.0166C272.579 48.0166 271.421 46.8444 271.421 45.273V34.4089C271.421 32.8375 272.579 31.6617 274.123 31.6617C275.633 31.6617 276.826 32.8375 276.826 34.4089V45.273Z" fill="url(#paint2_linear)"/>
        <path d="M247.869 48.4166C249.639 48.4166 250.972 47.0599 250.972 45.2729H250.172C250.172 46.6287 249.187 47.6166 247.869 47.6166V48.4166ZM244.766 45.2729C244.766 47.0599 246.098 48.4166 247.869 48.4166V47.6166C246.551 47.6166 245.566 46.6287 245.566 45.2729H244.766ZM244.766 34.4088V45.2729H245.566V34.4088H244.766ZM247.869 31.2616C246.097 31.2616 244.766 32.6226 244.766 34.4088H245.566C245.566 33.0524 246.551 32.0616 247.869 32.0616V31.2616ZM250.972 34.4088C250.972 32.6226 249.64 31.2616 247.869 31.2616V32.0616C249.186 32.0616 250.172 33.0524 250.172 34.4088H250.972ZM250.972 45.2729V34.4088H250.172V45.2729H250.972ZM274.123 48.4166C275.855 48.4166 277.226 47.0634 277.226 45.273H276.426C276.426 46.6253 275.41 47.6166 274.123 47.6166V48.4166ZM271.021 45.273C271.021 47.0599 272.353 48.4166 274.123 48.4166V47.6166C272.805 47.6166 271.821 46.6288 271.821 45.273H271.021ZM271.021 34.4089V45.273H271.821V34.4089H271.021ZM274.123 31.2617C272.352 31.2617 271.021 32.6226 271.021 34.4089H271.821C271.821 33.0524 272.806 32.0617 274.123 32.0617V31.2617ZM277.226 34.4089C277.226 32.6192 275.856 31.2617 274.123 31.2617V32.0617C275.409 32.0617 276.426 33.0559 276.426 34.4089H277.226ZM277.226 45.273V34.4089H276.426V45.273H277.226Z" fill="url(#paint3_linear)" mask="url(#path-16-inside-2)"/>
    </g>
    <g filter="url(#filter3_bd)">
        <mask id="path-18-inside-3" fill="white">
            <path fill-rule="evenodd" clip-rule="evenodd" d="M258.079 73.0659C258.149 74.7014 259.483 75.9877 261.098 75.9129C262.677 75.8452 263.941 74.4912 263.871 72.8486C263.836 71.2487 262.537 69.998 260.957 69.998C259.343 70.0729 258.079 71.4269 258.079 73.0659ZM272.504 85.9964C272.504 87.6355 273.803 88.9895 275.418 89.0251C277.067 89.0251 278.401 87.6711 278.401 85.9964C278.401 84.3253 277.067 82.9713 275.418 82.9713H275.383C273.768 83.0069 272.469 84.3574 272.504 85.9964ZM261.098 88.847C259.483 88.9218 258.149 87.6355 258.079 85.9964C258.079 84.3574 259.343 83.0069 260.957 82.9321C262.537 82.9321 263.836 84.1828 263.871 85.7862C263.941 87.4253 262.677 88.7793 261.098 88.847ZM243.655 73.0662C243.725 74.7017 245.059 75.988 246.673 75.9131C248.253 75.8454 249.516 74.4914 249.446 72.8488C249.411 71.2489 248.112 69.9983 246.533 69.9983C244.918 70.0731 243.655 71.4271 243.655 73.0662ZM246.636 88.847C245.021 88.9218 243.687 87.6355 243.617 85.9964C243.617 84.3574 244.881 83.0069 246.495 82.9321C248.075 82.9321 249.374 84.1828 249.409 85.7862C249.479 87.4253 248.215 88.7793 246.636 88.847ZM275.417 70.0372C273.803 70.0729 272.539 71.3912 272.539 73.0303V73.0659C272.574 74.7014 273.908 75.9485 275.523 75.9129C277.102 75.8808 278.366 74.5268 278.331 72.8878C278.261 71.3164 276.997 70.0372 275.417 70.0372Z"/>
        </mask>
        <path fill-rule="evenodd" clip-rule="evenodd" d="M258.079 73.0659C258.149 74.7014 259.483 75.9877 261.098 75.9129C262.677 75.8452 263.941 74.4912 263.871 72.8486C263.836 71.2487 262.537 69.998 260.957 69.998C259.343 70.0729 258.079 71.4269 258.079 73.0659ZM272.504 85.9964C272.504 87.6355 273.803 88.9895 275.418 89.0251C277.067 89.0251 278.401 87.6711 278.401 85.9964C278.401 84.3253 277.067 82.9713 275.418 82.9713H275.383C273.768 83.0069 272.469 84.3574 272.504 85.9964ZM261.098 88.847C259.483 88.9218 258.149 87.6355 258.079 85.9964C258.079 84.3574 259.343 83.0069 260.957 82.9321C262.537 82.9321 263.836 84.1828 263.871 85.7862C263.941 87.4253 262.677 88.7793 261.098 88.847ZM243.655 73.0662C243.725 74.7017 245.059 75.988 246.673 75.9131C248.253 75.8454 249.516 74.4914 249.446 72.8488C249.411 71.2489 248.112 69.9983 246.533 69.9983C244.918 70.0731 243.655 71.4271 243.655 73.0662ZM246.636 88.847C245.021 88.9218 243.687 87.6355 243.617 85.9964C243.617 84.3574 244.881 83.0069 246.495 82.9321C248.075 82.9321 249.374 84.1828 249.409 85.7862C249.479 87.4253 248.215 88.7793 246.636 88.847ZM275.417 70.0372C273.803 70.0729 272.539 71.3912 272.539 73.0303V73.0659C272.574 74.7014 273.908 75.9485 275.523 75.9129C277.102 75.8808 278.366 74.5268 278.331 72.8878C278.261 71.3164 276.997 70.0372 275.417 70.0372Z" fill="url(#paint4_linear)"/>
        <path d="M261.098 75.9129L261.081 75.5133L261.079 75.5133L261.098 75.9129ZM258.079 73.0659H257.679V73.0745L257.68 73.0831L258.079 73.0659ZM263.871 72.8486L263.471 72.8574L263.471 72.8657L263.871 72.8486ZM260.957 69.998V69.598H260.948L260.939 69.5985L260.957 69.998ZM275.418 89.0251L275.409 89.4251H275.418V89.0251ZM272.504 85.9964H272.904L272.904 85.9879L272.504 85.9964ZM275.383 82.9713V82.5712L275.374 82.5714L275.383 82.9713ZM258.079 85.9964H257.679V86.005L257.68 86.0136L258.079 85.9964ZM261.098 88.847L261.081 88.4474L261.079 88.4474L261.098 88.847ZM260.957 82.9321V82.5321H260.948L260.939 82.5325L260.957 82.9321ZM263.871 85.7862L263.471 85.795L263.471 85.8033L263.871 85.7862ZM246.673 75.9131L246.656 75.5135L246.655 75.5136L246.673 75.9131ZM243.655 73.0662H243.255V73.0747L243.255 73.0833L243.655 73.0662ZM249.446 72.8488L249.046 72.8576L249.047 72.8659L249.446 72.8488ZM246.533 69.9983V69.5983H246.524L246.514 69.5987L246.533 69.9983ZM243.617 85.9964H243.217V86.005L243.218 86.0136L243.617 85.9964ZM246.636 88.847L246.619 88.4474L246.617 88.4474L246.636 88.847ZM246.495 82.9321V82.5321H246.486L246.477 82.5325L246.495 82.9321ZM249.409 85.7862L249.009 85.795L249.009 85.8033L249.409 85.7862ZM275.417 70.0372V69.6371L275.409 69.6373L275.417 70.0372ZM272.539 73.0659H272.139L272.139 73.0745L272.539 73.0659ZM275.523 75.9129L275.515 75.513L275.514 75.513L275.523 75.9129ZM278.331 72.8878L278.731 72.8792L278.73 72.8699L278.331 72.8878ZM261.079 75.5133C259.7 75.5773 258.54 74.4773 258.479 73.0488L257.68 73.0831C257.759 74.9255 259.267 76.3982 261.116 76.3125L261.079 75.5133ZM263.471 72.8657C263.532 74.2894 262.438 75.4551 261.081 75.5133L261.115 76.3126C262.917 76.2353 264.35 74.6931 264.271 72.8315L263.471 72.8657ZM260.957 70.398C262.321 70.398 263.441 71.4767 263.471 72.8574L264.271 72.8398C264.231 71.0207 262.753 69.598 260.957 69.598V70.398ZM258.479 73.0659C258.479 71.6335 259.582 70.4622 260.976 70.3976L260.939 69.5985C259.104 69.6835 257.679 71.2202 257.679 73.0659H258.479ZM275.426 88.6252C274.036 88.5945 272.904 87.4246 272.904 85.9964H272.104C272.104 87.8464 273.57 89.3845 275.409 89.425L275.426 88.6252ZM278.001 85.9964C278.001 87.4559 276.841 88.6251 275.418 88.6251V89.4251C277.294 89.4251 278.801 87.8864 278.801 85.9964H278.001ZM275.418 83.3713C276.841 83.3713 278.001 84.5409 278.001 85.9964H278.801C278.801 84.1098 277.294 82.5713 275.418 82.5713V83.3713ZM275.383 83.3713H275.418V82.5713H275.383V83.3713ZM272.904 85.9879C272.874 84.5685 273.999 83.402 275.391 83.3712L275.374 82.5714C273.537 82.6119 272.065 84.1463 272.104 86.005L272.904 85.9879ZM257.68 86.0136C257.759 87.8593 259.266 89.3323 261.116 89.2466L261.079 88.4474C259.7 88.5113 258.54 87.4117 258.479 85.9793L257.68 86.0136ZM260.939 82.5325C259.104 82.6176 257.679 84.1501 257.679 85.9964H258.479C258.479 84.5646 259.581 83.3963 260.976 83.3317L260.939 82.5325ZM264.271 85.7775C264.231 83.9551 262.753 82.5321 260.957 82.5321V83.3321C262.321 83.3321 263.441 84.4105 263.471 85.795L264.271 85.7775ZM261.115 89.2466C262.917 89.1694 264.35 87.6274 264.271 85.7691L263.471 85.8033C263.532 87.2231 262.438 88.3892 261.081 88.4474L261.115 89.2466ZM246.655 75.5136C245.275 75.5775 244.115 74.4776 244.054 73.049L243.255 73.0833C243.334 74.9258 244.842 76.3984 246.692 76.3127L246.655 75.5136ZM249.047 72.8659C249.107 74.2896 248.013 75.4553 246.656 75.5135L246.69 76.3128C248.492 76.2355 249.925 74.6933 249.846 72.8317L249.047 72.8659ZM246.533 70.3983C247.897 70.3983 249.016 71.4769 249.046 72.8576L249.846 72.84C249.806 71.021 248.328 69.5983 246.533 69.5983V70.3983ZM244.055 73.0662C244.055 71.6338 245.157 70.4625 246.551 70.3978L246.514 69.5987C244.679 69.6837 243.255 71.2204 243.255 73.0662H244.055ZM243.218 86.0136C243.297 87.8593 244.804 89.3323 246.654 89.2466L246.617 88.4474C245.238 88.5113 244.078 87.4117 244.017 85.9793L243.218 86.0136ZM246.477 82.5325C244.642 82.6176 243.217 84.1501 243.217 85.9964H244.017C244.017 84.5646 245.119 83.3963 246.514 83.3317L246.477 82.5325ZM249.809 85.7775C249.769 83.9551 248.291 82.5321 246.495 82.5321V83.3321C247.859 83.3321 248.979 84.4105 249.009 85.795L249.809 85.7775ZM246.653 89.2466C248.455 89.1694 249.888 87.6274 249.809 85.7691L249.009 85.8033C249.07 87.2231 247.976 88.3892 246.619 88.4474L246.653 89.2466ZM272.939 73.0303C272.939 71.602 274.036 70.4678 275.426 70.4371L275.409 69.6373C273.57 69.6779 272.139 71.1805 272.139 73.0303H272.939ZM272.939 73.0659V73.0303H272.139V73.0659H272.939ZM275.514 75.513C274.117 75.5438 272.969 74.4683 272.939 73.0573L272.139 73.0745C272.179 74.9346 273.7 76.3532 275.532 76.3128L275.514 75.513ZM277.931 72.8963C277.962 74.3261 276.861 75.4856 275.515 75.513L275.531 76.3128C277.343 76.276 278.77 74.7275 278.731 72.8792L277.931 72.8963ZM275.417 70.4372C276.771 70.4372 277.87 71.5357 277.931 72.9056L278.73 72.8699C278.651 71.0972 277.223 69.6372 275.417 69.6372V70.4372Z" fill="url(#paint5_linear)" mask="url(#path-18-inside-3)"/>
    </g>
    <g opacity="0.5" filter="url(#filter4_b)">
        <path d="M232.283 57.788C232.283 59.3017 233.452 60.4985 235.019 60.4985L285.667 60.4985C287.234 60.4985 288.406 59.3017 288.406 57.788C288.406 56.2392 287.234 55.0775 285.667 55.0775L235.019 55.0775C233.452 55.0775 232.283 56.2392 232.283 57.788Z" fill="url(#paint6_linear)" fill-opacity="0.5"/>
    </g>
    <defs>
        <filter id="filter0_f" x="202.512" y="10.6267" width="84.2717" height="88.9936" filterUnits="userSpaceOnUse" color-interpolation-filters="sRGB">
            <feFlood flood-opacity="0" result="BackgroundImageFix"/>
            <feBlend mode="normal" in="SourceGraphic" in2="BackgroundImageFix" result="shape"/>
            <feGaussianBlur stdDeviation="9.5" result="effect1_foregroundBlur"/>
        </filter>
        <filter id="filter1_b" x="204.02" y="11.9702" width="113.954" height="115.955" filterUnits="userSpaceOnUse" color-interpolation-filters="sRGB">
            <feFlood flood-opacity="0" result="BackgroundImageFix"/>
            <feGaussianBlur in="BackgroundImage" stdDeviation="12"/>
            <feComposite in2="SourceAlpha" operator="in" result="effect1_backgroundBlur"/>
            <feBlend mode="normal" in="SourceGraphic" in2="effect1_backgroundBlur" result="shape"/>
        </filter>
        <filter id="filter2_bd" x="230.166" y="16.6616" width="61.6601" height="46.355" filterUnits="userSpaceOnUse" color-interpolation-filters="sRGB">
            <feFlood flood-opacity="0" result="BackgroundImageFix"/>
            <feGaussianBlur in="BackgroundImage" stdDeviation="7.5"/>
            <feComposite in2="SourceAlpha" operator="in" result="effect1_backgroundBlur"/>
            <feColorMatrix in="SourceAlpha" type="matrix" values="0 0 0 0 0 0 0 0 0 0 0 0 0 0 0 0 0 0 127 0"/>
            <feOffset dx="5" dy="5"/>
            <feGaussianBlur stdDeviation="5"/>
            <feColorMatrix type="matrix" values="0 0 0 0 0.623529 0 0 0 0 0.423529 0 0 0 0 0.878431 0 0 0 0.2 0"/>
            <feBlend mode="normal" in2="effect1_backgroundBlur" result="effect2_dropShadow"/>
            <feBlend mode="normal" in="SourceGraphic" in2="effect2_dropShadow" result="shape"/>
        </filter>
        <filter id="filter3_bd" x="228.617" y="54.998" width="64.7841" height="49.0271" filterUnits="userSpaceOnUse" color-interpolation-filters="sRGB">
            <feFlood flood-opacity="0" result="BackgroundImageFix"/>
            <feGaussianBlur in="BackgroundImage" stdDeviation="7.5"/>
            <feComposite in2="SourceAlpha" operator="in" result="effect1_backgroundBlur"/>
            <feColorMatrix in="SourceAlpha" type="matrix" values="0 0 0 0 0 0 0 0 0 0 0 0 0 0 0 0 0 0 127 0"/>
            <feOffset dx="5" dy="5"/>
            <feGaussianBlur stdDeviation="5"/>
            <feColorMatrix type="matrix" values="0 0 0 0 0.619608 0 0 0 0 0.419608 0 0 0 0 0.882353 0 0 0 0.5 0"/>
            <feBlend mode="normal" in2="effect1_backgroundBlur" result="effect2_dropShadow"/>
            <feBlend mode="normal" in="SourceGraphic" in2="effect2_dropShadow" result="shape"/>
        </filter>
        <filter id="filter4_b" x="217.283" y="40.0775" width="86.1234" height="35.421" filterUnits="userSpaceOnUse" color-interpolation-filters="sRGB">
            <feFlood flood-opacity="0" result="BackgroundImageFix"/>
            <feGaussianBlur in="BackgroundImage" stdDeviation="7.5"/>
            <feComposite in2="SourceAlpha" operator="in" result="effect1_backgroundBlur"/>
            <feBlend mode="normal" in="SourceGraphic" in2="effect1_backgroundBlur" result="shape"/>
        </filter>
        <linearGradient id="paint0_linear" x1="258.651" y1="25.035" x2="231.174" y2="84.3138" gradientUnits="userSpaceOnUse">
            <stop stop-color="#B983FE"/>
            <stop offset="0.244792" stop-color="#AC76F1"/>
            <stop offset="1" stop-color="#9A64E0"/>
        </linearGradient>
        <linearGradient id="paint1_linear" x1="239.2" y1="44.654" x2="281.527" y2="95.4868" gradientUnits="userSpaceOnUse">
            <stop stop-color="white" stop-opacity="0.25"/>
            <stop offset="1" stop-color="white" stop-opacity="0"/>
        </linearGradient>
        <linearGradient id="paint2_linear" x1="274.917" y1="45.4786" x2="275.874" y2="33.1948" gradientUnits="userSpaceOnUse">
            <stop stop-color="white"/>
            <stop offset="1" stop-color="white" stop-opacity="0.2"/>
        </linearGradient>
        <linearGradient id="paint3_linear" x1="274.047" y1="34.1346" x2="286.929" y2="38.9523" gradientUnits="userSpaceOnUse">
            <stop stop-color="white" stop-opacity="0.25"/>
            <stop offset="1" stop-color="white" stop-opacity="0"/>
        </linearGradient>
        <linearGradient id="paint4_linear" x1="275.935" y1="73.434" x2="217.285" y2="69.5808" gradientUnits="userSpaceOnUse">
            <stop stop-color="white"/>
            <stop offset="1" stop-color="white" stop-opacity="0.2"/>
        </linearGradient>
        <linearGradient id="paint5_linear" x1="249.154" y1="72.2147" x2="258.331" y2="92.9936" gradientUnits="userSpaceOnUse">
            <stop stop-color="white" stop-opacity="0.25"/>
            <stop offset="1" stop-color="white" stop-opacity="0"/>
        </linearGradient>
        <linearGradient id="paint6_linear" x1="247.431" y1="57.7115" x2="245.408" y2="51.3942" gradientUnits="userSpaceOnUse">
            <stop stop-color="white"/>
            <stop offset="1" stop-color="white" stop-opacity="0.2"/>
        </linearGradient>
    </defs>
</svg>
