<svg width="326" height="125" viewBox="0 0 326 125" fill="none" xmlns="http://www.w3.org/2000/svg">
    <g opacity="0.8">
        <path d="M146 51.9999C220.5 -0.999756 326 22.9999 326 22.9999V88C326 104.971 326 113.456 320.728 118.728C315.456 124 306.971 124 290 124L13.5 124C13.5 124 71.5 105 146 51.9999Z" fill="#464B56"/>
    </g>
    <g opacity="0.5">
        <path d="M180 52.4205C105.5 -0.579102 0 23.4206 0 23.4206V88.4206C0 105.391 0 113.876 5.27206 119.149C10.5442 124.421 19.0294 124.421 36 124.421L312.5 124.421C312.5 124.421 254.5 105.42 180 52.4205Z" fill="#373D48"/>
    </g>
    <path fill-rule="evenodd" clip-rule="evenodd" d="M277.839 35.6804C277.98 35.4381 278.331 35.4381 278.472 35.6804L278.996 36.5798C279.013 36.6094 279.042 36.6304 279.075 36.6377L280.092 36.858C280.367 36.9173 280.475 37.2504 280.288 37.4595L279.594 38.2357C279.572 38.2612 279.561 38.2952 279.564 38.3292L279.669 39.3648C279.697 39.6439 279.414 39.8497 279.157 39.7366L278.205 39.3169C278.173 39.303 278.138 39.303 278.106 39.3169L277.154 39.7366C276.897 39.8497 276.614 39.6439 276.642 39.3648L276.747 38.3292C276.75 38.2952 276.739 38.2612 276.717 38.2357L276.023 37.4595C275.836 37.2504 275.944 36.9173 276.219 36.858L277.236 36.6377C277.269 36.6304 277.298 36.6094 277.315 36.5798L277.839 35.6804ZM278.261 35.8033C278.214 35.7225 278.097 35.7225 278.05 35.8033L277.526 36.7026C277.475 36.7914 277.388 36.8544 277.287 36.8761L276.27 37.0964C276.179 37.1162 276.143 37.2272 276.205 37.297L276.899 38.0731C276.967 38.1497 277 38.2516 276.99 38.3538L276.885 39.3894C276.875 39.4824 276.97 39.551 277.055 39.5133L278.008 39.0936C278.102 39.0521 278.209 39.0521 278.303 39.0936L279.256 39.5133C279.341 39.551 279.436 39.4824 279.426 39.3894L279.321 38.3538C279.311 38.2516 279.344 38.1497 279.412 38.0731L280.106 37.297C280.168 37.2272 280.132 37.1162 280.041 37.0964L279.024 36.8761C278.923 36.8544 278.836 36.7914 278.785 36.7026L278.261 35.8033Z" fill="#B9C0DE"/>
    <path opacity="0.796364" fill-rule="evenodd" clip-rule="evenodd" d="M222.165 15.8633C222.245 16.1324 222.004 16.387 221.731 16.3233L219.497 15.8019C219.463 15.7942 219.428 15.8008 219.4 15.8201L217.507 17.1175C217.276 17.2761 216.959 17.1262 216.936 16.8467L216.741 14.5603C216.738 14.5262 216.721 14.4949 216.694 14.474L214.875 13.0749C214.653 12.9039 214.697 12.5566 214.956 12.4476L217.07 11.5559C217.102 11.5425 217.126 11.5166 217.138 11.4843L217.906 9.32221C218 9.0579 218.344 8.9932 218.528 9.20532L220.029 10.9406C220.052 10.9665 220.084 10.9818 220.118 10.9827L222.412 11.0456C222.692 11.0532 222.86 11.3605 222.715 11.6007L221.529 13.5648C221.511 13.5941 221.507 13.6295 221.516 13.6624L222.165 15.8633ZM221.787 16.0857C221.878 16.1069 221.958 16.022 221.931 15.9324L221.282 13.7314C221.253 13.6329 221.267 13.5266 221.32 13.4387L222.506 11.4745C222.555 11.3945 222.499 11.292 222.405 11.2895L220.112 11.2266C220.009 11.2238 219.912 11.1779 219.845 11.1002L218.343 9.36497C218.282 9.29427 218.168 9.31584 218.136 9.40394L217.368 11.566C217.333 11.6629 217.26 11.7407 217.165 11.7807L215.051 12.6724C214.965 12.7087 214.95 12.8245 215.024 12.8815L216.842 14.2806C216.924 14.3432 216.975 14.4372 216.984 14.5396L217.179 16.826C217.187 16.9192 217.292 16.9691 217.369 16.9163L219.262 15.6189C219.347 15.5608 219.452 15.541 219.552 15.5643L221.787 16.0857Z" fill="#B9C0DE"/>
    <path opacity="0.73011" fill-rule="evenodd" clip-rule="evenodd" d="M215.725 93.8262C215.997 93.8928 216.097 94.2286 215.904 94.4327L214.772 95.6336C214.749 95.6586 214.737 95.6922 214.74 95.7264L214.862 97.3721C214.883 97.6518 214.594 97.85 214.341 97.7301L212.849 97.0248C212.818 97.0102 212.782 97.0092 212.751 97.0222L211.223 97.6473C210.964 97.7536 210.686 97.5403 210.722 97.2621L210.931 95.6253C210.936 95.5913 210.926 95.557 210.903 95.5309L209.837 94.2716C209.656 94.0575 209.773 93.7275 210.048 93.6754L211.67 93.3691C211.704 93.3627 211.733 93.3425 211.751 93.3134L212.619 91.91C212.767 91.6714 213.117 91.6807 213.251 91.9268L214.044 93.3743C214.06 93.4043 214.089 93.4261 214.122 93.4342L215.725 93.8262ZM215.727 94.2654C215.791 94.1973 215.758 94.0854 215.667 94.0632L214.064 93.6712C213.964 93.6468 213.879 93.5816 213.83 93.4915L213.037 92.0439C212.992 91.9619 212.876 91.9588 212.827 92.0383L211.958 93.4418C211.904 93.5291 211.816 93.5898 211.715 93.6089L210.094 93.9152C210.002 93.9325 209.963 94.0426 210.023 94.1139L211.09 95.3732C211.156 95.4516 211.186 95.5544 211.173 95.6563L210.964 97.2931C210.952 97.3859 211.044 97.457 211.131 97.4215L212.658 96.7964C212.753 96.7575 212.86 96.7603 212.953 96.8042L214.445 97.5095C214.53 97.5495 214.626 97.4834 214.619 97.3902L214.496 95.7445C214.489 95.642 214.524 95.5411 214.595 95.4663L215.727 94.2654Z" fill="#B9C0DE"/>
    <path opacity="0.902331" d="M300.779 64.4661C300.902 64.6066 300.828 64.828 300.645 64.866L298.398 65.3318C298.331 65.3457 298.273 65.3872 298.238 65.446L297.066 67.4186C296.97 67.5794 296.737 67.5773 296.644 67.4149L295.507 65.4219C295.473 65.3624 295.415 65.32 295.349 65.3049L293.11 64.7994C292.928 64.7583 292.858 64.5356 292.984 64.3973L294.527 62.6997C294.574 62.6491 294.596 62.5813 294.59 62.5131L294.379 60.2282C294.362 60.042 294.552 59.9064 294.722 59.9834L296.814 60.9272C296.876 60.9553 296.948 60.956 297.011 60.9289L299.118 60.0222C299.29 59.9483 299.478 60.0871 299.457 60.273L299.206 62.5539C299.199 62.622 299.22 62.6901 299.265 62.7416L300.779 64.4661Z" fill="#B9C0DE"/>
    <path opacity="0.370759" d="M205.506 43.7458C205.563 43.5675 205.791 43.5162 205.918 43.6532L206.847 44.6536C206.894 44.7038 206.96 44.7321 207.028 44.7315L208.394 44.7206C208.581 44.7191 208.7 44.9199 208.609 45.0833L207.945 46.2764C207.911 46.3363 207.905 46.4074 207.926 46.4724L208.359 47.7677C208.418 47.945 208.264 48.1204 208.08 48.0843L206.74 47.8213C206.673 47.8081 206.603 47.8238 206.548 47.8645L205.45 48.676C205.299 48.7871 205.085 48.6947 205.063 48.509L204.899 47.1534C204.89 47.0854 204.854 47.0239 204.798 46.9841L203.687 46.1903C203.535 46.0816 203.557 45.8492 203.726 45.7705L204.965 45.1956C205.027 45.1668 205.074 45.1131 205.095 45.0478L205.506 43.7458Z" fill="#B9C0DE"/>
    <path opacity="0.806242" d="M219.807 69.4221C219.713 69.5837 219.48 69.5837 219.386 69.4221L218.231 67.4394C218.196 67.3802 218.138 67.3382 218.071 67.3237L215.829 66.8381C215.646 66.7985 215.574 66.5765 215.698 66.4371L217.227 64.7259C217.273 64.6748 217.295 64.6069 217.288 64.5388L217.057 62.2558C217.038 62.0698 217.227 61.9325 217.398 62.0079L219.498 62.9332C219.561 62.9608 219.632 62.9608 219.695 62.9332L221.794 62.0078C221.966 61.9324 222.154 62.0696 222.136 62.2557L221.905 64.5386C221.898 64.6068 221.92 64.6747 221.965 64.7258L223.494 66.4368C223.619 66.5763 223.547 66.7983 223.364 66.8379L221.121 67.3236C221.054 67.3381 220.997 67.3801 220.962 67.4393L219.807 69.4221Z" fill="#B9C0DE"/>
    <path opacity="0.547916" d="M263.176 15.839C262.99 15.8619 262.849 15.6762 262.92 15.5034L263.799 13.3836C263.825 13.3204 263.824 13.249 263.795 13.1869L262.823 11.1081C262.744 10.9387 262.877 10.7468 263.063 10.7615L265.351 10.9421C265.419 10.9475 265.486 10.9239 265.537 10.8771L267.213 9.31073C267.35 9.18308 267.574 9.25028 267.617 9.43213L268.152 11.6635C268.168 11.7301 268.212 11.7869 268.272 11.8201L270.279 12.9308C270.443 13.0213 270.448 13.2547 270.289 13.3524L268.332 14.5509C268.274 14.5867 268.233 14.6454 268.22 14.7126L267.784 16.9655C267.748 17.1491 267.528 17.2261 267.386 17.1047L265.641 15.614C265.589 15.5695 265.521 15.549 265.453 15.5574L263.176 15.839Z" fill="#B9C0DE"/>
    <path opacity="0.392959" d="M264.687 112.212C264.606 112.381 264.373 112.399 264.266 112.246L262.957 110.361C262.918 110.305 262.857 110.267 262.789 110.258L260.515 109.953C260.33 109.928 260.24 109.712 260.353 109.563L261.741 107.736C261.783 107.681 261.799 107.612 261.787 107.544L261.375 105.287C261.341 105.103 261.519 104.951 261.695 105.013L263.862 105.768C263.927 105.791 263.998 105.785 264.058 105.753L266.078 104.663C266.242 104.574 266.441 104.696 266.437 104.883L266.389 107.177C266.387 107.246 266.415 107.312 266.464 107.359L268.124 108.943C268.26 109.072 268.205 109.299 268.026 109.353L265.829 110.016C265.764 110.035 265.71 110.082 265.68 110.144L264.687 112.212Z" fill="#B9C0DE"/>
    <path fill-rule="evenodd" clip-rule="evenodd" d="M224.519 22.9844C223.653 24.1862 221.741 28.2342 220.817 30.2896L222.429 30.9376L211.659 55.6293C206.859 66.6327 210.202 75.9657 220.142 79.847L244.696 89.434C254.73 93.352 263.933 89.0803 268.701 78.15L279.318 53.8099L279.604 53.9247C280.445 51.832 282.047 47.6226 282.295 46.2133C283.885 38.2121 280.586 31.3085 273.432 27.6012L244.318 15.8959C236.511 13.5465 229.237 16.1619 224.519 22.9844Z" fill="url(#paint0_linear)"/>
    <g opacity="0.5" filter="url(#filter0_f)">
        <path d="M260.378 34.1597L244.027 27.5409C238.096 25.1401 233.12 27.5264 230.51 34.0104L221.671 55.9709C219.019 62.5612 220.983 67.6581 226.914 70.0589L243.266 76.6776C249.292 79.1171 254.137 76.7764 256.789 70.1861L265.628 48.2256C268.238 41.7416 266.405 36.5992 260.378 34.1597Z" fill="#9A64E0"/>
    </g>
    <g filter="url(#filter1_b)">
        <mask id="path-13-outside-1" maskUnits="userSpaceOnUse" x="227.02" y="32.9701" width="66" height="68" fill="black">
            <rect fill="white" x="227.02" y="32.9701" width="66" height="68"/>
            <path fill-rule="evenodd" clip-rule="evenodd" d="M228.583 46.94C228.254 48.2762 228.078 52.4273 228.032 54.5189H291.962C291.917 52.4238 291.741 48.2406 291.415 46.94C289.73 39.493 283.938 34.6863 275.83 33.9701H244.168C235.99 34.6507 230.268 39.4253 228.583 46.94ZM228.02 54.5193V81.6457C228.02 92.9053 235.11 99.9248 246.237 99.9248H273.721C284.954 99.9248 291.974 93.0478 291.974 81.863V54.5193H228.02ZM242.621 70.0335C242.691 71.669 244.025 72.9553 245.64 72.8805C247.219 72.8128 248.483 71.4588 248.413 69.8162C248.378 68.2163 247.079 66.9656 245.499 66.9656C243.885 67.0405 242.621 68.3945 242.621 70.0335ZM257.047 70.0335C257.118 71.669 258.452 72.9553 260.066 72.8805C261.646 72.8128 262.909 71.4588 262.839 69.8162C262.804 68.2163 261.505 66.9656 259.926 66.9656C258.311 67.0405 257.047 68.3945 257.047 70.0335ZM271.475 82.964C271.475 84.6031 272.773 85.9571 274.388 85.9927C276.038 85.9927 277.372 84.6387 277.372 82.964C277.372 81.2929 276.038 79.9389 274.388 79.9389H274.353C272.738 79.9745 271.44 81.325 271.475 82.964ZM260.066 85.8146C258.452 85.8894 257.118 84.6031 257.047 82.964C257.047 81.325 258.311 79.9745 259.926 79.8997C261.505 79.8997 262.804 81.1504 262.839 82.7538C262.909 84.3929 261.646 85.7469 260.066 85.8146ZM245.604 85.8146C243.99 85.8894 242.656 84.6031 242.585 82.964C242.585 81.325 243.849 79.9745 245.464 79.8997C247.043 79.8997 248.342 81.1504 248.377 82.7538C248.447 84.3929 247.184 85.7469 245.604 85.8146ZM274.388 67.0048C272.773 67.0405 271.509 68.3588 271.509 69.9979V70.0335C271.545 71.669 272.878 72.9161 274.493 72.8805C276.073 72.8484 277.336 71.4944 277.301 69.8554C277.231 68.284 275.967 67.0048 274.388 67.0048Z"/>
        </mask>
        <path fill-rule="evenodd" clip-rule="evenodd" d="M228.583 46.94C228.254 48.2762 228.078 52.4273 228.032 54.5189H291.962C291.917 52.4238 291.741 48.2406 291.415 46.94C289.73 39.493 283.938 34.6863 275.83 33.9701H244.168C235.99 34.6507 230.268 39.4253 228.583 46.94ZM228.02 54.5193V81.6457C228.02 92.9053 235.11 99.9248 246.237 99.9248H273.721C284.954 99.9248 291.974 93.0478 291.974 81.863V54.5193H228.02ZM242.621 70.0335C242.691 71.669 244.025 72.9553 245.64 72.8805C247.219 72.8128 248.483 71.4588 248.413 69.8162C248.378 68.2163 247.079 66.9656 245.499 66.9656C243.885 67.0405 242.621 68.3945 242.621 70.0335ZM257.047 70.0335C257.118 71.669 258.452 72.9553 260.066 72.8805C261.646 72.8128 262.909 71.4588 262.839 69.8162C262.804 68.2163 261.505 66.9656 259.926 66.9656C258.311 67.0405 257.047 68.3945 257.047 70.0335ZM271.475 82.964C271.475 84.6031 272.773 85.9571 274.388 85.9927C276.038 85.9927 277.372 84.6387 277.372 82.964C277.372 81.2929 276.038 79.9389 274.388 79.9389H274.353C272.738 79.9745 271.44 81.325 271.475 82.964ZM260.066 85.8146C258.452 85.8894 257.118 84.6031 257.047 82.964C257.047 81.325 258.311 79.9745 259.926 79.8997C261.505 79.8997 262.804 81.1504 262.839 82.7538C262.909 84.3929 261.646 85.7469 260.066 85.8146ZM245.604 85.8146C243.99 85.8894 242.656 84.6031 242.585 82.964C242.585 81.325 243.849 79.9745 245.464 79.8997C247.043 79.8997 248.342 81.1504 248.377 82.7538C248.447 84.3929 247.184 85.7469 245.604 85.8146ZM274.388 67.0048C272.773 67.0405 271.509 68.3588 271.509 69.9979V70.0335C271.545 71.669 272.878 72.9161 274.493 72.8805C276.073 72.8484 277.336 71.4944 277.301 69.8554C277.231 68.284 275.967 67.0048 274.388 67.0048Z" fill="#D9E0FF" fill-opacity="0.3"/>
        <path d="M228.032 54.5189L227.033 54.4971C227.027 54.766 227.129 55.026 227.318 55.2183C227.506 55.4105 227.763 55.5189 228.032 55.5189V54.5189ZM228.583 46.94L229.554 47.1798C229.556 47.1728 229.558 47.1658 229.559 47.1588L228.583 46.94ZM291.962 54.5189V55.5189C292.231 55.5189 292.489 55.4105 292.677 55.2183C292.865 55.026 292.968 54.7661 292.962 54.4971L291.962 54.5189ZM291.415 46.94L290.439 47.1607C290.441 47.1683 290.443 47.1759 290.445 47.1835L291.415 46.94ZM275.83 33.9701L275.918 32.974C275.888 32.9714 275.859 32.9701 275.83 32.9701V33.9701ZM244.168 33.9701V32.9701C244.141 32.9701 244.113 32.9712 244.085 32.9735L244.168 33.9701ZM228.02 54.5193V53.5193C227.467 53.5193 227.02 53.967 227.02 54.5193H228.02ZM291.974 54.5193H292.974C292.974 53.967 292.526 53.5193 291.974 53.5193V54.5193ZM245.64 72.8805L245.597 71.8814L245.593 71.8816L245.64 72.8805ZM242.621 70.0335H241.621C241.621 70.0478 241.621 70.0621 241.622 70.0764L242.621 70.0335ZM248.413 69.8162L247.413 69.8381C247.413 69.845 247.413 69.852 247.414 69.8589L248.413 69.8162ZM245.499 66.9656V65.9656C245.484 65.9656 245.468 65.966 245.453 65.9667L245.499 66.9656ZM260.066 72.8805L260.023 71.8814L260.02 71.8816L260.066 72.8805ZM257.047 70.0335H256.047C256.047 70.0478 256.048 70.0621 256.048 70.0764L257.047 70.0335ZM262.839 69.8162L261.839 69.8381C261.84 69.845 261.84 69.852 261.84 69.8589L262.839 69.8162ZM259.926 66.9656V65.9656C259.91 65.9656 259.895 65.966 259.879 65.9667L259.926 66.9656ZM274.388 85.9927L274.366 86.9925C274.373 86.9927 274.381 86.9927 274.388 86.9927V85.9927ZM271.475 82.964H272.475C272.475 82.9569 272.475 82.9498 272.474 82.9426L271.475 82.964ZM274.353 79.9389V78.9389C274.346 78.9389 274.338 78.939 274.331 78.9391L274.353 79.9389ZM257.047 82.964H256.047C256.047 82.9783 256.048 82.9926 256.048 83.0068L257.047 82.964ZM260.066 85.8146L260.023 84.8155L260.02 84.8156L260.066 85.8146ZM259.926 79.8997V78.8997C259.91 78.8997 259.895 78.9001 259.879 78.9008L259.926 79.8997ZM262.839 82.7538L261.839 82.7757C261.84 82.7827 261.84 82.7896 261.84 82.7966L262.839 82.7538ZM242.585 82.964H241.585C241.585 82.9783 241.586 82.9926 241.586 83.0068L242.585 82.964ZM245.604 85.8146L245.561 84.8155L245.558 84.8156L245.604 85.8146ZM245.464 79.8997V78.8997C245.448 78.8997 245.433 78.9001 245.417 78.9008L245.464 79.8997ZM248.377 82.7538L247.377 82.7757C247.378 82.7827 247.378 82.7896 247.378 82.7966L248.377 82.7538ZM274.388 67.0048V66.0048C274.38 66.0048 274.373 66.0049 274.366 66.0051L274.388 67.0048ZM271.509 70.0335H270.509C270.509 70.0407 270.51 70.0478 270.51 70.055L271.509 70.0335ZM274.493 72.8805L274.473 71.8807L274.471 71.8807L274.493 72.8805ZM277.301 69.8554L278.301 69.834C278.301 69.8262 278.301 69.8185 278.3 69.8107L277.301 69.8554ZM229.032 54.5407C229.055 53.5054 229.11 51.9583 229.199 50.508C229.292 49.0204 229.415 47.7436 229.554 47.1798L227.613 46.7003C227.422 47.4726 227.293 48.9395 227.203 50.3844C227.111 51.8665 227.056 53.4408 227.033 54.4971L229.032 54.5407ZM291.962 53.5189H228.032V55.5189H291.962V53.5189ZM290.445 47.1835C290.581 47.7265 290.704 48.9987 290.796 50.4929C290.885 51.9473 290.94 53.5034 290.962 54.5407L292.962 54.4971C292.939 53.4392 292.883 51.8562 292.792 50.3701C292.703 48.9238 292.575 47.4541 292.385 46.6966L290.445 47.1835ZM275.742 34.9662C283.458 35.6478 288.859 40.1763 290.439 47.1607L292.39 46.7194C290.6 38.8098 284.418 33.7248 275.918 32.974L275.742 34.9662ZM244.168 34.9701H275.83V32.9701H244.168V34.9701ZM229.559 47.1588C231.141 40.1059 236.471 35.6141 244.251 34.9666L244.085 32.9735C235.508 33.6873 229.396 38.7447 227.608 46.7213L229.559 47.1588ZM229.02 81.6457V54.5193H227.02V81.6457H229.02ZM246.237 98.9248C240.887 98.9248 236.605 97.2413 233.663 94.3003C230.721 91.3596 229.02 87.0625 229.02 81.6457H227.02C227.02 87.4885 228.864 92.331 232.249 95.7148C235.634 99.0984 240.46 100.925 246.237 100.925V98.9248ZM273.721 98.9248H246.237V100.925H273.721V98.9248ZM290.974 81.863C290.974 87.2429 289.29 91.4823 286.357 94.3764C283.423 97.2721 279.132 98.9248 273.721 98.9248V100.925C279.543 100.925 284.378 99.139 287.762 95.8C291.148 92.4594 292.974 87.668 292.974 81.863H290.974ZM290.974 54.5193V81.863H292.974V54.5193H290.974ZM228.02 55.5193H291.974V53.5193H228.02V55.5193ZM245.593 71.8816C244.567 71.9291 243.668 71.1088 243.62 69.9906L241.622 70.0764C241.714 72.2293 243.483 73.9815 245.686 73.8794L245.593 71.8816ZM247.414 69.8589C247.46 70.9542 246.62 71.8376 245.597 71.8814L245.683 73.8796C247.818 73.7881 249.505 71.9634 249.412 69.7735L247.414 69.8589ZM245.499 67.9656C246.54 67.9656 247.39 68.7863 247.413 69.8381L249.412 69.7942C249.365 67.6464 247.618 65.9656 245.499 65.9656V67.9656ZM243.621 70.0335C243.621 68.9111 244.482 68.0138 245.546 67.9646L245.453 65.9667C243.287 66.0671 241.621 67.8778 241.621 70.0335H243.621ZM260.02 71.8816C258.993 71.9291 258.095 71.1088 258.047 69.9906L256.048 70.0764C256.141 72.2293 257.91 73.9815 260.112 73.8794L260.02 71.8816ZM261.84 69.8589C261.887 70.9542 261.047 71.8376 260.023 71.8814L260.109 73.8796C262.245 73.7881 263.932 71.9634 263.838 69.7735L261.84 69.8589ZM259.926 67.9656C260.966 67.9656 261.816 68.7863 261.839 69.8381L263.839 69.7942C263.792 67.6463 262.045 65.9656 259.926 65.9656V67.9656ZM258.047 70.0335C258.047 68.9111 258.909 68.0138 259.972 67.9646L259.879 65.9667C257.714 66.0671 256.047 67.8778 256.047 70.0335H258.047ZM274.41 84.993C273.355 84.9697 272.475 84.0759 272.475 82.964H270.475C270.475 85.1303 272.191 86.9445 274.366 86.9925L274.41 84.993ZM276.372 82.964C276.372 84.1006 275.471 84.9927 274.388 84.9927V86.9927C276.604 86.9927 278.372 85.1768 278.372 82.964H276.372ZM274.388 80.9389C275.472 80.9389 276.372 81.8318 276.372 82.964H278.372C278.372 80.754 276.603 78.9389 274.388 78.9389V80.9389ZM274.353 80.9389H274.388V78.9389H274.353V80.9389ZM272.474 82.9426C272.451 81.8527 273.315 80.9621 274.375 80.9387L274.331 78.9391C272.162 78.987 270.428 80.7973 270.475 82.9854L272.474 82.9426ZM256.048 83.0068C256.141 85.1625 257.909 86.9156 260.112 86.8135L260.02 84.8156C258.994 84.8632 258.095 84.0436 258.047 82.9212L256.048 83.0068ZM259.879 78.9008C257.715 79.0011 256.047 80.8068 256.047 82.964H258.047C258.047 81.8431 258.907 80.948 259.972 80.8986L259.879 78.9008ZM263.839 82.7319C263.792 80.5812 262.045 78.8997 259.926 78.8997V80.8997C260.965 80.8997 261.816 81.7196 261.839 82.7757L263.839 82.7319ZM260.109 86.8137C262.244 86.7222 263.932 84.8983 263.838 82.711L261.84 82.7966C261.887 83.8875 261.048 84.7716 260.023 84.8155L260.109 86.8137ZM241.586 83.0068C241.679 85.1625 243.447 86.9156 245.65 86.8135L245.558 84.8156C244.532 84.8632 243.633 84.0436 243.585 82.9212L241.586 83.0068ZM245.417 78.9008C243.253 79.0011 241.585 80.8068 241.585 82.964H243.585C243.585 81.8431 244.445 80.948 245.51 80.8986L245.417 78.9008ZM249.377 82.7319C249.33 80.5812 247.583 78.8997 245.464 78.8997V80.8997C246.503 80.8997 247.354 81.7196 247.377 82.7757L249.377 82.7319ZM245.647 86.8137C247.782 86.7222 249.47 84.8983 249.376 82.711L247.378 82.7966C247.425 83.8875 246.586 84.7716 245.561 84.8155L245.647 86.8137ZM272.509 69.9979C272.509 68.8856 273.355 68.0278 274.41 68.0046L274.366 66.0051C272.191 66.0531 270.509 67.832 270.509 69.9979H272.509ZM272.509 70.0335V69.9979H270.509V70.0335H272.509ZM274.471 71.8807C273.4 71.9044 272.532 71.0862 272.509 70.0121L270.51 70.055C270.557 72.2519 272.357 73.9279 274.515 73.8803L274.471 71.8807ZM276.301 69.8768C276.325 70.9927 275.471 71.8604 274.473 71.8807L274.513 73.8803C276.675 73.8364 278.347 71.9961 278.301 69.834L276.301 69.8768ZM274.388 68.0048C275.402 68.0048 276.254 68.8321 276.302 69.9L278.3 69.8107C278.207 67.7359 276.533 66.0048 274.388 66.0048V68.0048Z" fill="url(#paint1_linear)" mask="url(#path-13-outside-1)"/>
    </g>
    <g filter="url(#filter2_bd)">
        <mask id="path-15-inside-2" fill="white">
            <path fill-rule="evenodd" clip-rule="evenodd" d="M249.572 42.2729C249.572 43.8443 248.413 45.0166 246.869 45.0166C245.324 45.0166 244.166 43.8443 244.166 42.2729V31.4088C244.166 29.8375 245.324 28.6616 246.869 28.6616C248.413 28.6616 249.572 29.8375 249.572 31.4088V42.2729ZM275.826 42.273C275.826 43.8444 274.633 45.0166 273.123 45.0166C271.579 45.0166 270.421 43.8444 270.421 42.273V31.4089C270.421 29.8375 271.579 28.6617 273.123 28.6617C274.633 28.6617 275.826 29.8375 275.826 31.4089V42.273Z"/>
        </mask>
        <path fill-rule="evenodd" clip-rule="evenodd" d="M249.572 42.2729C249.572 43.8443 248.413 45.0166 246.869 45.0166C245.324 45.0166 244.166 43.8443 244.166 42.2729V31.4088C244.166 29.8375 245.324 28.6616 246.869 28.6616C248.413 28.6616 249.572 29.8375 249.572 31.4088V42.2729ZM275.826 42.273C275.826 43.8444 274.633 45.0166 273.123 45.0166C271.579 45.0166 270.421 43.8444 270.421 42.273V31.4089C270.421 29.8375 271.579 28.6617 273.123 28.6617C274.633 28.6617 275.826 29.8375 275.826 31.4089V42.273Z" fill="url(#paint2_linear)"/>
        <path d="M246.869 45.4166C248.639 45.4166 249.972 44.0599 249.972 42.2729H249.172C249.172 43.6287 248.187 44.6166 246.869 44.6166V45.4166ZM243.766 42.2729C243.766 44.0599 245.098 45.4166 246.869 45.4166V44.6166C245.551 44.6166 244.566 43.6287 244.566 42.2729H243.766ZM243.766 31.4088V42.2729H244.566V31.4088H243.766ZM246.869 28.2616C245.097 28.2616 243.766 29.6226 243.766 31.4088H244.566C244.566 30.0524 245.551 29.0616 246.869 29.0616V28.2616ZM249.972 31.4088C249.972 29.6226 248.64 28.2616 246.869 28.2616V29.0616C248.186 29.0616 249.172 30.0524 249.172 31.4088H249.972ZM249.972 42.2729V31.4088H249.172V42.2729H249.972ZM273.123 45.4166C274.855 45.4166 276.226 44.0634 276.226 42.273H275.426C275.426 43.6253 274.41 44.6166 273.123 44.6166V45.4166ZM270.021 42.273C270.021 44.0599 271.353 45.4166 273.123 45.4166V44.6166C271.805 44.6166 270.821 43.6288 270.821 42.273H270.021ZM270.021 31.4089V42.273H270.821V31.4089H270.021ZM273.123 28.2617C271.352 28.2617 270.021 29.6226 270.021 31.4089H270.821C270.821 30.0524 271.806 29.0617 273.123 29.0617V28.2617ZM276.226 31.4089C276.226 29.6192 274.856 28.2617 273.123 28.2617V29.0617C274.409 29.0617 275.426 30.0559 275.426 31.4089H276.226ZM276.226 42.273V31.4089H275.426V42.273H276.226Z" fill="url(#paint3_linear)" mask="url(#path-15-inside-2)"/>
    </g>
    <g filter="url(#filter3_bd)">
        <mask id="path-17-inside-3" fill="white">
            <path fill-rule="evenodd" clip-rule="evenodd" d="M257.079 70.0659C257.149 71.7014 258.483 72.9877 260.098 72.9129C261.677 72.8452 262.941 71.4912 262.871 69.8486C262.836 68.2487 261.537 66.998 259.957 66.998C258.343 67.0729 257.079 68.4269 257.079 70.0659ZM271.504 82.9964C271.504 84.6355 272.803 85.9895 274.418 86.0251C276.067 86.0251 277.401 84.6711 277.401 82.9964C277.401 81.3253 276.067 79.9713 274.418 79.9713H274.383C272.768 80.0069 271.469 81.3574 271.504 82.9964ZM260.098 85.847C258.483 85.9218 257.149 84.6355 257.079 82.9964C257.079 81.3574 258.343 80.0069 259.957 79.9321C261.537 79.9321 262.836 81.1828 262.871 82.7862C262.941 84.4253 261.677 85.7793 260.098 85.847ZM242.655 70.0662C242.725 71.7017 244.059 72.988 245.673 72.9131C247.253 72.8454 248.516 71.4914 248.446 69.8488C248.411 68.2489 247.112 66.9983 245.533 66.9983C243.918 67.0731 242.655 68.4271 242.655 70.0662ZM245.636 85.847C244.021 85.9218 242.687 84.6355 242.617 82.9964C242.617 81.3574 243.881 80.0069 245.495 79.9321C247.075 79.9321 248.374 81.1828 248.409 82.7862C248.479 84.4253 247.215 85.7793 245.636 85.847ZM274.417 67.0372C272.803 67.0729 271.539 68.3912 271.539 70.0303V70.0659C271.574 71.7014 272.908 72.9485 274.523 72.9129C276.102 72.8808 277.366 71.5268 277.331 69.8878C277.261 68.3164 275.997 67.0372 274.417 67.0372Z"/>
        </mask>
        <path fill-rule="evenodd" clip-rule="evenodd" d="M257.079 70.0659C257.149 71.7014 258.483 72.9877 260.098 72.9129C261.677 72.8452 262.941 71.4912 262.871 69.8486C262.836 68.2487 261.537 66.998 259.957 66.998C258.343 67.0729 257.079 68.4269 257.079 70.0659ZM271.504 82.9964C271.504 84.6355 272.803 85.9895 274.418 86.0251C276.067 86.0251 277.401 84.6711 277.401 82.9964C277.401 81.3253 276.067 79.9713 274.418 79.9713H274.383C272.768 80.0069 271.469 81.3574 271.504 82.9964ZM260.098 85.847C258.483 85.9218 257.149 84.6355 257.079 82.9964C257.079 81.3574 258.343 80.0069 259.957 79.9321C261.537 79.9321 262.836 81.1828 262.871 82.7862C262.941 84.4253 261.677 85.7793 260.098 85.847ZM242.655 70.0662C242.725 71.7017 244.059 72.988 245.673 72.9131C247.253 72.8454 248.516 71.4914 248.446 69.8488C248.411 68.2489 247.112 66.9983 245.533 66.9983C243.918 67.0731 242.655 68.4271 242.655 70.0662ZM245.636 85.847C244.021 85.9218 242.687 84.6355 242.617 82.9964C242.617 81.3574 243.881 80.0069 245.495 79.9321C247.075 79.9321 248.374 81.1828 248.409 82.7862C248.479 84.4253 247.215 85.7793 245.636 85.847ZM274.417 67.0372C272.803 67.0729 271.539 68.3912 271.539 70.0303V70.0659C271.574 71.7014 272.908 72.9485 274.523 72.9129C276.102 72.8808 277.366 71.5268 277.331 69.8878C277.261 68.3164 275.997 67.0372 274.417 67.0372Z" fill="url(#paint4_linear)"/>
        <path d="M260.098 72.9129L260.081 72.5133L260.079 72.5134L260.098 72.9129ZM257.079 70.0659H256.679V70.0745L256.68 70.0831L257.079 70.0659ZM262.871 69.8486L262.471 69.8574L262.471 69.8657L262.871 69.8486ZM259.957 66.998V66.598H259.948L259.939 66.5985L259.957 66.998ZM274.418 86.0251L274.409 86.4251H274.418V86.0251ZM271.504 82.9964H271.904L271.904 82.9879L271.504 82.9964ZM274.383 79.9713V79.5712L274.374 79.5714L274.383 79.9713ZM257.079 82.9964H256.679V83.005L256.68 83.0136L257.079 82.9964ZM260.098 85.847L260.081 85.4473L260.079 85.4474L260.098 85.847ZM259.957 79.9321V79.5321H259.948L259.939 79.5325L259.957 79.9321ZM262.871 82.7862L262.471 82.795L262.471 82.8033L262.871 82.7862ZM245.673 72.9131L245.656 72.5135L245.655 72.5136L245.673 72.9131ZM242.655 70.0662H242.255V70.0747L242.255 70.0833L242.655 70.0662ZM248.446 69.8488L248.046 69.8576L248.047 69.8659L248.446 69.8488ZM245.533 66.9983V66.5983H245.524L245.514 66.5987L245.533 66.9983ZM242.617 82.9964H242.217V83.005L242.218 83.0136L242.617 82.9964ZM245.636 85.847L245.619 85.4473L245.617 85.4474L245.636 85.847ZM245.495 79.9321V79.5321H245.486L245.477 79.5325L245.495 79.9321ZM248.409 82.7862L248.009 82.795L248.009 82.8033L248.409 82.7862ZM274.417 67.0372V66.6371L274.409 66.6373L274.417 67.0372ZM271.539 70.0659H271.139L271.139 70.0745L271.539 70.0659ZM274.523 72.9129L274.515 72.513L274.514 72.513L274.523 72.9129ZM277.331 69.8878L277.731 69.8792L277.73 69.8699L277.331 69.8878ZM260.079 72.5134C258.7 72.5773 257.54 71.4773 257.479 70.0488L256.68 70.0831C256.759 71.9255 258.267 73.3982 260.116 73.3125L260.079 72.5134ZM262.471 69.8657C262.532 71.2894 261.438 72.4551 260.081 72.5133L260.115 73.3126C261.917 73.2353 263.35 71.6931 263.271 69.8315L262.471 69.8657ZM259.957 67.398C261.321 67.398 262.441 68.4767 262.471 69.8574L263.271 69.8398C263.231 68.0207 261.753 66.598 259.957 66.598V67.398ZM257.479 70.0659C257.479 68.6335 258.582 67.4622 259.976 67.3976L259.939 66.5985C258.104 66.6835 256.679 68.2202 256.679 70.0659H257.479ZM274.426 85.6252C273.036 85.5945 271.904 84.4246 271.904 82.9964H271.104C271.104 84.8464 272.57 86.3845 274.409 86.425L274.426 85.6252ZM277.001 82.9964C277.001 84.4559 275.841 85.6251 274.418 85.6251V86.4251C276.294 86.4251 277.801 84.8864 277.801 82.9964H277.001ZM274.418 80.3713C275.841 80.3713 277.001 81.5408 277.001 82.9964H277.801C277.801 81.1098 276.294 79.5713 274.418 79.5713V80.3713ZM274.383 80.3713H274.418V79.5713H274.383V80.3713ZM271.904 82.9879C271.874 81.5685 272.999 80.4019 274.391 80.3712L274.374 79.5714C272.537 79.6119 271.065 81.1463 271.104 83.005L271.904 82.9879ZM256.68 83.0136C256.759 84.8593 258.266 86.3323 260.116 86.2466L260.079 85.4474C258.7 85.5113 257.54 84.4117 257.479 82.9793L256.68 83.0136ZM259.939 79.5325C258.104 79.6176 256.679 81.1501 256.679 82.9964H257.479C257.479 81.5646 258.581 80.3963 259.976 80.3317L259.939 79.5325ZM263.271 82.7775C263.231 80.9551 261.753 79.5321 259.957 79.5321V80.3321C261.321 80.3321 262.441 81.4105 262.471 82.795L263.271 82.7775ZM260.115 86.2466C261.917 86.1694 263.35 84.6274 263.271 82.7691L262.471 82.8033C262.532 84.2231 261.438 85.3892 260.081 85.4473L260.115 86.2466ZM245.655 72.5136C244.275 72.5775 243.115 71.4776 243.054 70.049L242.255 70.0833C242.334 71.9258 243.842 73.3984 245.692 73.3127L245.655 72.5136ZM248.047 69.8659C248.107 71.2896 247.013 72.4553 245.656 72.5135L245.69 73.3128C247.492 73.2355 248.925 71.6933 248.846 69.8317L248.047 69.8659ZM245.533 67.3983C246.897 67.3983 248.016 68.4769 248.046 69.8576L248.846 69.84C248.806 68.0209 247.328 66.5983 245.533 66.5983V67.3983ZM243.055 70.0662C243.055 68.6338 244.157 67.4624 245.551 67.3978L245.514 66.5987C243.679 66.6837 242.255 68.2204 242.255 70.0662H243.055ZM242.218 83.0136C242.297 84.8593 243.804 86.3323 245.654 86.2466L245.617 85.4474C244.238 85.5113 243.078 84.4117 243.017 82.9793L242.218 83.0136ZM245.477 79.5325C243.642 79.6176 242.217 81.1501 242.217 82.9964H243.017C243.017 81.5646 244.119 80.3963 245.514 80.3317L245.477 79.5325ZM248.809 82.7775C248.769 80.9551 247.291 79.5321 245.495 79.5321V80.3321C246.859 80.3321 247.979 81.4105 248.009 82.795L248.809 82.7775ZM245.653 86.2466C247.455 86.1694 248.888 84.6274 248.809 82.7691L248.009 82.8033C248.07 84.2231 246.976 85.3892 245.619 85.4473L245.653 86.2466ZM271.939 70.0303C271.939 68.602 273.036 67.4678 274.426 67.4371L274.409 66.6373C272.57 66.6779 271.139 68.1805 271.139 70.0303H271.939ZM271.939 70.0659V70.0303H271.139V70.0659H271.939ZM274.514 72.513C273.117 72.5438 271.969 71.4683 271.939 70.0573L271.139 70.0745C271.179 71.9346 272.7 73.3532 274.532 73.3128L274.514 72.513ZM276.931 69.8963C276.962 71.3261 275.862 72.4856 274.515 72.513L274.531 73.3128C276.343 73.276 277.77 71.7275 277.731 69.8792L276.931 69.8963ZM274.417 67.4372C275.771 67.4372 276.87 68.5357 276.931 69.9056L277.73 69.8699C277.651 68.0972 276.223 66.6372 274.417 66.6372V67.4372Z" fill="url(#paint5_linear)" mask="url(#path-17-inside-3)"/>
    </g>
    <g opacity="0.5" filter="url(#filter4_b)">
        <path d="M231.283 54.788C231.283 56.3017 232.452 57.4985 234.019 57.4985L284.667 57.4985C286.234 57.4985 287.406 56.3017 287.406 54.788C287.406 53.2392 286.234 52.0775 284.667 52.0775L234.019 52.0775C232.452 52.0775 231.283 53.2392 231.283 54.788Z" fill="url(#paint6_linear)" fill-opacity="0.5"/>
    </g>
    <defs>
        <filter id="filter0_f" x="201.512" y="7.62671" width="84.2717" height="88.9936" filterUnits="userSpaceOnUse" color-interpolation-filters="sRGB">
            <feFlood flood-opacity="0" result="BackgroundImageFix"/>
            <feBlend mode="normal" in="SourceGraphic" in2="BackgroundImageFix" result="shape"/>
            <feGaussianBlur stdDeviation="9.5" result="effect1_foregroundBlur"/>
        </filter>
        <filter id="filter1_b" x="203.02" y="8.97009" width="113.954" height="115.955" filterUnits="userSpaceOnUse" color-interpolation-filters="sRGB">
            <feFlood flood-opacity="0" result="BackgroundImageFix"/>
            <feGaussianBlur in="BackgroundImage" stdDeviation="12"/>
            <feComposite in2="SourceAlpha" operator="in" result="effect1_backgroundBlur"/>
            <feBlend mode="normal" in="SourceGraphic" in2="effect1_backgroundBlur" result="shape"/>
        </filter>
        <filter id="filter2_bd" x="229.166" y="13.6616" width="61.6601" height="46.355" filterUnits="userSpaceOnUse" color-interpolation-filters="sRGB">
            <feFlood flood-opacity="0" result="BackgroundImageFix"/>
            <feGaussianBlur in="BackgroundImage" stdDeviation="7.5"/>
            <feComposite in2="SourceAlpha" operator="in" result="effect1_backgroundBlur"/>
            <feColorMatrix in="SourceAlpha" type="matrix" values="0 0 0 0 0 0 0 0 0 0 0 0 0 0 0 0 0 0 127 0" result="hardAlpha"/>
            <feOffset dx="5" dy="5"/>
            <feGaussianBlur stdDeviation="5"/>
            <feColorMatrix type="matrix" values="0 0 0 0 0.623529 0 0 0 0 0.423529 0 0 0 0 0.878431 0 0 0 0.2 0"/>
            <feBlend mode="normal" in2="effect1_backgroundBlur" result="effect2_dropShadow"/>
            <feBlend mode="normal" in="SourceGraphic" in2="effect2_dropShadow" result="shape"/>
        </filter>
        <filter id="filter3_bd" x="227.617" y="51.998" width="64.7841" height="49.0271" filterUnits="userSpaceOnUse" color-interpolation-filters="sRGB">
            <feFlood flood-opacity="0" result="BackgroundImageFix"/>
            <feGaussianBlur in="BackgroundImage" stdDeviation="7.5"/>
            <feComposite in2="SourceAlpha" operator="in" result="effect1_backgroundBlur"/>
            <feColorMatrix in="SourceAlpha" type="matrix" values="0 0 0 0 0 0 0 0 0 0 0 0 0 0 0 0 0 0 127 0" result="hardAlpha"/>
            <feOffset dx="5" dy="5"/>
            <feGaussianBlur stdDeviation="5"/>
            <feColorMatrix type="matrix" values="0 0 0 0 0.619608 0 0 0 0 0.419608 0 0 0 0 0.882353 0 0 0 0.5 0"/>
            <feBlend mode="normal" in2="effect1_backgroundBlur" result="effect2_dropShadow"/>
            <feBlend mode="normal" in="SourceGraphic" in2="effect2_dropShadow" result="shape"/>
        </filter>
        <filter id="filter4_b" x="216.283" y="37.0775" width="86.1234" height="35.421" filterUnits="userSpaceOnUse" color-interpolation-filters="sRGB">
            <feFlood flood-opacity="0" result="BackgroundImageFix"/>
            <feGaussianBlur in="BackgroundImage" stdDeviation="7.5"/>
            <feComposite in2="SourceAlpha" operator="in" result="effect1_backgroundBlur"/>
            <feBlend mode="normal" in="SourceGraphic" in2="effect1_backgroundBlur" result="shape"/>
        </filter>
        <linearGradient id="paint0_linear" x1="260.77" y1="21.7515" x2="237.558" y2="86.9021" gradientUnits="userSpaceOnUse">
            <stop stop-color="#B983FE"/>
            <stop offset="0.244792" stop-color="#AC76F1"/>
            <stop offset="1" stop-color="#9A64E0"/>
        </linearGradient>
        <linearGradient id="paint1_linear" x1="238.2" y1="41.6539" x2="280.527" y2="92.4867" gradientUnits="userSpaceOnUse">
            <stop stop-color="white" stop-opacity="0.25"/>
            <stop offset="1" stop-color="white" stop-opacity="0"/>
        </linearGradient>
        <linearGradient id="paint2_linear" x1="273.917" y1="42.4786" x2="274.874" y2="30.1948" gradientUnits="userSpaceOnUse">
            <stop stop-color="white"/>
            <stop offset="1" stop-color="white" stop-opacity="0.2"/>
        </linearGradient>
        <linearGradient id="paint3_linear" x1="273.047" y1="31.1346" x2="285.929" y2="35.9523" gradientUnits="userSpaceOnUse">
            <stop stop-color="white" stop-opacity="0.25"/>
            <stop offset="1" stop-color="white" stop-opacity="0"/>
        </linearGradient>
        <linearGradient id="paint4_linear" x1="274.935" y1="70.434" x2="216.285" y2="66.5808" gradientUnits="userSpaceOnUse">
            <stop stop-color="white"/>
            <stop offset="1" stop-color="white" stop-opacity="0.2"/>
        </linearGradient>
        <linearGradient id="paint5_linear" x1="248.154" y1="69.2147" x2="257.331" y2="89.9936" gradientUnits="userSpaceOnUse">
            <stop stop-color="white" stop-opacity="0.25"/>
            <stop offset="1" stop-color="white" stop-opacity="0"/>
        </linearGradient>
        <linearGradient id="paint6_linear" x1="246.431" y1="54.7115" x2="244.408" y2="48.3942" gradientUnits="userSpaceOnUse">
            <stop stop-color="white"/>
            <stop offset="1" stop-color="white" stop-opacity="0.2"/>
        </linearGradient>
    </defs>
</svg>
