<svg width="326" height="107" viewBox="0 0 326 107" fill="none" xmlns="http://www.w3.org/2000/svg">
    <g opacity="0.8">
        <path d="M146 34.4205C220.5 -18.5791 326 5.42059 326 5.42059V70.4206C326 87.3912 326 95.8765 320.728 101.149C315.456 106.421 306.971 106.421 290 106.421L13.5 106.421C13.5 106.421 71.5 87.4202 146 34.4205Z" fill="#464B56"/>
    </g>
    <g opacity="0.5">
        <path d="M180 34.8412C105.5 -18.1584 0 5.84125 0 5.84125V70.8413C0 87.8118 0 96.2971 5.27206 101.569C10.5442 106.841 19.0294 106.841 36 106.841L312.5 106.841C312.5 106.841 254.5 87.8408 180 34.8412Z" fill="#373D48"/>
    </g>
</svg>
