<svg width="20" height="12" viewBox="0 0 20 12" fill="none" xmlns="http://www.w3.org/2000/svg">
    <path d="M2.51793 1.02383L2.51094 1.01779L2.50353 1.01229C2.06293 0.685376 1.43805 0.721452 1.03849 1.12101C0.599149 1.56035 0.599149 2.27266 1.03849 2.712L9.20516 10.8787L9.21163 10.8851L9.21857 10.8911L9.3167 10.9758L9.32369 10.9819L9.3311 10.9874C9.7717 11.3143 10.3966 11.2782 10.7961 10.8787L18.9628 2.712L18.9693 2.70552L18.9753 2.69859L19.06 2.60045L19.066 2.59346L19.0715 2.58605C19.3984 2.14545 19.3624 1.52057 18.9628 1.12101L18.9563 1.11453L18.9494 1.10855L18.8513 1.02383L18.8443 1.01779L18.8369 1.01229C18.3963 0.685376 17.7714 0.721452 17.3718 1.12101L10.0007 8.49179L2.62947 1.121L2.623 1.11453L2.61607 1.10855L2.51793 1.02383Z" fill="white" stroke="white" stroke-width="0.5"/>
</svg>
