<svg width="22" height="25" viewBox="0 0 22 25" fill="none" xmlns="http://www.w3.org/2000/svg">
    <path fill-rule="evenodd" clip-rule="evenodd" d="M7.7263 21.8937C7.99211 21.6735 8.38611 21.7105 8.60632 21.9763C8.88333 22.3107 9.20581 22.5683 9.55154 22.7411C9.89666 22.9137 10.261 23 10.625 23C10.989 23 11.3534 22.9137 11.6985 22.7411C12.0442 22.5683 12.3667 22.3107 12.6437 21.9763C12.8639 21.7105 13.2579 21.6735 13.5237 21.8937C13.7896 22.1139 13.8265 22.5079 13.6063 22.7737C13.2267 23.2319 12.7697 23.6031 12.2575 23.8592C11.7447 24.1156 11.1896 24.25 10.625 24.25C10.0605 24.25 9.5053 24.1156 8.99252 23.8592C8.48034 23.6031 8.02332 23.2319 7.64372 22.7737C7.42351 22.5079 7.46048 22.1139 7.7263 21.8937Z" fill="#E164C4"/>
    <path fill-rule="evenodd" clip-rule="evenodd" d="M10.625 0.5C10.9702 0.5 11.25 0.779822 11.25 1.125V2.375C11.25 2.72018 10.9702 3 10.625 3C10.2798 3 10 2.72018 10 2.375V1.125C10 0.779822 10.2798 0.5 10.625 0.5Z" fill="#E164C4"/>
    <path fill-rule="evenodd" clip-rule="evenodd" d="M2.5 9.875C2.5 5.38769 6.13769 1.75 10.625 1.75C15.1123 1.75 18.75 5.38769 18.75 9.875V14.7275C18.75 15.3472 19.1002 15.9138 19.6545 16.191L20.0504 16.3889C20.7856 16.7565 21.25 17.5079 21.25 18.3299C21.25 19.5284 20.2784 20.5 19.0799 20.5H2.17008C0.97158 20.5 0 19.5284 0 18.3299C0 17.5079 0.464403 16.7565 1.19959 16.3889L1.59549 16.191C2.14983 15.9138 2.5 15.3472 2.5 14.7275V9.875ZM10.625 3C6.82804 3 3.75 6.07804 3.75 9.875V14.7275C3.75 15.8207 3.13233 16.8201 2.15451 17.309L1.75861 17.507C1.4469 17.6628 1.25 17.9814 1.25 18.3299C1.25 18.8381 1.66194 19.25 2.17008 19.25H19.0799C19.5881 19.25 20 18.8381 20 18.3299C20 17.9814 19.8031 17.6628 19.4914 17.507L19.0955 17.309C18.1177 16.8201 17.5 15.8207 17.5 14.7275V9.875C17.5 6.07804 14.422 3 10.625 3Z" fill="#9A64E0"/>
</svg>
