<svg width="25" height="22" viewBox="0 0 25 22" fill="none" xmlns="http://www.w3.org/2000/svg">
    <path fill-rule="evenodd" clip-rule="evenodd" d="M18.875 0.75C19.2202 0.75 19.5 1.02982 19.5 1.375L19.5 3.875C19.5 4.22018 19.2202 4.5 18.875 4.5C18.5298 4.5 18.25 4.22018 18.25 3.875L18.25 1.375C18.25 1.02982 18.5298 0.75 18.875 0.75Z" fill="#E164C4"/>
    <path fill-rule="evenodd" clip-rule="evenodd" d="M7.625 0.75C7.97018 0.75 8.25 1.02982 8.25 1.375L8.25 3.875C8.25 4.22018 7.97018 4.5 7.625 4.5C7.27982 4.5 7 4.22018 7 3.875L7 1.375C7 1.02982 7.27982 0.75 7.625 0.75Z" fill="#E164C4"/>
    <path fill-rule="evenodd" clip-rule="evenodd" d="M0.75 7.625C0.75 5.20875 2.70875 3.25 5.125 3.25H20.125C22.5412 3.25 24.5 5.20875 24.5 7.625V17.625C24.5 20.0412 22.5412 22 20.125 22H5.125C2.70875 22 0.75 20.0412 0.75 17.625V7.625ZM5.125 4.5C3.39911 4.5 2 5.89911 2 7.625V17.625C2 19.3509 3.39911 20.75 5.125 20.75H20.125C21.8509 20.75 23.25 19.3509 23.25 17.625V7.625C23.25 5.89911 21.8509 4.5 20.125 4.5H5.125Z" fill="#9A64E0"/>
    <path fill-rule="evenodd" clip-rule="evenodd" d="M0.75 8.875C0.75 8.52982 1.02982 8.25 1.375 8.25H23.875C24.2202 8.25 24.5 8.52982 24.5 8.875C24.5 9.22018 24.2202 9.5 23.875 9.5H1.375C1.02982 9.5 0.75 9.22018 0.75 8.875Z" fill="#9A64E0"/>
    <path fill-rule="evenodd" clip-rule="evenodd" d="M4.5 12.625C4.5 12.2798 4.77982 12 5.125 12H7.625C7.97018 12 8.25 12.2798 8.25 12.625C8.25 12.9702 7.97018 13.25 7.625 13.25H5.125C4.77982 13.25 4.5 12.9702 4.5 12.625Z" fill="#E164C4"/>
    <path fill-rule="evenodd" clip-rule="evenodd" d="M4.5 17.625C4.5 17.2798 4.77982 17 5.125 17H7.625C7.97018 17 8.25 17.2798 8.25 17.625C8.25 17.9702 7.97018 18.25 7.625 18.25H5.125C4.77982 18.25 4.5 17.9702 4.5 17.625Z" fill="#E164C4"/>
    <path fill-rule="evenodd" clip-rule="evenodd" d="M10.75 12.625C10.75 12.2798 11.0298 12 11.375 12H13.875C14.2202 12 14.5 12.2798 14.5 12.625C14.5 12.9702 14.2202 13.25 13.875 13.25H11.375C11.0298 13.25 10.75 12.9702 10.75 12.625Z" fill="#E164C4"/>
    <path fill-rule="evenodd" clip-rule="evenodd" d="M10.75 17.625C10.75 17.2798 11.0298 17 11.375 17H13.875C14.2202 17 14.5 17.2798 14.5 17.625C14.5 17.9702 14.2202 18.25 13.875 18.25H11.375C11.0298 18.25 10.75 17.9702 10.75 17.625Z" fill="#E164C4"/>
    <path fill-rule="evenodd" clip-rule="evenodd" d="M17 12.625C17 12.2798 17.2798 12 17.625 12H20.125C20.4702 12 20.75 12.2798 20.75 12.625C20.75 12.9702 20.4702 13.25 20.125 13.25H17.625C17.2798 13.25 17 12.9702 17 12.625Z" fill="#E164C4"/>
    <path fill-rule="evenodd" clip-rule="evenodd" d="M17 17.625C17 17.2798 17.2798 17 17.625 17H20.125C20.4702 17 20.75 17.2798 20.75 17.625C20.75 17.9702 20.4702 18.25 20.125 18.25H17.625C17.2798 18.25 17 17.9702 17 17.625Z" fill="#E164C4"/>
</svg>
