<svg width="16" height="15" viewBox="0 0 16 15" fill="none" xmlns="http://www.w3.org/2000/svg">
    <path d="M3.21176 14.6824H2.29412L2.84471 13.9482C3.21176 13.4435 3.44118 12.8012 3.57882 12.0212C1.28471 10.9659 0 8.99294 0 6.42353C0 2.47765 2.98235 0 7.8 0C12.6176 0 15.6 2.47765 15.6 6.42353C15.6 10.4612 12.6635 12.8471 7.8 12.8471H7.47882C6.74471 13.7188 5.46 14.6824 3.21176 14.6824ZM7.8 0.917647C3.48706 0.917647 0.917647 2.98235 0.917647 6.42353C0.917647 9.36 2.70706 10.7365 4.22118 11.3329L4.54235 11.4706L4.49647 11.8376C4.40471 12.5718 4.26706 13.2141 3.99177 13.7647C5.50588 13.5812 6.37765 12.8012 6.88235 12.1588L7.02 11.9753H7.8C13.9941 11.9753 14.6824 8.12118 14.6824 6.46941C14.6824 2.98235 12.1129 0.917647 7.8 0.917647Z" fill="#D7D8DA"/>
</svg>
