<svg width="30" height="30" viewBox="0 0 30 30" fill="none" xmlns="http://www.w3.org/2000/svg">
    <path d="M15 3.43774C6.32875 3.43774 3.4375 6.32899 3.4375 15.0002C3.4375 23.6715 6.32875 26.5627 15 26.5627C23.6712 26.5627 26.5625 23.6715 26.5625 15.0002" stroke="#F2F2F2" stroke-linecap="round" stroke-linejoin="round"/>
    <path fill-rule="evenodd" clip-rule="evenodd" d="M24.4105 5.37979C23.1693 4.28104 21.273 4.39604 20.1743 5.63729C20.1743 5.63729 14.713 11.806 12.8193 13.9473C10.923 16.0873 12.313 19.0435 12.313 19.0435C12.313 19.0435 15.443 20.0348 17.3105 17.9248C19.1793 15.8148 24.668 9.61604 24.668 9.61604C25.7668 8.37479 25.6505 6.47854 24.4105 5.37979Z" stroke="white" stroke-linecap="round" stroke-linejoin="round"/>
    <path d="M18.7607 7.25122L23.2545 11.23" stroke="white" stroke-linecap="round" stroke-linejoin="round"/>
</svg>
