<svg width="24" height="24" viewBox="0 0 24 24" fill="none" xmlns="http://www.w3.org/2000/svg">
    <g clip-path="url(#clip0)">
        <path fill-rule="evenodd" clip-rule="evenodd" d="M0 6.46154C0 2.89293 2.89293 0 6.46154 0H17.5385C21.1071 0 24 2.89293 24 6.46154V17.5385C24 21.1071 21.1071 24 17.5385 24H6.46154C2.89293 24 0 21.1071 0 17.5385V6.46154ZM6.46154 1.84615C3.91253 1.84615 1.84615 3.91253 1.84615 6.46154V17.5385C1.84615 20.0875 3.91253 22.1538 6.46154 22.1538H17.5385C20.0875 22.1538 22.1538 20.0875 22.1538 17.5385V6.46154C22.1538 3.91253 20.0875 1.84615 17.5385 1.84615H6.46154Z" fill="#9A64E0" stroke="#2A2E39" stroke-width="0.7" stroke-linecap="round" stroke-linejoin="round"/>
        <path d="M10.259 15.8566C10.259 15.5418 10.3707 15.2727 10.5941 15.0492C10.8277 14.8156 11.1121 14.6988 11.4473 14.6988C11.7926 14.6988 12.082 14.8105 12.3156 15.034C12.5594 15.2574 12.6812 15.5316 12.6812 15.8566C12.6812 16.1816 12.5594 16.4508 12.3156 16.6641C12.082 16.8773 11.7926 16.984 11.4473 16.984C11.1121 16.984 10.8277 16.8773 10.5941 16.6641C10.3707 16.4508 10.259 16.1816 10.259 15.8566ZM13.3668 11.2254C12.8082 11.6418 12.4121 12.1902 12.1785 12.8707C12.1277 13.023 12.1023 13.4039 12.1023 14.0133H10.5789C10.5383 13.8203 10.5281 13.5664 10.5484 13.2516C10.5687 12.7641 10.5789 12.5508 10.5789 12.6117C10.5789 12.0734 10.6906 11.6367 10.9141 11.3016C11.0969 11.0273 11.5184 10.6262 12.1785 10.098C12.666 9.70195 12.9098 9.28555 12.9098 8.84883C12.9098 8.46289 12.7828 8.11758 12.5289 7.81289C12.2852 7.49805 12.0008 7.34063 11.6758 7.34063C10.843 7.34063 10.2387 7.88906 9.86289 8.98594L8.40039 8.37656C8.76602 7.51328 9.1875 6.90391 9.66484 6.54844C10.1422 6.18281 10.7922 6 11.6148 6C12.6305 6 13.4227 6.27422 13.9914 6.82266C14.4992 7.33047 14.7531 8.00586 14.7531 8.84883C14.7531 9.38711 14.6312 9.84922 14.3875 10.2352C14.1945 10.5297 13.8543 10.8598 13.3668 11.2254Z" fill="#E164C4"/>
    </g>
    <defs>
        <clipPath id="clip0">
            <rect width="24" height="24" fill="white"/>
        </clipPath>
    </defs>
</svg>
