<svg width="31" height="31" viewBox="0 0 31 31" fill="none" xmlns="http://www.w3.org/2000/svg">
    <path fill-rule="evenodd" clip-rule="evenodd" d="M14.6068 2.58331C17.7662 2.58331 20.3367 5.15373 20.3367 8.31315V9.51698C20.3367 10.0517 19.9027 10.4857 19.3679 10.4857C18.8332 10.4857 18.3992 10.0517 18.3992 9.51698V8.31315C18.3992 6.22065 16.698 4.52081 14.6068 4.52081H8.30994C6.22132 4.52081 4.52148 6.22065 4.52148 8.31315V22.6881C4.52148 24.7793 6.22132 26.4791 8.30994 26.4791H14.621C16.7032 26.4791 18.3992 24.7845 18.3992 22.7023V21.4843C18.3992 20.9495 18.8332 20.5155 19.3679 20.5155C19.9027 20.5155 20.3367 20.9495 20.3367 21.4843V22.7023C20.3367 25.854 17.7714 28.4166 14.621 28.4166H8.30994C5.15311 28.4166 2.58398 25.8475 2.58398 22.6881V8.31315C2.58398 5.15373 5.15311 2.58331 8.30994 2.58331H14.6068ZM25.0436 11.0489L28.8256 14.8141C28.8594 14.8476 28.8896 14.8824 28.9172 14.9192L28.8256 14.8141C28.8714 14.8592 28.9121 14.9085 28.9474 14.9611C28.9629 14.9849 28.9779 15.0096 28.9918 15.0349C29.0031 15.0547 29.0135 15.0753 29.0231 15.0963C29.0312 15.1148 29.0391 15.1334 29.0463 15.1522C29.0561 15.1768 29.0646 15.202 29.0721 15.2276C29.0777 15.2477 29.0829 15.2678 29.0874 15.2881C29.0932 15.3128 29.0977 15.3376 29.1013 15.3627C29.1033 15.3789 29.1053 15.396 29.1068 15.4131C29.1098 15.4426 29.1111 15.4712 29.1111 15.5L29.1045 15.5801L29.1018 15.6314C29.1015 15.6336 29.1012 15.6358 29.1009 15.6379L29.1111 15.5C29.1111 15.5717 29.1031 15.6427 29.0877 15.7117C29.0829 15.7321 29.0777 15.7522 29.0719 15.7721C29.0646 15.798 29.0561 15.8232 29.0465 15.848C29.0391 15.8666 29.0312 15.8851 29.0229 15.9034C29.0135 15.9247 29.0031 15.9453 28.992 15.9656C28.9779 15.9904 28.9629 16.015 28.9469 16.0389C28.9378 16.0531 28.9279 16.0671 28.9176 16.0808C28.8868 16.1212 28.8533 16.1593 28.817 16.1946L25.0436 19.9524C24.855 20.1409 24.607 20.2352 24.3603 20.2352C24.1123 20.2352 23.863 20.1409 23.6744 19.9498C23.2973 19.57 23.2986 18.9578 23.677 18.5806L25.7952 16.4687H12.589C12.0542 16.4687 11.6202 16.0347 11.6202 15.5C11.6202 14.9652 12.0542 14.5312 12.589 14.5312H25.7978L23.677 12.4206C23.2986 12.0435 23.296 11.4312 23.6744 11.0515C24.0516 10.6717 24.6639 10.6717 25.0436 11.0489Z" fill="white"/>
</svg>
