<svg width="30" height="30" viewBox="0 0 30 30" fill="none" xmlns="http://www.w3.org/2000/svg">
    <path d="M2.99891 24C5.73553 27.6433 10.0926 30 15 30C16.1913 30 17.3501 29.8611 18.4613 29.5987C18.4998 29.5612 18.5381 29.5234 18.5762 29.4853C20.2544 27.8071 21.3973 25.6689 21.8603 23.3411C22.3233 21.0133 22.0857 18.6005 21.1775 16.4078C20.2692 14.2151 18.7311 12.341 16.7577 11.0224C15.6304 10.2691 14.3899 9.71646 13.0909 9.38106V18.75C13.0909 21.6495 10.7404 24 7.8409 24H2.99891Z" fill="white"/>
    <path d="M1.24814 21H7.8409C9.08355 21 10.0909 19.9927 10.0909 18.75V8.25002C10.0909 7.00738 11.1038 5.98274 12.3325 6.16844C14.5028 6.49647 16.5842 7.29838 18.4245 8.52797C20.8912 10.1762 22.8138 12.5189 23.9491 15.2598C25.0844 18.0007 25.3815 21.0167 24.8027 23.9264C24.5787 25.0522 24.2275 26.1426 23.7596 27.178C27.5393 24.4544 30 20.0146 30 15C30 6.71573 23.2843 0 15 0C6.71573 0 0 6.71573 0 15C0 17.1333 0.445347 19.1626 1.24814 21Z" fill="white"/>
</svg>
