<svg width="25" height="25" viewBox="0 0 25 25" fill="none" xmlns="http://www.w3.org/2000/svg">
    <path fill-rule="evenodd" clip-rule="evenodd" d="M10.75 1.75C5.91751 1.75 2 5.66751 2 10.5C2 15.3325 5.91751 19.25 10.75 19.25C15.5825 19.25 19.5 15.3325 19.5 10.5C19.5 5.66751 15.5825 1.75 10.75 1.75ZM0.75 10.5C0.75 4.97715 5.22715 0.5 10.75 0.5C16.2728 0.5 20.75 4.97715 20.75 10.5C20.75 16.0228 16.2728 20.5 10.75 20.5C5.22715 20.5 0.75 16.0228 0.75 10.5Z" fill="#9A64E0"/>
    <path fill-rule="evenodd" clip-rule="evenodd" d="M18.4331 18.1831C18.6771 17.939 19.0729 17.939 19.3169 18.1831L24.3169 23.1831C24.561 23.4271 24.561 23.8229 24.3169 24.0669C24.0729 24.311 23.6771 24.311 23.4331 24.0669L18.4331 19.0669C18.189 18.8229 18.189 18.4271 18.4331 18.1831Z" fill="#E164C4"/>
</svg>
