<svg width="28" height="28" viewBox="0 0 28 28" fill="none" xmlns="http://www.w3.org/2000/svg">
    <g clip-path="url(#clip0)">
        <path d="M26.6365 14.0142C26.6474 13.178 26.1944 12.4095 25.4589 12.0062L8.31838 2.58868C7.55065 2.15478 6.64564 2.20809 5.92222 2.70208C5.18552 3.20439 4.80845 4.40016 5.01439 5.2638L6.61453 11.9678C6.7788 12.6552 7.39405 13.1393 8.10187 13.1362L17.6405 13.1066C18.129 13.0969 18.5251 13.493 18.5153 13.9815C18.5138 14.4616 18.1235 14.8519 17.6351 14.8617L8.08735 14.8839C7.37952 14.8853 6.76126 15.3715 6.59273 16.0599L4.936 22.7906C4.73485 23.586 4.96418 24.38 5.52539 24.9412C5.59141 25.0072 5.66569 25.0815 5.74002 25.1392C6.46679 25.6999 7.4186 25.7714 8.23124 25.3384L25.4299 16.0131C26.1679 15.6217 26.6256 14.8504 26.6365 14.0142Z" fill="#9A64E0"/>
    </g>
    <defs>
        <clipPath id="clip0">
            <rect width="28" height="28" fill="white"/>
        </clipPath>
    </defs>
</svg>
