<svg width="25" height="25" viewBox="0 0 25 25" fill="none" xmlns="http://www.w3.org/2000/svg">
    <path fill-rule="evenodd" clip-rule="evenodd" d="M12.375 8C9.95875 8 8 9.95875 8 12.375C8 14.7912 9.95875 16.75 12.375 16.75C14.7912 16.75 16.75 14.7912 16.75 12.375C16.75 9.95875 14.7912 8 12.375 8ZM6.75 12.375C6.75 9.2684 9.2684 6.75 12.375 6.75C15.4816 6.75 18 9.2684 18 12.375C18 15.4816 15.4816 18 12.375 18C9.2684 18 6.75 15.4816 6.75 12.375Z" fill="#E164C4"/>
    <path fill-rule="evenodd" clip-rule="evenodd" d="M9.88168 1.58246C11.2306 0.13918 13.5194 0.139179 14.8683 1.58246L15.5673 2.3303L15.1106 2.75706L15.5673 2.3303C15.9936 2.78649 16.5963 3.03614 17.2204 3.01505L18.2434 2.98048C20.2178 2.91375 21.8362 4.53218 21.7695 6.50657L21.735 7.52959C21.7139 8.15365 21.9635 8.75637 22.4197 9.18274L23.1675 9.88168C24.6108 11.2306 24.6108 13.5194 23.1675 14.8683L22.4197 15.5673C21.9635 15.9936 21.7139 16.5963 21.735 17.2204L21.7695 18.2434C21.8362 20.2178 20.2178 21.8362 18.2434 21.7695L17.2204 21.735C16.5963 21.7139 15.9936 21.9635 15.5673 22.4197L14.8683 23.1675C13.5194 24.6108 11.2306 24.6108 9.88168 23.1675L9.18274 22.4197C8.75637 21.9635 8.15365 21.7139 7.5296 21.735L6.50657 21.7695C4.53219 21.8362 2.91375 20.2178 2.98048 18.2434L3.01505 17.2204C3.03614 16.5963 2.78649 15.9936 2.3303 15.5673L1.58246 14.8683C0.13918 13.5194 0.139179 11.2306 1.58246 9.88168L1.99766 10.3259L1.58246 9.88168L2.3303 9.18274C2.78649 8.75637 3.03614 8.15365 3.01505 7.5296L2.98048 6.50657C2.91375 4.53219 4.53218 2.91375 6.50657 2.98048L7.5296 3.01505C8.15365 3.03614 8.75637 2.78649 9.18274 2.3303L9.88168 1.58246ZM13.9551 2.43599C13.1002 1.52134 11.6498 1.52134 10.7949 2.43599L10.096 3.18382C9.42318 3.90367 8.47211 4.29762 7.48738 4.26434L6.46435 4.22976C5.21313 4.18748 4.18748 5.21313 4.22976 6.46435L4.26434 7.48738C4.29762 8.47212 3.90367 9.42318 3.18382 10.096L2.43599 10.7949C1.52134 11.6498 1.52134 13.1002 2.43599 13.9551L3.18382 14.654C3.90367 15.3268 4.29762 16.2779 4.26434 17.2626L4.22976 18.2857C4.18748 19.5369 5.21313 20.5625 6.46435 20.5202L7.48738 20.4857C8.47212 20.4524 9.42319 20.8463 10.096 21.5662L10.7949 22.314C11.6498 23.2287 13.1002 23.2287 13.9551 22.314L14.654 21.5662C15.3268 20.8463 16.2779 20.4524 17.2626 20.4857L18.2857 20.5202C19.5369 20.5625 20.5625 19.5369 20.5202 18.2857L20.4857 17.2626C20.4524 16.2779 20.8463 15.3268 21.5662 14.654L22.314 13.9551C23.2287 13.1002 23.2287 11.6498 22.314 10.7949L21.5662 10.096C20.8463 9.42318 20.4524 8.47211 20.4857 7.48738L20.5202 6.46435C20.5625 5.21312 19.5369 4.18748 18.2857 4.22976L17.2626 4.26434C16.2779 4.29762 15.3268 3.90367 14.654 3.18382L13.9551 2.43599L14.4117 2.00922L13.9551 2.43599Z" fill="#9A64E0"/>
</svg>
