<svg width="97" height="100" viewBox="0 0 97 100" fill="none" xmlns="http://www.w3.org/2000/svg">
    <path d="M94.1643 11.7773C93.2256 8.22266 90.429 5.42969 86.8698 4.47266C82.1958 3.22266 74.9012 1.73828 66.3746 1.5625L97 32.1875C96.8436 23.6914 95.3964 16.4453 94.1643 11.7773ZM2.83569 88.2227C3.7744 91.7773 6.57097 94.5703 10.1302 95.5273C14.8042 96.7773 22.0988 98.2617 30.6254 98.4375L0 67.8125C0.156452 76.3086 1.60363 83.5547 2.83569 88.2227ZM0.821371 55.3516L43.1024 97.6562C69.0147 93.8672 91.7589 74.4727 96.1982 44.6484L53.8976 2.34375C27.9853 6.13281 5.24113 25.5273 0.821371 55.3516ZM62.874 31.2109C63.4802 30.6055 64.4776 30.6055 65.0839 31.2109L67.2938 33.418C67.9 34.0234 67.9 35.0195 67.2938 35.625L61.7593 41.1523L67.2938 46.6797C67.9 47.2852 67.9 48.2812 67.2938 48.8867L65.0839 51.0938C64.4776 51.6992 63.4802 51.6992 62.874 51.0938L57.3395 45.5664L52.9198 50L58.4542 55.5273C59.0605 56.1328 59.0605 57.1289 58.4542 57.7344L56.2444 59.9414C55.6381 60.5469 54.6407 60.5469 54.0345 59.9414L48.5 54.4141L44.0802 58.8281L49.6147 64.3555C50.221 64.9609 50.221 65.957 49.6147 66.5625L47.4048 68.7695C46.7986 69.375 45.8012 69.375 45.195 68.7695L39.6605 63.2422L34.126 68.7695C33.5198 69.375 32.5224 69.375 31.9161 68.7695L29.7062 66.5625C29.1 65.957 29.1 64.9609 29.7062 64.3555L35.2407 58.8281L29.7062 53.3203C29.1 52.7148 29.1 51.7188 29.7062 51.1133L31.9161 48.9062C32.5224 48.3008 33.5198 48.3008 34.126 48.9062L39.6605 54.4336L44.0802 50.0195L38.5458 44.4922C37.9395 43.8867 37.9395 42.8906 38.5458 42.2852L40.7556 40.0781C41.3619 39.4727 42.3593 39.4727 42.9655 40.0781L48.5 45.6055L52.9198 41.1914L47.3853 35.6641C46.779 35.0586 46.779 34.0625 47.3853 33.457L49.5952 31.25C50.2014 30.6445 51.1988 30.6445 51.805 31.25L57.3395 36.7773L62.874 31.2109Z" fill="black"/>
</svg>
