<svg width="17" height="16" viewBox="0 0 17 16" fill="none" xmlns="http://www.w3.org/2000/svg">
    <path d="M3.14177 15.2672L3.14213 15.2672L4.02399 10.2417L4.03325 10.1889L3.99447 10.152L0.251421 6.58638C-0.0424904 6.30587 0.117732 5.80171 0.496982 5.74839L0.497129 5.74837L5.70116 5.00888L5.75285 5.00154L5.77637 4.95493L8.09683 0.356511L8.09685 0.356524L8.0979 0.354316C8.13399 0.278223 8.19094 0.213932 8.26212 0.168915C8.33329 0.123897 8.41579 0.1 8.50001 0.1C8.58423 0.1 8.66672 0.123897 8.7379 0.168915C8.80908 0.213933 8.86602 0.278223 8.90212 0.354317L8.90209 0.35433L8.9032 0.356519L11.2237 4.95387L11.2472 5.00047L11.2989 5.00782L16.5029 5.74731L16.5031 5.74733C16.8831 5.80064 17.0426 6.30454 16.7476 6.58521L16.7476 6.58526L13.0055 10.1509L12.9668 10.1879L12.976 10.2406L13.8579 15.2662L13.8579 15.2662C13.9283 15.6659 13.5368 15.9568 13.2095 15.7889L3.14177 15.2672ZM3.14177 15.2672C3.07304 15.6671 3.46397 15.9564 3.79061 15.7889L8.45483 13.392L8.50054 13.3685L8.54625 13.392L13.2094 15.7889L3.14177 15.2672ZM8.30081 12.3969L8.30069 12.3964C8.36204 12.3649 8.42999 12.3485 8.49895 12.3485C8.5682 12.3485 8.63646 12.3651 8.69802 12.3968L8.69814 12.3969L12.6144 14.4092L12.7934 14.5012L12.7586 14.303L12.0213 10.0988L12.0212 10.0983C12.0067 10.0175 12.0122 9.93438 12.0374 9.85624C12.0625 9.77821 12.1064 9.70755 12.1653 9.65049C12.1654 9.65041 12.1655 9.65033 12.1655 9.65025L15.2525 6.70773L15.4019 6.56533L15.1976 6.53634L10.8933 5.92554C10.8932 5.92552 10.893 5.9255 10.8929 5.92548C10.8199 5.91438 10.7506 5.88579 10.6911 5.84213C10.6314 5.79839 10.5832 5.74084 10.5506 5.6744L10.5501 5.67335L8.58768 1.7868L8.49837 1.60991L8.40913 1.78684L6.44885 5.67339L6.44885 5.67339L6.44835 5.6744C6.41577 5.74084 6.36758 5.79839 6.3079 5.84213C6.24833 5.88579 6.17908 5.91438 6.10607 5.92548C6.10593 5.9255 6.10579 5.92552 6.10565 5.92554L1.80134 6.5374L1.59707 6.56644L1.74641 6.70879L4.83338 9.65129C4.83348 9.65138 4.83357 9.65147 4.83366 9.65156C4.89236 9.70853 4.93619 9.77903 4.96132 9.85687C4.98648 9.93484 4.99212 10.0178 4.97772 10.0985L4.97767 10.0988L4.24031 14.303L4.20555 14.5012L4.38451 14.4092L8.30081 12.3969Z" fill="#D7D8DA" stroke="#373D48" stroke-width="0.2"/>
</svg>
